<?xml version="1.0" encoding="UTF-8"?>
<svg id="Capa_2" data-name="Capa 2" xmlns="http://www.w3.org/2000/svg" viewBox="0 0 368.55 258.91">
  <defs>
    <style>
      .cls-1 {
        fill: #fff;
      }
    </style>
  </defs>
  <g id="Capa_1-2" data-name="Capa 1">
    <g>
      <path class="cls-1" d="M184.22,22.62l.59.1.7-.47-.25-.09-.02-.17.22-.09-.17-.08-.89-.3-.27.05-.07.02-.11.09-.11.28v.1l.04.11.34.44M184.29,21.72l.04.03-.03.04-.04-.03.03-.04M184.34,22.05l.25-.07.26.08.12.09.06.17-.4.1-.37-.14.08-.24"/>
      <polyline class="cls-1" points="184.33 21.76 184.29 21.72 184.26 21.76 184.3 21.79 184.33 21.76"/>
      <path class="cls-1" d="M135.2,158.73h38.75c4.65,0,9.44,4.66,10.25,9.59.92-4.92,4.78-8.94,10.79-9.59l39,.13c4.4.27,5.86-.9,6.12-6.99l.13-151.74-112.62-.13v152.25c0,4.4,4.79,6.48,7.58,6.48M226.53,46.25c0,1.81,5.33,1.31,5.33.39l1.05.26c.54,1.82,3.07,2.98,4.28,2.59v4.15c-2.55,0-5.89-2.98-5.89-5.83-7.31,3.1-10.09-2.6-10.9-3.9-.66-2.32-.27-6.99,1.6-6.73h1.06c-1.32,2.72.4,9.2,3.47,9.06M237.2,47.82c-.94.91-3.34-.91-3.34-2.07l-2.27-.53c-.93,1.69-4.26,1.69-4.52.53-1.33.26-4.53-4.94-2.8-8.56-.27-.52.93-1.03,0-1.69-.8,1.18-3.86.66-5.06-.25-2.53-2.07-3.33-5.57-3.33-6.99,0-.92.28-3.5,1.61-3.5v-.9c-2.14,0-3.59-4.41-3.59-6.36l.52-.51,1.99,1.43c.8-.66-.25.9,1.35,1.94,1.19,1.17,3.99,1.17,5.18.13.26.78,2.54,2.19,5.07.52,0,.52,1.6,1.43,2.14-.25-.82,0-3.08-1.81-3.61-4.4-1.73,0-4.53-.27-3.6-3.25h-.53c-.54.91-.66,2.07-.4,2.71.67,1.17,3.19,1.94,3.73,1.69.53.52.8,3.5-.93,3.25-1.33-.66-1.61-1.43-1.87-2.08l-.53.27c-.94,1.81-3.99,1.42-4.27-.52l-.38-.92c-1.35,0-2.41-1.42-2.8-1.42l-.26-2.07c-3.08,0-4.4-4.02-4.4-6.6l.26-.66c-.94-1.16-2.53-.27-3.46-.9,0-.26-2.53-2.34-1.34-2.34l31.44.14v44.19ZM218.29,138.77c-1.73-.64-4.26-1.55-4.81-1.8.79,0,2.8-.52,2.8-.52l4,1.16c-.53.52-1.2.91-1.99,1.16M220.55,139.03v4.67c-.27.65-1.2.78-1.74.78v-4.91l1.74-.54M201.63,148.36c-1.59.78-10.11,1.04-10.11.78-.27-2.33.12-4.28-.27-5.82,2.53,0,8.12-.27,10.38-.52-.27,1.17,0,4.39,0,5.56M147.85,137.73l2-1.17c.53.41,1.06.65,1.99.93l-1.99.89c-.94,0-1.73-.25-2-.65M148.65,139.57v4.65l-1.59-1.17v-4.4l1.59.92M149.05,135.14c.8-.91,2.13-.91,2.8-1.15v1.15c-.94,0-1.99,0-2.52.65-.41.27-.94-.26-.27-.65M149.85,139.82c1.06.51,5.05,1.41,5.85,1.41v4.94c-.53.39-4.25-.78-6.01-1.42.16-1.69.16-3.11.16-4.92M150.65,139.3c.53-.39,1.72-.92,2.26-1.57.8.4,3.32.65,5.33,1.04-.8.53-2.02,1.05-2.54,1.56-1.73-.26-3.86-.76-5.06-1.03M183.54,86.69h.53c0,.79.53.51.27,1.43l.93.51v.4h-.93v1.67c.93-.91,2.79,2.07,3.05-.25h.67c.8,1.68,1.86,2.07,3.33-.25h2.26c-.94,0-2.8,1.93-3.73,3.1-1.32-.53-3.33-1.69-5.58-1.69s-5.32,1.43-6.13,1.69c-.26-1.17-1.74-2.84-3.33-3.1l2.14-.41c.65,1.17,2.53,2.34,3.19.66h.53c0,2.07,2.28-.66,2.81.25v-1.67h-1.19v-.4l1.19-.51c-.28-.64,0-.64,0-1.43M192.45,82.92c1.19,0,4.26.26,5.32.53l-.25,2.33c-1.61-.25-2.53-.25-5.07-.25.26-1.17,0-2.07,0-2.6M215.48,91.09l-.26,1.94c-1.19.12-1.99-.27-2.52-.51.26-.65.26-1.43.26-2.07.53,0,1.47.25,2.53.64M214.95,89.92c0-.65.26-1.81.26-2.07l.54.26v2.08l-.8-.27M165.3,138.13c-.67,0-3.21-.25-4-.64v-1.96l4.28.53c-.43.64-.43,1.43-.28,2.07M154.65,112.22c0,.51,0,1.03.25,2.33-1.06-.39-1.72-.39-1.99-.39v-1.93h1.74ZM152.91,110.15v-2.08h.93v2.33q-.27,0-.93-.25M155.71,97.31l4.52-.53v2.61c-1.33,0-4.52.24-4.52.24v-2.33ZM153.84,95.89v-2.32c.54,0,1.87-.27,3.33-.27v2.34s-1.99.25-3.33.25M171.95,95.37v1.42c-1.05.27-2.14.91-2.4,1.44h-2.52v-2.86h4.92ZM167.03,94.45v-2.85c.54-.39,1.85-.39,2.52-.39l-.39,3.24c-.8-.25-1.34-.25-2.13,0M181.8,95.12v2.32l-2.8-.12v-2.2h2.8ZM179.27,93.04h2.53v.53h-2.53v-.53ZM181.8,100.04h-2.79v-2.34h2.79v2.34ZM181.8,102.62h-2.79v-2.33h2.79v2.33ZM181.8,105.48h-2.79v-2.59h2.79v2.59ZM181.8,106.13v2.06c-.79-.38-2-.89-2.8-1.81v-.25h2.8ZM182.35,109.36v.79c-1.07-1.17-4.4-3.12-7.21-5.58-1.47-1.03-2.66-2.59-3.19-3.76-.26-.77-.26-1.94,0-2.84.38-.28,1.2-2.08,3.46-2.08.82.26.82.9.27,1.17h-.54l-.52-.53-1.21.53c-.79,1.17-1.08,2.34-.93,3.5.67,1.43,1.47,2.59,3.46,4.41.53.52,3.87,2.85,6.41,4.4M177.55,111.05h2.65v1.42c-.93.39-1.74.65-2.65,1.18v-2.6ZM177.02,110.15v-2.6q1.18.91,2.79,1.81v.79h-2.79M160.23,103.4v2.73c-1.18,0-2.79.25-4.52.25v-2.32c-.26,0,3.6-.66,4.52-.66M171.95,102.62c.53,1.17,2,2.6,2.67,3.12h-7.59c-.14-.77-.14-1.95,0-2.85,1.06,0,3.32-.27,4.92-.27M170.35,101.98v-2.58h.79c0,.89.27,2.07.55,2.58h-1.34ZM168.89,107.03v3.12h-3.86l-.25-2.85c1.05,0,2.79-.39,4.11-.27M165.57,111.57v2.71c-1.22,0-2.81,0-4.54-.13v-2.58c.53,0,3.2-.27,4.54,0M159.04,118.31c0-.91-.26-2.34,0-2.98.91-.26,2.79,0,3.72,0,.28.91.28,1.81.28,2.98h-4ZM165.57,119.99l.25.39c0,.78-.25,1.69-.25,2.21-1.48,0-2.81-.26-4.28-.26-.26-.91-.26-1.69-.26-2.59l4.54.26M160.23,119.73v.26c-.27.65-.27,1.16-.27,2.33h-3.98c-.27-.52,0-1.69,0-2.59h4.25ZM163.29,110.15h-4.8v-2.6c1.21,0,3.2-.26,4.8-.26v2.85ZM159.95,111.96c0,.51-.25,1.69,0,2.59h-4.25v-2.59c.66-.12,3.34-.39,4.25,0M157.44,115.33l.25,2.98c-.52.25-3.32-.13-3.98,0,.13-.65.27-2.07.27-2.98h3.46ZM154.9,119.73v2.34h-1.72v-2.59c.79,0,1.19,0,1.72.26M153.71,125.56v-2.08c.94-.25,2.52,0,3.2,0v2.34c-.4,0-2.01,0-3.2-.26M155.18,126.99v2.85c-.81,0-1.47,0-2-.26v-2.59h2M155.97,126.99c1.47.26,2.81.26,4.25.26v2.97c-1.44,0-3.32,0-4.25-.38v-2.85ZM158.49,126.08v-2.6c1.73.27,3.07,0,4.55.27,0,.91.25,1.42.25,2.33h-4.8ZM161.56,127.25c.92,0,3.47.64,4.01.26v3.24c-1.22,0-2.81-.27-4.01-.27-.27-1.16,0-2.33,0-3.23M164.62,126.34c.15-1.17.15-1.69.15-2.59,1.58.26,2.79,0,4.38,0v2.71c-1.59,0-2.8,0-4.53-.12M166.89,127.88c1.2-.37,3.06,0,4.51,0,0,.78.28,2.33,0,2.86-1.99.37-3.98,0-4.51-.27v-2.6ZM170.61,126.46l-.27-2.71c1.06,0,1.6.39,2.52,0v2.71h-2.25ZM171.41,122.71h-4.51v-2.34c.26-.65,4-.25,4.79-.12l-.28,2.46ZM169.16,118.31c-2.26,0-3.33.25-5.06,0v-3.24h5.06v3.24ZM166.89,114.28v-2.99c1.2-.25,4.25-.25,5.06-.25v2.85c-1.6,0-3.32.39-5.06.39M170.61,109.89c0-.64-.27-2.07-.27-2.86h5.32l.26,3.12c-1.47,0-3.61,0-5.32-.26M178.46,100.04c-.8.25-1.71.52-2.53,0-.8-.39-1.06-1.56-.26-2.07.26-.28,1.73-.91,2.79-.28-3.06.28-2.79,1.95,0,2.34M178.46,104.96c-.52.26-1.06.26-1.71,0-.53-.4-.53-1.17,0-1.82.26,0,.91-.25,1.71,0-2,.39-1.71,1.82,0,1.82M175.41,101.98h-1.46v-1.7c0,2.07,1.46,2.07,1.72,0l-.27,1.7M178.46,95.37h-2.53v-.92h2.53v.92ZM170.61,93.82c.28-.78.28-1.95.28-2.86,1.05-.26,2.77-.51,3.72-.51.52.25,2.14,1.15,3.05,3.12-2.26,0-4.52,0-7.05.25M169.81,99.4l-.26,2.31-5.32.27v-1.95c.12-.39,4.13-.64,5.58-.64M165.57,103.14v2.59c-.8,0-3.09.39-4.54.39,0-.65,0-1.82.13-2.73.8,0,3.61-.26,4.41-.26M158.49,102.89c0-.66-.25-1.18-.25-2.33.54,0,2.51-.52,4.52-.52,0,.77,0,1.43.28,2.19-2.28.39-3.74.66-4.55.66M160.23,95.63h-1.98v-2.34l1.98-.26v2.6ZM157.44,100.81v2.08l-2.79.25v-1.94l2.79-.4ZM157.44,107.81c0,.91-.27,1.81-.27,2.59h-2.27l-.25-2.59h2.79ZM153.18,130.75l4.26.25c0,1.31.25,1.82,0,2.74-.54,0-3.46-.4-4.26-.65v-2.34ZM155.97,134.89c1.47.25,2.81.64,4.25.64,0,.53,0,1.03-.27,1.96-.91-.28-3.05-.53-3.98-.53v-2.08ZM158.78,133.99v-2.33l4.51.26c-.25.91,0,1.82-.25,2.32-.68.27-3.48-.25-4.26-.25M164.35,134.63v-2.72c1.47.39,3.21.39,4.8.39-.27.52,0,1.43,0,2.59-2,0-3.33,0-4.8-.25M166.89,136.32c1.2,0,3.46.38,4.51.38v2.33c-1.06,0-3.05-.26-4.78-.65,0-.25.27-1.16.27-2.06M170.35,135.14v-2.84c.27.26,1.6.26,2.52.26-.39,1.18,0,2.33-.12,2.58h-2.4ZM172.48,136.7h4.54v2.6c-1.75,0-3.35,0-4.54-.27v-2.33ZM173.95,135.14v-2.58h3.07v2.97c-.55,0-2.26,0-3.07-.39M172.87,130.75v-2.86l4.15.26v3.24c-.79,0-2.26,0-4.15-.64M176.76,126.99l-3.09-.26c0-.91.28-2.08,0-2.84,1.08.25,2.27.25,3.35.25l-.26,2.85ZM176.76,122.96v-.25h-3.89l.28-2.59,3.87,1.43c0,.25-.26.77-.26,1.41M174.75,118.56h-4.4c0-.77.27-2.33.27-3.5h4.52c0,1.17,0,3.5-.38,3.5M173.15,114.28c0-1.16.26-2.33,0-3.24h3.32c-.24.91,0,2.07,0,3.24h-3.32ZM177.27,114.55c1.2,1.17,1.74,1.94,2.54,2.85l-1.06,1.17c-.94-.52-2.28-2.33-2.81-2.59l1.33-1.43M179.01,114.55c.27-.65.8-.9,2.27-1.16l1.07,2.85c-.54.39-1.07.25-1.74.9-.28-.65-1.33-2.33-1.59-2.59M182.06,113.12l-.25-2.07h.54c.27,1.82,2.51,1.82,2.77,0h.55l.12,1.82c-.67,0-.94,3.11-.94,3.37-.53,0-1.32-.26-1.99,0l-.8-3.11M185.12,100.04h-2.77v-2.34h2.77v2.34ZM183.26,93.57h1.33c.53.63.26,1.15,0,1.8,0-1.8-1.33-2.08-1.73,0-.12-.65,0-1.42.4-1.8M188.59,97.43h-2.8v-2.32h2.8v2.32ZM186.06,93.04h2.53v.53h-2.53v-.53ZM186.06,100.28v-2.59h2.8v2.59h-.27v2.33h-2.8v-2.33h.27ZM188.85,103.28v2.21h-2.93l.13-2.21h2.8ZM188.59,106.13v.25c-.95.91-1.74,1.43-2.8,1.81v-2.06h2.8ZM191.91,104.96c1.73-1.69,2.8-2.85,3.33-4.41.4-1.16,0-2.33-.8-3.5-.26-.27-.8-.53-1.47-.53l-.53.53h-.54l.26-1.04c2.27,0,3.47,1.68,3.47,1.95.13.89.13,2.07-.13,2.98-.27,1.17-1.33,2.59-2.8,3.75-2.8,2.33-6.79,4.66-7.85,5.45v-.79c2.53-1.55,6.53-3.88,7.06-4.4M189.38,97.69c1.2-.63,2.26,0,2.79.28.8.64.54,1.8-.26,2.07-.79.52-1.74.25-2.79,0,2.79-.27,3.33-2.07.25-2.34M211.75,97.69c0,.65-.26,1.17-.26,2.08l-3.6-.91v-1.93c.79,0,3.06.5,3.86.76M207.89,95.63v-2.34l1.73.27v2.45c-.65-.38-1.2-.38-1.73-.38M212.95,114.55v-2.59h1.86c.14.91,0,1.82,0,2.59h-1.86ZM214.81,115.46v2.59h-.54l-.25-2.59h.79ZM194.71,126.73c-.26-1.17,0-1.68,0-2.84h3.07v2.84c-.53,0-2.26.26-3.07,0M195.24,127.88v3.5h-4.26v-3.5c1.19.26,2.8.26,4.26,0M187.92,109.89v-.91c1.73-.79,1.99-.79,2.81-1.68v2.59c-.15-.26-2.14,0-2.81,0M189.13,110.78v2.6c-.54-.26-1.21-.91-2.28-1.16v-1.44h2.28ZM190.17,110.78h4.82v3.11h-2.54l-2.28-1.03v-2.08ZM201.11,103.28c-.28.9-.28,1.69-.28,2.59h-7.85c1.47-.9,2.54-2.33,2.79-2.97.67,0,5.06.39,5.34.39M196.44,99.4h1.33v2.31h-1.33v-2.31ZM198.83,118.56v-3.5c1.47.13,2.8.13,4.54.13v3.37c-.8-.25-3.07,0-4.54,0M200.83,119.86v2.85h-4.8v-2.98c2.01,0,3.08,0,4.8.13M196.44,113.9v-3.11c1.33,0,3.07,0,4.66.27v2.97c-1.34-.13-3.33-.13-4.66-.13M206.42,119.47c0,.9.27,2.33.27,2.97-1.06.27-3.86.27-4.39.27,0-.91,0-2.08-.41-2.85,1.72,0,3.47-.39,4.52-.39M204.83,118.31v-3.12c.8,0,3.06,0,3.85.26,0,.9.28,1.68.28,2.85h-4.13ZM207.89,114.28v-2.58c.53,0,3.06,0,3.86.25v2.33h-3.86ZM209.22,110.53c-1.6-.38-3.32-.64-4.79-.64l.13-2.59,4.66.64c0,.79.15,1.69,0,2.6M206.7,111.3v2.73l-4.66-.13c-.13-.77,0-1.94,0-2.85,1.34,0,3.6.25,4.66.25M203.37,109.89c-.8-.26-3.07-.26-4.13-.26,0-.64-.41-1.81-.41-2.59,1.74,0,3.2.27,4.54.27,0,.89.25,1.68,0,2.59M197.77,109.89h-5.87v-2.85h5.87v2.85ZM192.71,115.06l4.81.13v3.37h-4.01l-.81-1.43,1.07-.51-1.07-1.56ZM196.03,127.88c1.21.26,3.73-.24,4.8-.24v3.11c-.79,0-3.06.37-4.8.37v-3.24ZM199.11,126.73c-.28-1.17,0-1.95,0-2.84.65,0,3.73-.41,4.25-.41v2.97c-.53,0-3.32.53-4.25.27M206.7,126.99l.28,3.23c-1.08,0-3.36.26-4.67.26l-.41-3.1c1.47.26,3.74-.39,4.8-.39M204.83,126.21v-2.98c.8.25,3.59-.27,4.39-.27-.26.66,0,2.35,0,2.99-.8.25-3.32.5-4.39.25M207.89,126.99c1.33,0,2.53-.26,3.86-.26v2.59c-.8.39-2.26.65-3.86.65v-2.98ZM210.42,125.95c-.26-1.17,0-2.07,0-2.99l4.13-.25v2.98c-.53,0-3.32.26-4.13.26M212.03,121.81c-1.34.39-3.06.39-4.14.64,0-.89-.27-2.33-.27-2.97,1.87,0,3.32-.25,4.41-.25v2.59ZM210.15,118.31v-3.12l3.07.26c.26.52.26,1.68.26,2.59l-3.33.27ZM214.02,110.78c-.8,0-3.08,0-3.87-.25,0-1.17,0-1.81.26-2.6,1.33.26,2.53.26,3.85.26-.25.53-.25,1.43-.25,2.59M211.49,106.77c-1.07,0-3.34-.39-4.13-.39v-2.2c1.32.26,2.26.26,4.13.52v2.07ZM209.9,103.28v-2.59c.79.26,2.52.52,3.58.78v2.33c-.53,0-2.79-.26-3.58-.52M212.69,100.04v-2.07c.53,0,1.58.37,2.26.37v2.35l-2.26-.65M213.48,96.93l-3.06-.91v-2.45c1.07.38,2,.63,3.06.89v2.48ZM208.96,100.68v2.59l-4.4-.92c0-.89.27-1.67.27-2.32l4.13.65ZM206.16,104.18v2.2c-1.33-.25-2.13-.25-4.13-.52v-2.59c1.06.26,3.08.52,4.13.9M203.62,102.36c-1.99-.25-3.58-.25-5.05-.65.26-.76.26-1.67.26-2.31,1.21.37,3.2.37,4.79.37v2.59ZM200.83,94.45c-.79-.25-2.26-.25-2.79-.25,0-.63.41-1.94.41-2.85.79.25,1.59.25,2.38.52v2.59ZM200.83,95.63v2.33h-3.85c0-.28-.54-.53-1.21-.91l.14-1.69c1.61,0,3.33.26,4.92.26M196.98,94.2c-.26-.25-2.8-.63-5.59-.63.53-.53,1.73-1.96,2.26-2.6,1.06,0,2.53.13,3.6.39,0,.91,0,1.94-.27,2.85M192.17,95.37h-2.53v-.92h2.53v.92ZM194.18,100.28v1.82l-1.73-.13v-1.7c.26,2.07,1.46,2.07,1.73,0M189.38,103.28c.79-.39,1.74,0,2.01,0v1.69c-.65.26-1.47.26-2.01,0,2.01,0,2.26-1.43,0-1.69M185.12,102.89h-2.77v-2.6h2.77v2.6ZM185.12,103.14v2.08h-2.77v-1.95l2.77-.13ZM185.12,108.72h-2.77v-2.59h2.77v2.59ZM184.59,108.98v1.42c0,1.17-1.73,1.55-1.73,0l-.25-1.42h1.98ZM186.58,113.65l1.6.9-1.34,2.59-1.32-.9,1.05-2.59M190.17,114.28l2,1.44c-.79.51-2,1.68-3.58,3.23l-.95-1.16,2.53-3.5ZM189.65,120.38c.26.78.26,1.43.52,2.34h-.79c0-1.16-.25-2.34-.53-3.24l.79.9ZM189.65,126.46v-2.57h.52v2.84l-.52-.27ZM190.17,127.88v3.24l-.52-.37v-2.86h.52ZM190.17,132.56v2.97l-.52-.39-.27-2.84.79.26ZM189.65,136.45l.82.25v2.33l-.82-.26v-2.32ZM189.65,119.22c.82-.65,1.47-.91,1.99-1.18l.81,1.43c-.28.26-1.07.65-1.99.9l-.82-1.16ZM193.78,119.73h1.21v2.98h-3.87l-.39-1.16c.39,0,3.05-.92,3.05-1.82M190.98,123.89c.66.25,1.73.25,2.27.25v2.59c-.54.26-1.34.26-2.27,0-.25-1.17.13-1.82,0-2.84M190.98,132.82c.66,0,1.47,0,2.8-.26v2.58c-1.07.39-2.14.39-2.8.39v-2.71ZM191.25,136.7c1.2,0,2.53,0,3.74-.25v2.32c-1.47.26-2.54.53-3.74.26v-2.33ZM194.71,135.14v-2.58c.81,0,1.86-.26,3.33-.26v2.71c-1.19,0-2.8.13-3.33.13M201.36,135.79v2.34s-3.58.64-4.79.64c-.25-1.16-.25-1.8-.25-2.58.93,0,4.52-.39,5.04-.39M199.37,134.63v-2.72c.93,0,3.47-.53,4.54-.53.26.92.26,1.83.26,2.61-1.33.39-4.12.64-4.8.64M206.98,135.02v2.2s-3.08.66-4.41.66c-.14-.91,0-1.43-.14-2.34.94,0,4-.52,4.56-.52M205.37,133.73v-2.61c.79,0,2.25-.37,3.6-.37,0,.91,0,1.81.26,2.71-1.33,0-3.32.28-3.85.28M207.89,134.63c.79,0,3.34-.64,3.86-.9v2.72s-2.53.52-3.86.52v-2.33ZM210.42,133.21v-2.74c.81,0,1.86-.26,3.33-.26v2.34c-1.2,0-2.81.66-3.33.66M212.82,133.46c.93,0,1.45-.24,1.99-.24l.28,2.06c-.28,0-.82.52-2.27.52v-2.34ZM212.82,129.45v-2.59c.66-.13,1.45-.13,2.39-.41l-.12,2.6c-.54.39-1.33.39-2.27.39M212.95,121.55c-.13-.92,0-1.69,0-2.61h2.26v2.34c-.94.27-1.46.27-2.26.27M212.69,107.03v-2.06c.53,0,1.58,0,2.52.38v1.95c-.94,0-1.99-.27-2.52-.27M214.02,103.79v-2.33l1.19.39v2.33l-1.19-.39ZM214.27,96.93v-2.48l.94.4v2.34q-.66-.26-.94-.26M210.15,88.37c.26-.79.26-1.69.26-2.08l3.61,1.29.13,1.96c-.67-.26-2.92-1.17-4-1.17M212.15,90.2l-.41,2.33c-1.33-.26-2.79-.65-3.6-.65,0-1.17,0-1.95.27-2.84l3.73,1.17M208.96,88.12c-.82-.26-3.86-.78-4.4-1.17l.27-2.08c1.06,0,3.59.91,4.54,1.3l-.41,1.95M207.36,88.76c-.26.78,0,1.94-.26,2.84-1.2,0-4.79-.91-6.27-.91v-3.12c2.01.27,5.47.79,6.53,1.18M203.37,86.94c-1.6-.65-3.32-.9-4.8-.9l.4-2.33c1.07,0,3.87.65,5.06.9-.42.91-.28,1.17-.67,2.33M199.76,87.2l-.25,2.99c-1.06-.27-2.53-.27-3.33-.66v-2.85c1.07.26,2.39.65,3.58.51M195.24,86.69l-.25,2.59c-1.08,0-3.61-.51-4.15.26-1.2,1.42-1.46,1.81-2.25,0v-3.49c.54-.27,3.86.25,6.65.64M191.39,85.26c-2.53-.39-5.59-.39-7.06-.39v-2.59c1.2,0,4.8.27,7.06.65v2.33ZM186.32,89.02c0-.91-1.47-.65-.79-1.55-.68-.27-.68-1.7-.68-1.7l2.53.27v2.98h-1.06ZM186.85,89.54v.91l-1.32-.25v-.66h1.32ZM181.54,89.02h-.81c0-.91,0-2.34-.27-2.98l2.4-.27-.12,1.7c.52.9-1.2.64-1.2,1.55M182.74,89.54v.66c-.68,0-1.46.77-1.73.25v-.91h1.73ZM183.26,84.87h-6.12v-2.32c1.87-.27,4.14-.27,6.12-.27v2.59ZM179.94,86.05c0,.9-.13,2.33,0,3.23-1.47,2.33-2-.25-2.8-.25-1.46,0-2.52.25-3.73.51v-3.24c.8-.25,5.6-.52,6.53-.25M170.9,85.13v-1.94c.79-.39,3.32-.64,5.04-.64.29.91,0,2.32.29,2.32-2.01,0-3.9.26-5.33.26M172.33,86.29v3.5c-1.19,0-3.17.41-4.76.66v-3.25c1.06-.26,3.33-.91,4.76-.91M169.55,85.52c-1.46-.14-4.52.52-5.06.52v-2.08c.54-.26,3.6-.78,5.06-.78v2.33ZM166.49,87.2l-.13,3.5c-.14,0-4.4.52-5.06.52v-2.84c1.47-.26,3.2-.9,5.19-1.17M158.49,87.47l.13-1.95s3.33-1.17,4.41-1.17c0,.51.25.77.25,1.94-.53,0-3.06.65-4.8,1.18M160.23,88.63v2.59c-.79.39-3.59.91-4.52,1.17v-2.85c1.73-.26,3.44-.91,4.52-.91M157.69,87.72c-1.32.39-2.79.65-3.59,1.3,0-.91,0-1.3-.26-2.08.81-.65,2.53-1.29,3.85-1.29v2.07ZM154.9,89.79v2.86c-.25,0-1.06.39-1.99.39v-2.59s.93-.25,1.99-.66M154.65,99.64h-1.74v-2.33h1.74v2.33ZM153.57,101.2l.27,1.94-1.19.26v-2.2h.92ZM154.65,104.06v2.32l-2.01.27v-2.59h2.01ZM154.65,134.89v1.43c-.67,0-1.47-.26-2.01-.53v-1.56c.8.27,1.33.65,2.01.65M156.76,141.63c.93,0,7.33,1.17,8.81,1.17v5.43c-.69,0-7.6-1.15-8.81-1.42v-5.18ZM157.44,140.71c.8-.38,1.86-1.14,2.51-1.68,2.41.27,4.67.54,7.2.79-.26.51-1.06,1.41-1.58,2.07-3.21-.26-5.62-.9-8.13-1.17M166.89,142.14c.53-.52,1.2-1.43,1.73-2.08,2.51.26,5.32.65,7.84.92-.24.64-.94,1.16-1.19,1.81-2.79-.27-5.58-.65-8.38-.65M175.27,143.96c-.26,1.18,0,2.59-.26,4.92-1.86,0-6.65-.25-8.38-.66l-.27-5.18c.54,0,7.32.65,8.92.92M176.46,143.7l.8-1.55v5.57l-1.04.92.24-4.94ZM175.14,119.22c.13-.65.8-1.43.8-1.82.53.39,1.33,1.55,2.27,1.82l-.65,1.16c-.29-.25-1.33-.9-2.42-1.16M178.75,147.97c1.85.25,6.92.25,9.98,0l1.18,1.17c-1.73.26-10.64.26-12.36,0l1.2-1.17ZM189.65,147.46l-.27-4.66,1.09.52v5.32l-.82-1.18ZM189.38,140.46c3.07,0,6.65-.25,9.19-.52l2.26,1.68c-.79.26-8.66.52-9.58.52l-1.87-1.69ZM199.76,139.57c1.87-.26,5.07-.54,6.66-.8.82.53,3.07,1.44,3.32,1.44-1.32.25-4.91.9-7.44,1.16l-2.55-1.8M210.69,141.63c.25,1.17.25,3.76.54,5.57-1.48.26-7.06,1.17-8.13.91l-.25-5.58c1.33-.39,6.65-.91,7.85-.91M207.89,138.13c1.08,0,2.8-.25,3.86-.52.53.27,3.06,1.16,4.53,1.42l-4.53,1.18-3.86-2.08ZM217.61,139.94c0,1.68,0,3.49.27,5.2l-5.6,1.66c0-2.33,0-3.38-.25-5.44.79,0,4.25-.91,5.58-1.43M216.28,135.28v-.9c.8.26,1.73.64,2.01,1.16l-2.01-.25ZM216.03,86.69c-8.67-3.5-16.52-4.93-30.24-5.57-2.78-.25-12.12-.52-21.02,1.16-6.53,1.43-10.67,2.85-12.92,4.02-.82-.25-1.74-.64-1.74-.91,17.46-6.6,25.82-5.95,34.48-5.95,1.73,0,8.52.26,15.71,1.68,7.85,1.16,14.12,3.24,17.05,4.66l-1.32.91ZM185.79,78.26c-2.78,0-12.12-.39-21.02,1.43-6.53,1.42-13.19,3.75-15.45,4.8l-1.32-1.24.39-.08c1.12-.51,2.25-.97,3.4-1.42,15.31-5.03,24.8-5.04,32.93-5.04,1.59,0,8.38.39,15.57,1.56,7.85,1.43,16.51,4.28,19.44,5.58-.28.51-.8.77-1.73,1.15-8.64-3.62-18.51-5.95-32.22-6.73M220.28,82.92c-10.9-4.66-23.03-6.99-34.75-7.37-12.91-.26-25.82,1.42-37.56,6.73v-5.3c.81-.52,1.88-.78,3.34-1.17v2.07c1.33-.52,3.59-1.17,4.79-1.43v-1.68l4.12-1.17v1.69c2.25-.91,4.55-1.43,6.8-1.69v-1.81l1.33-.23,3.96-.67.23,1.57.07.49c1.87-.19,3.91-.24,5.98-.25.71,0,1.41,0,2.13,0v-2.08h7.06v2.08h0c.47,0,1.86.12,3.42.26,2.06.18,4.4.39,5.23.39l.16-1.21.12-.86,1.36.26,3.42.65v1.94c.82,0,4.4.91,5.6,1.56v-2.07l5.06,1.43-.28,1.81c1.34.26,3.87,1.18,5.32,1.69v-2.08l3.08,1.3v5.17ZM168.76,5.18l1.45-.79s4.92,5.19,6.13,6.1l1.33-1.16c-.27-.9-4.12-4.66-4.65-5.32l1.6-.25,3.98,5.18c.27-.26,1.34-.79,2.25-.79-.39-.9-1.72-3.76-1.99-4.14l1.07-.52,1.46,4.4c.53,0,1.07-.26,1.86-.26l-.52-4.4h1.46v4.4h2.25V3.5h1.34l-.8,4.15c.8.26,1.73.26,2.52.79l1.07-4.67,1.47.63c-.26.27-1.73,3.5-2,4.29l2.27,1.17,2.53-5.46,1.47.92-3.74,4.79c.8.66,1.47,1.31,1.73,1.55.81-.89,5.32-7.26,5.32-7.26l1.61,1.68-6.39,6.09.8,1.56,8.92-6.99,1.46,1.17-10.11,6.34c.66,1.18,1.73,4.68,1.73,6.49,0,3.28-1.02,5.94-2.5,8.05-.46.74-1.01,1.43-1.62,2.05l-.09-.02-1.08-.38-.19-.1.08-.44-.07-.27-.07.03h-.04s-.07.27-.07.27l-.1.26-.7.6.04-.05-.36.14-.06.04-.62-.17-.25-.16-.21-.16-.16-.16-.31-.15-.18-.56-.03-.08v-.58s.44-.31.44-.31l.29.11.09.02h.49s.17-.09.17-.09l.2-.26.03-.22-.14-.19-.56-.03-.27.08h0s-.27.37-.27.37l-.46.05.49-.54-.37-.22.25-.31.39-.12.03-.07h.11l.7-.05h.08s.29-.05.29-.05l.27-.24.61.18.19.2.09.6-.48.22-.44.4.21.3.35.1.27.04.03.42v.07s0-.02,0-.02l.15-.09.63-.56.05-.45.06-.12v-.61l.02-.22v-.38s-.16-.26-.16-.26l-.46-.22.05-.22h.02s.05-.14.05-.14l.27-.09.16-.15v-.17s-.21.16-.21.16l-.14.03.04-.17.17-.28.08-.28-.05-.06-.36-.36-.23-.23h.25s.05-.03.05-.03l-.03-.05-.24-.06h-.02s-.28.02-.28.02l-.73-.6h-.25s-.25-.22-.25-.22l-.02-.21-.05-.24-.38-.19-.07.02-.33.04-.07.24-.05.47-.3.17-.47.18-.06.04c-.33-.71-.68-1.51-1-2.3l-.14-.39-.05-.07-.47-1.2-.46-.76v-.05s.13-.43.13-.43l2.77.99-.12.28.32-.08.25.21.02-.32.28-.17-.31-.12-.08-.32-.21.25h-.17s-2.53-1.21-2.53-1.21l.19-.4.02-.04v-.04s.1-.2.1-.2l2.88-.1-.06.14.36-.09.28.24.02-.36.32-.19-.35-.13-.09-.35-.23.28-.37-.03.17.26-2.79-.17-.16-.6-.67-.61-.68-.19-.32-.2-.16-.05-.12.04-.52-.09h0s-.02,0-.02,0h-.09s-.22-.04-.22-.04h-.01s-.18-.15-.18-.15l.03-.15-.06-.16-.06-.22h0l.11-.05-.07-.28-.21-.05h-.01s.02-.01.02-.01l.08-.09-.06-.08-.28-.11.71-.23.16-.19-.13-.19-.51-.19.35-.59-.69-.69-.12-1.76.35.18-.08-.48.36-.34-.5-.07-.22-.44-.22.44-.5.07.36.34-.08.48.31-.16-.06,1.87-.32.56.35.59-.51.19-.13.19.17.19.7.23-.28.11-.06.08.08.09.07.02h-.07s-.18.13-.18.13l.1.3-.05.19-.1.36-.08.07-.59.18-.54.24-.13-.04h-.24s-.25.15-.25.15l-.45.26-.41,1.15.48.96.27.4.04.07-.52,1.57.05.32c-.16.67-.33,1.48-.36,2.01-.06,1.13-.59,2.19-.85,3.29l-.25.66-.57.82-.05.06-.4.33-.1.09-.34.4-.27,1.27-.29.89v-1.34s.02-.2.02-.2l.02-.82-.32-.51-.1-.59-.24-.52-.76-.69-.3.88-.5.97-.29,1.24.07,1.08v.35c-1.13-1.28-1.97-2.78-2.45-4.44-.94-2.54-1.06-5.3-.76-7.66.25-1.41,1.73-4.66,2.25-4.92l-8.38-6.34,1.47-.65,6.92,6.47c.55-.65,1.07-1.54,1.73-1.82l-7.04-5.82ZM213.89,27.09l-15.19-3.24.27-.52,15.44,1.94c0,.4-.52,1.18-.52,1.83M214.42,29.68c0,.24-.26.9-.26,1.68-4.78-1.44-12.12-4.66-15.44-5.44h.53c.94.25,14.38,3.77,15.18,3.77M199.24,21.51v-.52c4.25,0,9.59-.25,14.11-.25l.27,1.93c-1.06-.24-13.45-1.16-14.38-1.16M198.97,19.83l-.27-.66,13.45-3.49.54,2.33s-10.92,1.17-13.72,1.82M198.71,17.74h-.25l12.37-5.17.52,1.42-12.64,3.75ZM197.48,15.88l-.25-.27,11.23-7.06,1.1,1.58-12.08,5.76ZM215.48,60.77v1.56h-1.06v-1.81l1.06.25ZM214.7,58.83v-1.55h.78v1.81c-.52-.26,0,0-.78-.26M204.56,71v-1.81h2l.26,1.81h-2.26ZM205.63,71.91v1.17l-1.07-.13v-1.04h1.07ZM206.56,55.84l-1.46.53-.27-1.3,1.73-.25v1.02M206.3,57.01v1.41l-1.47.4v-1.81h1.47ZM205.37,60.26v1.69h-.8v-1.43l.8-.26ZM212.15,60.52h2v1.81c-.4,0-.8,0-2-.38v-1.43ZM210.94,55.84v-1.02c.93,0,1.47,0,2.4.25q0,.53-.4,1.43l-2-.66ZM212.69,63.75v1.69c-.54,0-1.34-.26-2.27-.26v-1.81l2.27.39ZM213.48,66.61v1.8c-.26,0-1.06,0-2.13-.25v-1.81l2.13.26ZM210.69,66.35v1.68c-.54,0-1.07.13-1.86.13v-2.07l1.86.26ZM209.9,72.18l2.26.26-.28,1.16-1.98-.26v-1.16ZM207.62,69.19h2.27v1.81h-2.27v-1.81ZM209.37,65.18c-.54,0-1.48,0-2.55-.26v-1.81h2.55v2.08ZM207.89,66.09v2.07c-.27-.39-1.06-.39-1.99-.39v-1.69h1.99ZM206.3,64.92l-1.47.26v-2.08h1.47v1.81ZM205.37,66.09v2.07c-.26-.39,0,0-.8-.39v-1.82l.8.13ZM207.38,72.66h-.55s0-.75,0-.75h1.73l.28,1.17-1.46-.41ZM210.94,69.19h2.27v1.81h-2.27v-1.81ZM213.22,72.44l1.99.26-.26,1.16h-1.73v-1.41ZM213.75,71v-1.43h1.46v1.69l-1.46-.27ZM214.42,68.41v-1.8l.79.12v1.69h-.79ZM213.48,65.44v-1.95l1.73.26v1.69h-1.73ZM214.15,59.09c-.67-.26-1.2-.26-1.73-.53v-1.55c.53,0,1.33.27,2,.27l-.26,1.81M212.95,53.51c-.53,0-1.33-.25-2.12-.25l-.13-.79c.93,0,2.26.26,2.66.26l-.4.77ZM211.62,56.75v1.68c-.68.14-1.47,0-2,0v-1.68h2ZM207.62,55.84v-1.15c.53-.27,1.48-.27,2.28.13v1.02h-2.28ZM209.9,53.26h-2.54l-.26-.92c.79.13,1.74.13,2.8.13v.79ZM208.56,56.75l.28,1.68c-.94-.25-1.21,0-2.01-.25v-1.43h1.73ZM208.15,60.26v1.69h-2.25v-1.69c.93-.26,1.2,0,2.25,0M204.56,54.17l-.26-.91,1.73-.52.54.77-2,.66M203.95,73.59l-.54-.13-.92-.19v-1.09l-.03-.14.1-.77-3.63-.64h0s.6-1.75.6-1.75l.05-.31v-.07c-.02-.84-.37-1.58-.98-2.11l-1.61-.68c-.38-.71-1.06-1-1.69-1.15.95-.51,1.88-1.07,2.79-1.65,1.91-1.23,3.64-2.62,5.3-4.15l.64-.97c0,1.8-.08,14.55-.08,15.82M186.08,69.65l-.16-.1-.49-.18v-.04s.18.03.18.03l-.13-.23v.12s-.12-.04-.12-.04v.13s-.04.1-.04.1l-.05-.08-.15-.2-.05.03.14.28-.28-.11.09.16-.61-.11-.21-.08-.04-.08-.06-.06-.04.09-.02.1-.11.04-.39.06-1.01.17-.23.04-.17.02h-.16s-.03.01-.03.01h-.09s-.06-.05-.06-.05l-.02-.02h0s0,.05,0,.05l-.09-.03-.1.04-.03-.05h0s-.02,0-.02,0h0v.07h-.03s0,0,0,0h0s-.05-.06-.05-.06l-.04-.03-.11-.03-.4-.11-.23-.03-.24-.04.02-.13-.02-.22.31-.41.13-.05.19-.09.12-.07.34-.2.17-.07.64-.18.21.08-.34.29-.07.06h-.1s-.7.13-.7.13l-.09.11h.13s.62-.1.62-.1l.09.1.21.24.49.07.22-.09.26-.17.04-.02.1-.04-.02-.04.18.08.15.06.65.12.14-.06.13-.19-.31.06-.1-.03-.07-.05-.06-.16v-.02s.02-.04.02-.04h.17s.02.02.02.02h.02s.05,0,.05,0h.1s.1-.07.1-.07l.13-.21.03-.25-.14-.03.13-.31-.03-.02-.69.47-.09.16-.53-.1-.03-.08-.02-.04.43-.56.54-.25-.06-.28-.81-.12-.37-.44.41-.48.22-.26.05-.05.03-.03h0s-.11-.04-.11-.04l-.51-.18-.24-.34.04-.08-.07-.13-.08.08-.04.13-.07.38.16.4-.46-.45-.1-.14h-.02s-.11.12-.11.12l-.02-.13-.06-.26h.01s.08-.08.08-.08l.1-.09.02-.02.11-.12.05-.11.16-.02.06-.05.03-.08-.08-.02h0s-.01-.07-.01-.07l.16-.31.48-.32.35-.04h.41s.13-.01.13-.01l.83.44-.03.07-.18.42.43-.2.16-.04.04.03.06.05.23.21-.08.15v.14s.19.07.19.07l.1-.08h0s.31.56.31.56h0s-.14-.12-.14-.12h-.03s-.15.13-.15.13l-.41-.2.11.26.02.13.02.13v.61s-.3.35-.3.35l-.34.1-.25.25.44.22.3.14h0s0-.07,0-.07v-.13l.02-.06.03-.1.03-.04.06-.1.02-.02.63-.47h0s0,0,0,0h0s0,0,0,0l-.13-.23-.15-.21-.03-.05.09-.11.19-.09.03-.14-.06-.17-.26-.68.02-.11-.19-.1h-.02s-.45-.51-.45-.51l-.6-.42-.76-.21.02.08h-.62s-1.02.33-1.02.33l-.13.33-.23.28-.25.27-.13.21-.15,1.15v.3s-.02.09-.02.09l.15.19.26.79.09-.04.02.08.09-.03.09.17h.01s.15.15.15.15l.08.1-.64-.39-.41-.17-.11-.12-.51-.16h-.33s-.56,0-.56,0h-.06s-.56-.08-.56-.08l-.42-.16-.06-.03-.3-.15-.06-.04-.34-.22-.15-.13.04.46.24.36-.03.03-.31-.18.02.22.1.22.29.31-.16.07.06.16.28.3-.02.17h0s-1.36.04-1.36.04l-1.7,1.25.85-.21.07.64-1.41.61-.45.08-1.11.04-.13-.3-.23-.24-.13-.06-.16-.13-.39-.09-.75.1-1.28.23c-.79.14-1.92.41-2.1-.19-.29-.98-.05-2.19.36-3.11.36-.79,1.28-1.25,2.11-1.45.8-.19,1.95-.14,2.68.38l.34.31.53-.1.25-.22,1.01-.08.06-.1-1.2-.34-.59.08-1.34-.59.06-1.01.04-.04c.52-.57,1.21-.87,1.95-1.07,1.07-.29,2.49-.07,3.05,1.11l.08.02.61-.33.78.13c-.09-.35-.86-.47-1.5-.21l-.11-.25.08-.46.21-.61,1.03-1.17.51-.23,1.25-.19.92.09.22.05.43.12.17.05.36.14h.03s.25.16.25.16l.45.3-.04.09h-.2s-.24.07-.24.07l-.25.16-.41.29-.25.23-.07.06-.34.46-.35.83-.21.19-.38.03-.84.43.57.21,1.5-.41.86-1.29.32-.16,1.19-.18-.35-.12c.3-.73,1.01-1.44,1.88-1.85l.5-.2.7-.15.24-.03c.77-.03,1.48.18,2.1.63.94.69,1.41,1.62,1.4,2.78l.73-.33.63-.03.86.25.63.38.4.44v.02s.05.22.05.22l.04.63v.3s-.12-.25-.12-.25l-.02.31-.25.38-.16.14-.37.12-.66-.06.28.21h.02s-.04.01-.04.01l-.34-.05-.47-.51-.22-.74-.14.22-.08.78-.53.73-.73.4-.15-.12.28-.48-.18-.18h0s-.06.04-.06.04l-.04.02-.07.04h0s0,0,0,0l-.27.17h-.02s-.28.14-.28.14h-.01s-.28.12-.28.12l-1.09.12-.72-.05-.25.04-.22.1-.33.36-.1.19-.15.27-.31.13h-.17l-.03-.36-.11.06v.04s0,.01,0,.01l-.05.34-.02.07v.05s-.07.13-.07.13l.22-.14.35-.04.86.51.21.13.46.36.06.04v.02s-.05.21-.05.21l.04.06.04.03-.05.05h0l-.12-.03h-.04s-.78.22-.78.22v.03s0,.04,0,.04h-.03s0,0,0,0v-.08h-.24s-.04.04-.04.04l-.02.03h-.09s-.02-.01-.02-.01v-.02ZM180.73,69.65l-.74.33-1.32-.38.46-.8.11.05.39.05-.02.1v.02l.02.07.17.04.54-.04v.24s.04.09.04.09l.04.04.58.19h-.27ZM182.61,64.26v.03s-.03,0-.03,0l.03-.02M181.6,66.51l.03-.06.06.03-.09.03M182.84,68.63v-.12s-.05-.01-.05-.01l-.04.12-.08.23-.04-.25.03-.15h-.04s-.06.12-.06.12l-.1.22h-.05s0-.17,0-.17l.03-.09.03-.08-.05-.02-.04.08-.07.14-.05.07-.04-.08.07-.16.19-.18.54-.1.18.28.17.11-.33.08-.2.17-.03-.03v-.18M179.1,66.92h.02s.62.1.62.1h.97s.43.18.43.18h0s.56.77.56.77l-.17.09-.22.12-.34.18-.12.06-.08.05-.42.28-.02.11v.08s-.07.03-.07.03h-.11s-.28.01-.28.01v-.03s.23-.19.23-.19l-.02-.05-.82-.03-.2-.06v-.04l.34-.07.17-.04-.13-.09-.33-.04-.45-.16.51-.11-.35-.07-.16-.04-.43-.3.71-.04-.53-.18-.39-.38.75.15-.3-.24-.33-.29-.23-.35s.52.42,1.17.59M183.48,67.01l.38-.2.27.21-.39.15-.26-.15M185.39,66.84l-.23.15-.19-.06.22-.19.2.1M164.81,72.95h-.03v-14.52c1.26,1.32,2.78,2.4,4.3,3.4.81.53,1.66,1,2.51,1.46l-.56,1.08-.05.12v.02c-.91.18-1.8.54-2.43,1.21l-.7.88-.44,1.13c-.3.77-.58,1.6-.44,2.43l.19.54-1.32.19v1.89l-1.02.17M154.64,75.81l-.96.27-1.03.31v-1.1c.67-.26,1.73-.52,2.01-.52v1.04h0M174.99,32.87v2.35l-.19.17-.08.07-.58,1.13-.04.1-.23.55h0c-2.55,4.11-5.6,8.89-7.38,11.61l-2.8-1.17,11.3-14.81ZM159.71,47.04h-3.07c1.46-1.95,12.64-11.92,16.38-15.68l-.39.91c-3.6,3.75-9.21,10.48-12.92,14.77M191.3,24.44l-.15-.14-.08-.22.3.14.28.44-.12.16-.05-.13-.19-.24M192.31,24.91l.07.3-.25.36h-.32s.19-.34.19-.34l.31-.31M192.94,27.53l.08.37-.05.25-.04-.3v-.17h-.06s-.19-.04-.19-.04v-.38s.23.01.23.01l.02-.05-.12-.2-.22.05.12-.18-.09-.13h-.04s-.11-.21-.11-.21l.18.13.25.2.13.3-.09.35M192.43,28.42h-.03s0,0,0,0h-.02s-.13,0-.13,0l.02-.12.2-.05.07.11-.1.07h0ZM191.72,25.57l.17-.31.07.1-.24.21M192.11,26.08l-.08.16-.14-.05-.04.02.03.18.26-.03.08.15-.02.02-.37.04-.07-.03-.02-.03-.07-.21v.02s-.16.06-.16.06l-.64-.07-.19-.1.03-.1.08.02.32.11.13-.06-.05-.15-.37-.05.6-.07.27.25.02-.05.12-.09.29.06M189.28,30.41l-.08.16-.36-.23-.03-.02-.08.03-.04.26v.06s-.36.67-.36.67l-.03.04-.14-.12.18-.26.18-.49-.03-.78.04-.1.13.04.02.06.07.08.23.26-.03.13.33.21M193.64,31.35l.37.83.02.08.24.74.13.37.05.13.09.21.2.59.19.45.13.28.3.57.23.37c-.55.37-1.26.82-2.03,1.19v-.05s.15-1.08.15-1.08l.09-.75-.05-.84v-.15s-.13-.94-.13-.94l-.07-.32-.32.22h-.02s-.71.4-.71.4l-.12.04.05-.13.71-.49h.01s.37-.15.37-.15v-.15s.1-.24.1-.24l-.15.02.02-.2.1-.19-.15.02.05-.14-.08-.19v.13h-.04l-.06-.15.07-.1-.03-.11-.08-.22v-.04s-.08-.16-.08-.16h0s-.09-.16-.09-.16l.15.1.39.23M175.56,29.87v-.32l-.06.2.06.12M176.18,26.8l.12-.29-.02.23h.02s.07-.31.07-.31l-.02.93.07-.2h.02v.14h.02s.02-.1.02-.1h.03l.04.47.02-.03-.17.5-.08-.2h-.02s.05.24.05.24l-.11-.05-.13-.75.06-.1v-.17s.02-.32.02-.32M176.12,28.5l.12.19.26.1.18-.25-.08-.04-.04.04h-.01s.05-.09.05-.09h0s-.07.04-.07.04h0s.05-.09.05-.09h-.01s-.3.23-.3.23l-.07-.21.36-.07.16-.15.09-.02.04.08v.16l-.02.14h.06l-.06.11h.06l-.1.12.03.04h-.02s-.05.18-.05.18l-.03.19-.08.06-.03-.08.03-.11.02-.1h-.26s-.12.53-.12.53l-.02-.15.03-.43-.07-.13-.03.03-.06.1-.11-.08-.04-.27-.14-.14-.23-.13-.02.38h-.04l-.02-.18.03-.19.1-.13.13.06.17.11.19.14M178.23,44.42v.08s-.08.12-.08.12l-.21-.14-.03-.06-.04-.1-.26-1.03-.12-.77-.06-.26v-.72l.05.11.25.63.46,1.92.02.23M179.82,56.06l.1.08,1.01.62.45.2.66.22.12.03.28.07,1.32.14c.67,0,1.31-.1,1.91-.3l.4-.14.63-.28,1.12-.76c.62-.51,1.12-1.14,1.51-1.85l.44-1,.17-.63.15-.99.21,1.66v.12s0,0,0,0l-.3,1.84-.13.35-.11.28-.05.1-.1.21-.8,1.24c-.56.69-1.26,1.26-2.07,1.67l-.33.16-.37.15-.45.15-.53.14-1.33.14-1.3-.13-.33-.08-.14-.04-.54-.18c-2.11-.8-3.7-2.65-4.12-4.92l-.12-1.2.1-1.06h0s.12-.6.12-.6l.09.73.05.25.02.08v.06s.12.37.12.37l.15.44.09.22c.37.85.92,1.6,1.61,2.2l.26.22M181.8,51.18l.39-.26v.08s0,.82,0,.82l.06-.03.21-.11.27-.52v.52l.52.14-.25.26v.51l-.27-.26-.44.21-.1.05.1-.19.17-.32-.2-.19-.07-.06c0,.35-.01,2.43-.03,4.6l-.11-.04c.02-2.43-.05-4.77-.24-5.22M179.08,27.47l.36-.21.02.05-.3.17-.19.11.05-.09.05-.04M181,22.13l-.03.19v-.19s.03,0,.03,0M190.08,25.85l.04.09-.03.06-.08.1-.19.02-.19-.07v-.14s.43-.07.43-.07l.02.02M190.66,26.5l.44.09.12.14-.2.15-.25-.03-.25.08-.23-.12v-.1s.21,0,.21,0h.18s.01-.01.01-.01l-.04-.21M189.87,26.59l-.1.1-.1-.14.19.04M189.72,26.74l-.17.15-.09.07-.21.11.07-.16-.04-.05-.09.02h-.01s-.18-.05-.18-.05l-.08.07-.04.05-.06-.05h-.03l-.09-.1-.09-.11.25-.12.21.13.23-.15.21-.09.1.12h.02s.13.15.13.15M192.26,30.67v.13-.13M192.49,30.77l.12.04v.13l-.19-.06.07-.11M192.81,30.86h.01s.04.03.04.03l-.05.1-.07-.06.07-.07M192.58,35.39l.21.09-.1.13-.04.02-.13-.05v.06s.15.12.15.12l.19.02-.03.19.16.03.09.12-.27.05-.86-.5-.25-.05h-.02s-.1-.04-.1-.04l.08-.1.43-.07.12-.03h.05s.03.02.03.02h.28M193.2,36.23l-.25.2.25-.2M192.17,36.32l-.57-.12.06-.24.32-.05.36.27.29.47-.47-.35M190.51,39.14h-.15l.05.13.1.16-.25-.2-.63-1.36.23.26.02.05.19.44.37.44.06.07M188.9,39.16l-.04-.02-.05-.02-.65-.35-.65-.52-.2-.25h.03s.26-.04.26-.04l.14.03.16.02.18.13.36.38.02.02.22.19.18.29.02.04.02.1M187.26,44.18l.26.23v.42h-.08l-.17-.65M188.59,46.25v.51l.27-.25.53.39-.12-.65.25-.24.11,1.03-.1,1.53-.02.36-.04.56h-.08l-.12-.65v.65h-.67l.27.26v.26l.4-.26.18.09-.1,1.58c-.04.64-.19,1.26-.44,1.83h-.04l.04.02-.6,1.06-.24-.57v.64h-.37c-.08-1.08-.09-1.98-.08-2.76l.19.17v.26h.53v-.26l.27-.25h-.27l-.27-.66v.66h-.45c.03-1.42.15-2.47.18-3.52h0v.28h.8l-.27-.27.27-.38h-.27l-.27-.51v.51h-.26c0-.78-.07-1.58-.29-2.56l.02-.03.53.39-.26-.39.26-.26h-.26l-.15-.36,1.61-.55c.09.75.17,1.44.25,2.08h-.25l-.4-.39v.39h-.54l.27.25ZM189.54,58.12l-.16-.21.67-.25h-.54l.74-1.13.34,1.13-1.04.46M189.44,49.8l-.06-.04.06-.02v.06ZM187.69,54.5l.34.17-.3.32-.04-.49M182.58,56.54l-.15-.07-.23-.11h.54l.27-.51v.51h.53l-.28.25v.03l-.68-.11M182.51,34.44c-.14-.74-.18-1.49-.08-2.3l.05.53.17,1.79.15.59h-.06s-.05.06-.05.06l-.16-.67M182.13,35.8l-.6-1.24-.19-.36-.15-.79v-.17s.03-.64.03-.64l-.02.59v.03s.23,1.01.23,1.01l.13.23.64,1.32-.02.26-.14.03.06-.03.03-.24M188.44,28.88l-.03.02-.02-.11.07.08h-.02M189.07,31.61h0l.11.6.02.13-.17.93-.06.22-.07-.66-.12-1.11.27-.11M188.99,34.04l.12.59.29.33.24.09-.02.02-.15.08-.17.15h-.02s-.3.03-.3.03l.02-1.29M188.69,36.32l.32-.05h.04s.21-.04.21-.04l.11.11.15-.1.11-.08.07.12v.09s-.02.21-.02.21v.09s-.05.37-.05.37l-.06.15h0s-.06.04-.06.04h0l-.03-.05-.07-.07-.06.11-.05.39-.02.08-.05.15h-.06s-.07-.02-.07-.02l-.04-.03-.16-.08-.16-.09-.11-.17v-.17s-.02-.16-.02-.16l-.17.09v-.2s.02-.47.02-.47l.23-.2M190.51,37.8l.17.24-.17-.24M189.57,37.73l.03-.15.03.03.05.08-.04.17-.06-.13M189.24,38.56l-.09.09-.29-.26-.28-.32.11-.06.16.19.38.37M187.03,37.58h.13s-.08.06-.08.06l-.05-.06M181.7,33.06l-.29-1.16.04-.7v-.08s.05-.54.05-.54l.14-.12.19-.11v.07s-.07.4-.07.4l-.07.1-.06.27-.08.06h0s.16.06.16.06l.07-.4-.03.41c-.03.81.02,1.62.19,2.44l-.1.44-.11-1.01-.02-.13M188.02,36.19l.26.22v.03s-.02.47-.02.47l-.09-.18-.09-.26-.13.03-.09.08h-.05s-.12-.14-.12-.14v-.25s-.15,0-.15,0l-.25.09-.06.1-.12-.04v.07l.23.09-.03.14h.17l-.22.05h-.09s.03.13.03.13h-.51s-.07-.03-.07-.03l-.07-.09-.05-.21-.34-.14-.16-.02h-.06s-.22-.07-.22-.07l-.33-.12v-.12s.37.02.37.02l.17.04h.06s.22.04.22.04l.11.02.08.02.07.03.07-.03h0s-.11-.14-.11-.14l-.1-.02-.07-.02-.33-.08-.46-.05h-.14s-.07-.02-.07-.02l-.1-.03-.02-.03.02-.09h.06s.03-.02.03-.02l.26-.02h.17s.11,0,.11,0l.12-.03h.08s.07,0,.07,0l.22.07h.04s.14.05.14.05h.17s.03-.09.03-.09l-.05-.04-.18-.05h-.03s-.03-.01-.03-.01l-.24-.1h-.02s-.11-.04-.11-.04h-.08s-.08,0-.08,0h-.14s-.02,0-.02,0l-.18-.02-.02-.12.17-.06.14-.02h.25s.08,0,.08,0h.13s.22.04.22.04l.1.03h0l.15.05.15.07.05.03.16.13h.1s0-.02,0-.02l.03-.1h0s-.21-.14-.21-.14l-.03-.02-.02-.02-.12-.14.08-.24.14.09h0s.07.07.07.07l.13.17.1.12.24.31.21.26.02.03.05.07.15.19M181.72,29.75l-.11-.02.03-.18.14.03.09.07.05.04-.03.18-.15-.1-.02-.02M180.62,26.6l.27-.18.08.06.09.07-.32.16-.11-.1M187.41,24.58l.03.09.15.47-.07.05-.1-.08-.22-.51.15-.24h.01s.05.22.05.22M182.03,29.92l.03-.18h0l-.03.18h0ZM181.92,29.05h-.06s-.12-.01-.12-.01l.04-.16h.31s-.05.22-.05.22l-.11-.05ZM181.15,26.19l.33-.23v.02s0,.1,0,.1l-.29.4-.14-.19.1-.1M182.43,22.04h.16s.16.17.16.17v.06l-.05.15h-.49v-.03s-.05-.07-.05-.07l.27-.29M182.62,22.66l.12.05v1.22s.62.23.62.23l.55-.14-.08-.1-.53-.1-.22-.2.04-1.27v-.24s-.04-.13-.04-.13l-.13-.15-.11-.06-.08-.03-.24-.08-.18-.04-.05-.03-.14-.27.11-.6.17-.12.17-.3.39-.3.46-.13,1,.54,1.03.6.13.22.16.36.32.79.07.43v.06s.03.3.03.3v.19s.02.21.02.21l.3.26h.08l.13-.03h0,0s-.12.14-.12.14l-.06.05-.25.11-.17.14-.26.63-.05.12-.05.05-.13.41-.02.45-.18.38-.1.62-.1.14.02.19.05.06.14-.1v-.04s.28-.32.28-.32l.19-.05.21.02.04.03.09.03.15.04-.71.47-.67.14h0s-.06-.05-.06-.05h-.06s-.16.08-.16.08h-.76s-.04,0-.04,0l-.32-.04h-.04s-.36-.12-.36-.12l-.08-.13h0l.08-.09.08.03h.1s.02-.03.02-.03l.66.05.04.04v-.11s.1-.09.1-.09h-.04s-.14-.03-.14-.03l-.87-.22.08-.06.25-.16.07-.04.17-.1h0s.11-.1.11-.1l.3-.15.04-.04.1-.02.7-.3.02-.16-.13-.08-.51.27-.73.05-.31-.1-.45-.27h-.02s-.13-.16-.13-.16l-.66-1.43-.08-.92v-.05s.16-.27.16-.27l.47-.02M187.34,31.65l-.03-.18.21-.08h.06s.04.14.04.14v.03s-.02,0-.02,0l-.25.1M185.47,35.18l-.19.06.17-.06h.04s-.01,0-.01,0M182.17,29.15l.05-.25h.02s.02,0,.02,0l-.07.26h-.03M181.98,28.11l.05-.17.14-.45.16-.37.1.06.16.09.08.05.12.09v.02s-.09.11-.09.11l-.08.18-.3.89-.03-.06.37-1.2-.08-.06-.37,1.09-.15-.18-.07-.08-.02-.03M182.18,25.29v-.03s.12-.07.12-.07l.07.1v.03s-.11.07-.11.07l-.07-.1M183.1,27.05v-.2.2M182.7,29.28l.04-.18h0s-.04.19-.04.19h-.01M184.95,29.11v-.02.02h0ZM183.59,28.88l.07.04v.16s-.1,0-.1,0l.02-.2M184.29,29.43l.09.09v.25s-.1-.08-.1-.08v-.26M183.71,28.34l-.02.08-.06.17.1-.51-.02.26M182.9,28.45v.05s-.1.38-.1.38h0s.11-.43.11-.43M183.51,29.58l.08.09-.03.36h-.08s.03-.45.03-.45M184.26,30.07l.11.07v.28s-.03,0-.03,0l-.09.08.11.08v.19h-.02l-.12-.02.03-.68M184.95,29.81l.08-.05.02.33h-.09s0-.28,0-.28M185.51,29.12l.02.2.05.37-.09.06-.05-.59.06-.05M185.64,31.08l-.05-.46.05.04.09.02.03.31-.12.09M186.95,29.44l.09.25-.05.03-.11.15-.07-.22.14-.21M185.96,28.7h-.05s-.01-.02-.01-.02l-.05-.26v-.06s.11.34.11.34M186.21,30.59v-.03s.03,0,.03,0l-.03.04M185.78,31.2v.07s-.02-.06-.02-.06h.02M185.81,31.47v.05s0,0,0,0v-.05M186.14,30.06l-.02-.16.12-.08.04.21-.13.04M186.65,28.65l.15.37-.13.02h-.04s-.07-.21-.07-.21l-.23-.78.11.03.21.57M181.9,25.82l.14-.25.07-.04.09.12-.14.25-.13.03-.03-.11M182.66,29.48h.03s-.05.32-.05.32l-.05.02.07-.34M183.48,30.18l.07-.03-.03.33h0s0,0,0,0v.16s-.1.06-.1.06l.1-.21-.03-.3M184.23,30.87l.07.06.07.02v.46s-.12-.03-.12-.03l-.04-.03.02-.49M184.96,30.56h0s.1.06.1.06v.42s-.12.01-.12.01v-.49M185.72,32.23l.15-.03.03,1.53v.2s-.02.32-.02.32h-.18c.08-.67.07-1.35.03-2.03M186.36,32.08h.01s.02-.07.02-.07l.16-.21.03.24h-.01s.01.01.01.01l.07.79.08,1.12-.3.1c.05-.66-.02-1.32-.08-1.98M187.24,28.48l-.07-.17-.22-.46.03-.11-.16-.47-.04-.14h-.11s-.14-.02-.14-.02l-.03-.05-.07-.16.25.05.22.02.33.08.2.33-.19.67.02.44M186.88,26.42h0s-.03,0-.03,0l-.12-.15.05-.06.1.22M186.99,25.46l-.13-.08-.11-.28v-.13s.12,0,.12,0l.19.36-.03.17v.04l-.04-.07M186.91,23.45l-.05-.02-.07.03-.11-.1v-.16s.05-.05.05-.05h.11s.06.29.06.29M183.22,27l.08-.07.08.07-.08.08-.08-.08M181.89,26.71h0s0,0,0,0h0ZM182.5,30.41v-.04l.1-.08h0s-.02.13-.02.13h-.08M183.38,30.85l.11-.04v.17s-.12,0-.12,0v-.13M183.81,34.57c.24-.9.29-1.83.37-2.77v-.08s.16.03.16.03c-.03.69-.08,1.38-.19,2.06l-.18.76-.17.53h-.16s.16-.53.16-.53M184.58,34.63v-.03c.28-.92.31-1.86.35-2.8l.1.03.06.04v1.19s-.24,1.39-.24,1.39l-.03.02-.18.13-.08.09.03-.06M184.66,34.8h-.03s.17-.2.17-.2l-.03.06-.11.14M187.29,34.03l-.14-.05v-.05l.02-.17.1.17h0s.02.1.02.1M187.22,33.44l-.02.18-.05-.18-.02-.44v-.13s.02.08.02.08l.07.49M187.34,31.7l.14-.09h.03s.02.06.02.06l-.02.02-.16.1v-.08M187.93,28.98l.06-.07.04.22-.1-.15M186.52,21.98l-.12-.05-.05-.08-.05-.07v-.12s-.01-.03-.01-.03l-.06-.15-.07-.17.12-.08.25.75M185.82,20.39l.04.19v.04s-.09.08-.09.08h0s-.35-.24-.35-.24h-.02l-.3-.05-.65-.24-.09-.17.05.02.12-.12.04.02.15-.07.04.04v-.04s.1-.06.1-.06h.04l.04.02.1-.06.07.02.02-.04.04-.03h.07s.08.04.08.04l.02-.05.1-.04.36.53.12.26-.09-.05M182.53,19.77l.47-.26.06.17-.47.26-.06-.17M182.05,20.62l-.18-.04.08-.34.11-.07.07.1-.08.34M181.79,27.3l.26-.44.12.12-.22.52-.22.38-.17.54-.07-.04.3-1.07M183.21,33.88c.09-.77.1-1.54.13-2.3l.13.02v.43l-.11,1.7-.19.37.04-.22M184.37,35.09v.03s-.02.01-.02.01l.02-.04M185.95,36.72h-.03s-.23-.07-.23-.07l.15-.17h.08s.17.03.17.03l.29.07.14.12-.1.08-.4-.06h-.08M187.89,33.66l.07.46v.51s-.15-.19-.15-.19l-.08-.08v-.36s-.14-.39-.14-.39h0s0,0,0,0l-.02.26v-.23s-.03-.21-.03-.21l-.02-.19v-.07s-.11-.93-.11-.93v-.08s-.03-.18-.03-.18v-.07s.1.07.1.07h.04s0,0,0,0h.03s.11-.02.11-.02l-.02-.06.05-.07.03.12.06.25.07-.27h.02s.09.73.09.73l-.2-.29.15,1.29M187.66,24.81l-.17-.6-.03.03-.06.07-.02.02h0s-.02-.1-.02-.1v-.02s.02-.06.02-.06l.04-.03-.04-.05.07-.13h0s.06.28.06.28l.1-.12.09.28-.07.09.05.34M187.24,23.22v.2s-.01.05-.01.05h-.04s-.04,0-.04,0l-.08-.36h.03s.02,0,.02,0l.05.06.05.02v.02M186.91,22.13l-.06.03-.03-.03-.15-.44.26.34-.02.1M186.23,20.28h-.11s-.37-.58-.37-.58h.04s.14.04.14.04l.33.51-.03.03M182.22,19.92l-.02.13h-.02s-.12.01-.12.01l-.03-.06.02-.07.03-.03h.02s.13.02.13.02M179.9,27.06v-.02s.33-.19.33-.19l.1-.05.12.04-.28.15-.18.1-.06.02-.02-.04M181.46,28.44v.36s-.13.8-.13.8l-.02-.02.15-1.14M181.28,29.91h.02s-.01.13-.01.13h-.02s.01-.13.01-.13M182.46,31.44v-.03s.01.03.01.03l-.05.58.04-.58M185.93,37.91v-.28h.02s.01,0,.01,0h.09s.05.02.05.02l.17.44h-.22l-.1-.15-.02.05v-.08ZM188.38,26.84l.15-.13h.04s.02-.02.02-.02l.06.07.13.14-.4-.06M188.33,24.53h.01l.05.17-.16.25-.07-.31.17-.1M188.37,25.3l.03-.36.13-.1.3.57-.1.03-.35-.15M188.09,24.74l.06.28v.05s-.11-.06-.11-.06h0s0-.11,0-.11h0l.02-.08v-.02s.05-.06.05-.06M180.85,23.27v.02h0v-.02ZM180.91,30.1v.05s-.04,0-.04,0l.04-.05M185.53,54.03l-.55.39.28-.39-.53-.26h.53l.27-.52v.52h.21c.02-1.42.03-2.84.04-4.26l-.51.25.27.65-.55-.39-.25.39.25-.65-.52-.26h.52v-.39l.28.39h.51c.01-2,.01-4.02.01-6.09l-.26.26v.52l-.27-.26-.53.26.25-.52-.52-.26h.52l.28-.39v.39h.53v-1.55s.17.07.17.07l.37.16c0,.97.21,8.15.36,13.74l-.6.32-.39.16c.02-.8.03-1.6.04-2.39l-.21.1ZM185.93,38.99v-.64s.12,0,.12,0l.24-.23.02.04.11.12.11.22.18.23h0s.31.32.31.32l-1.09.74v-.81M189.29,38.87l.1-.09.23.42.04.19-.13-.03-.06-.22-.18-.28M191.23,38.02l-.08-.03h0s-.17,0-.17,0l-.08-.03v-.02s-.21-.5-.21-.5l-.18-.22-.05-.16h-.14s0,0,0,0l-.42.07-.12-.14.06-.32.03-.18.1-.5.07-.09.02.12-.08.43v.07s-.03.17-.03.17l-.05.28.02.05.08-.05.05-.28v-.06s.05-.24.05-.24l.09-.51.2-.13h.06s.15.02.15.02h.05s.13-.01.13-.01l-.11-.1.08-.07.07-.07v-1.5l.08-.06v-.03s-.1-.06-.1-.06v-.4s0-.5,0-.5v-.39h.13v.31s0,.93,0,.93l.02-.04.07.17-.02.06-.02.07-.02.11v1.37l-.04.06-.04.15-.05.22v.07s0,.26,0,.26l.25.22.15-.08v-.31s-.04-.28-.04-.28v-.06l-.03-.04-.15-1.46.13-.03v.06s.03.12.03.12l.05.52v.07s.05.48.05.48h0s0,0,0,0l.03.19v.08s-.01.1-.01.1l.02.11.04.23.1.26v.07s-.05,0-.05,0l-.23.07.22.12.04.02h.02v.05l-.02.03-.06.06h0s.09.03.09.03l.04.19-.17.48h.13s-.08.13-.08.13l-.07.18-.08.1M192.26,33.76l-.26.28h-.08s0-.04,0-.04l.34-.24M191.4,32.66l-.06.06v.11s.04.14.04.14l-.08-.04.02.05-.07.06-.14-.06h-.03s.02.11.02.11v.09s-.07-.06-.07-.06v-.22s.02-.08.02-.08l-.02-.02-.07-.31v-.35s.31.37.31.37l-.02.06-.05.07.13-.04h.02s.05.07.05.07M191.01,33.56v-.26h.13v.27l-.03.04-.05.06.02-.05-.07-.06M193.13,33.71l-.13.02.07.22h-.19s.02-.14.02-.14h-.07s-.12.15-.12.15l-.06.05-.05.02.04.13v.25l.28-.12v.04l-.18.17.13.2.02.04.08.15v.06s.15.11.15.11l-.46.04h-.11s-.8.04-.8.04l-.25-.06.08-.36.34-.33.68-.53.47-.33.22.07-.17.11M192.06,30.72l-.08-.03.18-.03-.1.06M188.69,34.78l-.1.63-.06-.08-.17-.21.1-.91v-.23s-.1-.48-.1-.48l-.05-.7-.02-.27-.09-.41.15.2.21.79v.05s.04.53.04.53l.03.23.05.86M188.23,31.86h.03s-.02.06-.02.06l-.02-.06M188.91,26.19h-.04s-.04-.03-.04-.03l-.02-.02v-.08s.1-.04.1-.04h.06s.04-.07.04-.07h-.05s.03-.19.03-.19h.05s.19.32.19.32l-.31.12M188.93,25.36l-.02-.05h0s.02.05.02.05M188.16,23.72l.02.1-.03-.03-.04-.07-.19-.02.02.11-.04-.09.02-.02-.02-.28h0s.09-.06.09-.06h.04s.06,0,.06,0l.08.36M181.17,31.01l.02-.13h.02s-.01.15-.01.15c-.1.95-.21,1.91-.19,2.88h0c-.03-.99.07-1.94.16-2.9M182.2,35.38h.54v.33s-.02.09-.02.09l-.04,1.17c-.07,2.98.08,6.28.12,9.29h.21v-.39l.25.39h.67l-.67.25.28.51-.53-.25-.2.18c0,1.28,0,2.49-.07,3.59l-.53-1.32-.02-.1v-6.87c0-.65.14-3.56.11-5.39,0-.72-.04-1.29-.11-1.47M173.55,40.05l.02.07.08.84.16.83.19.58.1.31.54,1.05.23.38.1.14.05.07.17.4v.06s-.89-.48-.89-.48l-.69-1.4-.28-1.49v-.11l.21-1.23M176.8,43.91v.12l-.03.02v-2.95h.03v2.81ZM176.42,44.25h0s-.04.01-.04.01h-.44s.07-.01.07-.01h.4ZM176.81,39.66h.06s.27.37.27.37h-.27s-.03.01-.03.01h0s.03.02.03.02l.28.05-.1.49v.04s-.17.15-.17.15h-.04s-.03.01-.03.01h-.02s0-.08,0-.08v-.55s.01-.08.01-.08v-.45ZM176.27,42.08v.22s0,.11,0,.11v.19h0s.02.57.02.57l.11-.27h.04s-.03.62-.03.62l.02-.02.04-.04-.04.07v.02s-.13.17-.13.17l-.17.18h0s.14-.05.14-.05v.03s-.21.13-.21.13l-.12.07v.02s.11,0,.11,0h.2l-.21.05h0l-.22-.03h-.1s-.1-.15-.1-.15v-1.46s.1-.07.1-.07l.07-.04.08-.03.33-.2.08-.1M176.02,41.94l-.26.16-.05.03-.07-.02-.02-.03-.06-.06-.03-.03.03.09.04.11-.04.02-.22.03-.07-.14-.28-.37-.08-.13.03-.2-.06-.16-.02-.05.12.03.58.04h.06s.15.12.15.12l.03.06-.18.21h0s-.06,0-.06,0l-.29.04-.08.02v.03s.09.02.09.02l.29-.05h.06s.16-.04.16-.04h.03s.04-.02.04-.02l.21.06-.04.24M175.56,40.71h-.07l-.51-.15h0s-.07.01-.07.01l.04.06h.03s.45.13.45.13l.13.03h0s.06.04.06.04l.1.16h0s-.1.14-.1.14l-.06.03h-.51s-.06-.08-.06-.08v-.15s0-.03,0-.03h0s0,.02,0,.02l-.08.2-.13-.05-.1-.07v-.26s.1-.22.1-.22l-.02-.21.08-.17h.15s.39.04.39.04l.15.07.04.03.06.04.07.04.02.25-.09.1h-.06M174.99,36.76l-.04-.23.04-.12v.35ZM174.98,37.19h0s0,.47,0,.47l-.24.05-.19-.05.08-.18.35-.29M174.99,37.77v.48l-.54.18-.16.07.7-.73M178.04,39.46l-.12-.08-.48-.54v-.51l.62.84.24.24-.27.05M177.56,37.94l-.11-.03h0v-.26h.04s.37.2.37.2l.29.43-.57-.33M176.8,32.45v6.94h-.03s0-.52,0-.52v-9.92h.03v3.5ZM175.64,31.02v-1.07s0-1.11,0-1.11h0s0-.08,0-.08h.03v.73h.03s.05-.71.05-.71h.01l.02.3h0l.03-.35h.03v.2h.02v-.21h.03l.05.28v-.02s.02-.05.02-.05l.11.17.03-.08h.02l.02.22h0l.04-.23v-.04s.01.34.01.34v.04s.22.28.22.28l.02.2v.21h.03s.1-.48.1-.48v.21l-.13.41h0s0,.04,0,.04v.04s0,.06,0,.06v.07s0,.1,0,.1v.09s-.01.13-.01.13v.11s0,.16,0,.16v.13s0,.18,0,.18v.16s-.01.22-.01.22v.15s0,.4,0,.4v.51s-.01.2-.01.2v.2s0,.02,0,.02v.2s0,.29,0,.29v.22s0,.24,0,.24v.52s-.01.38-.01.38v.17s0,.14,0,.14v.19s0,.1,0,.1v.04s0,.28,0,.28v.34s0,.32,0,.32v.23s-.01.37-.01.37v.95s0,.07,0,.07v.38s0,.3,0,.3v.55s0,.62,0,.62v1.46s-.01.03-.01.03l-.21-.16-.11-.22.04-.17-.05-.22v-.03s0-.47,0-.47l-.03-.07-.09-.08-.18-.11-.04-.02v-.59s0-.91,0-.91v-1.17s0-.35,0-.35v-1.26s0-.32,0-.32v-1.27c0-.74,0-1.45,0-2.1v-1M174.99,38.59v.52l-1.02.36-.27.27,1.29-1.15M171.14,45.37c.57-1.25,1.23-2.47,1.78-3.72-.13,1.41-.38,2.71-.62,4.11-.2,1.21-.42,2.42-.63,3.63-.39,2.21-.77,4.44-1.29,6.63l-.49,1.5c-1.17,0-2.26-.52-3.04-1.17-.71-.34,3.89-10.13,4.29-10.98M171.53,60.77c1.09-1.16,2.14-6.35,3.34-11.92.2-1.33.39-2.69.56-4.02l.48.09c-.15.91-.32,1.84-.5,2.76-.53,4.66-1.34,9.6-3.34,13.74l-.53.79c0-.26-5.85-3.5-5.85-4.92l.53-.27c1.6,2.33,3.33,2.85,5.32,3.75M172.71,62.25c1.4-3.35,2.44-7.92,2.97-12.23.21-1,.39-2,.55-3l.12-2.09h.22s.03-.01.03-.01l.38-.05.38-.32.09.14c-.39,2.96-.89,6.05-1.5,9.1-.67,2.96-1.54,5.72-2.34,8.07l-.88.41M175.94,60.26c.39-.73.76-2.25,1.11-4.22.4.91.97,1.72,1.67,2.39h-.78l-.27-.51-.27.51h-.79l.79.66-.27.77.53-.52.53.52v-.77l.54-.64,1.34,1.01-.73.13c-.85.17-1.55.53-2.08,1.08-.77-.11-1.33-.25-1.33-.41M189.8,42.77h-.05s-.11-.84-.11-.84h0s-.15-.86-.15-.86l-.34-.6-.56,1.13c-.52,1.26-1.18.46-2.04.21l-.63-.24v-1.25s.76-.02.76-.02c.78.18.27.1.75-.18l.57-.38.5.25.37.07h.05s.4-.11.4-.11l.21-.15.27.25.43.24h.04s-.23.13-.23.13c.97,4,1.93,13.25,2.61,21.79l-.8-.14c-.19-6.41-1.02-13.11-2.07-19.31M189.78,31.29l.72-.09-.72.09M190.59,24.87l-.44.4-.3-.13-.03-.3.25-.17.36-.02.15.22M189.86,25.27l-.15.1-.33-.21.03-.18.45.29M189.69,24.94l-.09-.1.12-.11.07.12-.1.1M189.65,24.29l-.25-.07.04-.17.29.08-.08.16M189.42,24.66l-.21.14-.11-.13.2-.12.12.11M189.28,25.84l.04.12-.02.02h0s-.11-.17-.11-.17h.03s.07.03.07.03M183.89,13.63v.39-.39ZM181.04,21.84h0s0-.13,0-.13l.03-.04v-.02s.01,0,.01,0l-.03.2M178.12,30.91h0s.06-.18.06-.18l.7-1.79v.25s-.24,2.17-.24,2.17l.09,1.88c.05.66.13,1.31.26,1.96l.23.99.04.2.05-.6.1.24v.27l.27-.27.53.27-.27-.27.17-.17.11-.11.1-.1.15-.15h-.52l-.02-.03-.25-.36-.27.26h-.07l.03-.39-.38-1.63c-.24-1.46-.22-2.93.22-4.47l.08.42.02.31.39-.16c-.13,1.4-.1,2.78-.16,4.16l-.02.48-.13.32.03.19.13.24.33.2.06-.79v.82l.33.14.24-1.25.07-.7-.25.64-.16.51-.16-.63c-.21-1.19-.23-3.06-.03-4.13l.05-.26.05-.17.06-.15.04-.08v.1s.02.18.02.18l.03.18.13.57.05.19.09.12.35.41c-.06.81-.13,1.62-.16,2.43l-.09.83-.24,1.27.47.2.81.56-.13.53-.07.74.02-.04-.06.71c-.08,1.45-.13,3.57-.14,5.97h-.54l-.27-.52-.26.52h-.53l.13.16.08.09.33.41-.27.51.52-.26.55.26-.28-.51.53-.53c0,1.89,0,3.92,0,5.92l-.54-.21-.27-.65-.26.65-.8.26.54.39v.77l.52-.64.55.64-.28-.77.54-.31c.02,2.15.05,4.23.09,6.02l-.32-.16.23-.12h-.43l-.49-.33-.16-.56-.1.34c-.56-.49-1.02-1.08-1.35-1.75v-.27l.53-.66h-.81l-.21-.63v-.1s-.06-.43-.06-.43l-.11-1.73-.04-.72c.09-.76.17-1.53.25-2.29l.17.08-.26.91.55-.51.53.51-.14-.91.54-.25h-.54l-.39-.51-.28.51h-.15l.16-1.51.05-.42.07-.68c.09-.95.18-1.89.26-2.77l.3.19v.53l.27-.26.4.19.14.07-.09-.22-.18-.43.27-.07.24-.06h.02s-.01,0-.01,0h-.52l-.27-.65v.65h-.56c.1-1.06.18-2.04.26-2.91l-.21.23-.33-1.79-.02.99-.14.27-.22-.13-.02-.03-.65-.43-.08-.03v-.41l.12.04.28.09h.38s-.08-.52-.08-.52h-.19s-.36.17-.36.17l-.15.02v-.47l.07-.02.13-.14-.14-.14-.06-.02v-1.68h.03s.04-.48.04-.48l-.03-.77.07-.37.2-.55.05-.14.31-.93h0s0,0,0,0h0s0,0,0,0ZM178.6,40.85l.1,1.04-.1-1.04M165.95,52.22l-.8,2.59h-.66l1.74-4.02-.28,1.43ZM164.23,53.51l-1.99-.65.24-.52c.93,0,1.21.26,2.01.26l-.26.91ZM153.57,70.62v-1.68l2.01-.39-.13,1.82c-.15,0-1.08.25-1.88.25M154.65,71.53v1.68l-1.61.64c0-.64-.4-1.16-.4-2.07l2.01-.25ZM152.64,67.38v-1.69l2.01-.25v1.94h-2.01ZM154.1,64.27v-1.81l1.72-.25v2.07h-1.72ZM153.04,61.55v-1.68c1.06-.26,1.61-.26,2.78-.26v1.69c-.92,0-1.99,0-2.78.25M155.58,65.44h1.87v1.68h-1.87v-1.68ZM155.82,71.27h1.62v1.43c-.27,0-.8.26-1.62.26v-1.68ZM156.9,70.36v-2.07h1.72l.26,1.69-1.99.39M161.7,64.27h-1.33v-2.07l1.33.25v1.81ZM163.69,65.18v1.95l-1.99-.26v-1.69h1.99ZM160.48,65.18l.42,1.69h-2.27v-1.69h1.85ZM160.48,70.89v1.55l-1.59.26c0-.91,0-1.16-.26-1.81h1.85ZM159.95,69.72v-1.43l1.75-.26v1.69h-1.75ZM163.69,70.62v1.43h-1.73l-.26-1.43h1.99ZM162.48,68.03h1.47v1.69h-1.47v-1.69ZM163.04,64.52l.12-1.67h.8v1.67h-.92ZM163.04,61.42l.12-1.81.8.26v1.55h-.92ZM162.48,58.18c.28-.65.28-1.16.28-1.43l1.19.26v1.41c-.55-.25-.55,0-1.48-.25M163.96,54.69l-.27,1.42-1.99-.51c0-.65,0-1.17.26-1.56l2,.65M162.24,59.86v1.43c-.28,0-1.08-.26-1.87-.26v-1.43l1.87.26ZM161.16,58.18c-.68-.26-1.21,0-2.01-.26l.29-1.56h1.99c0,.39,0,1.17-.27,1.81M161.16,52.61c-.79,0-1.72-.26-2.53-.26l.26-.65,2.27.39v.52ZM160.89,53.78c0,.64,0,.91-.26,1.42h-2v-1.42c.52-.39,1.32,0,2.27,0M158.89,64.27h-1.99v-2.07h1.99v2.07ZM156.37,58.18c0-.89-.26-1.16-.26-1.81l1.99-.25.26,1.81c-.92,0-1.46.26-2,.26M157.44,54.95c-.8,0-1.62.25-2.14.25l-.4-1.16c.68-.26,1.74-.65,2.54-.26v1.17ZM154.65,52.61l-.28-.91c.92,0,1.73-.25,2.79-.25l.13,1.16c-.66-.26-2,0-2.65,0M154.9,56.36c0,.39,0,1.17.4,1.81-.92,0-1.73.25-2.25.25v-1.55l1.86-.52M153.04,56.11l-.28-1.16,1.08-.91c.26.39.26.91.54,1.56l-1.33.51ZM153.31,64.52h-.8v-1.67h.8v1.67ZM153.04,68.93l.27,1.68h-.8v-1.68h.54ZM196.68,70.31l-.3.05-.25.04-.24-.03h-.02s-.04-.15-.04-.15l.21-.48-.82.04-.19-.4-.9.74-.18.22-.64.15-.17-.08h-.01s-.13-.22-.13-.22l.13-.16-.54.31-.43-.15h-.03s-1.58-.19-1.58-.19l-.51.04-1.11.19-.05-.07-.16-.2-.74-.31.36-.12c.69-.29.91-.8,1.06-1.1l.67-.62.3.04.35-.16.15-.16,1.06-.62.49-.05h0l.16.02h.25s.51.08.51.08l.85.66.2.25-.49-1.08-.19-.15.15-.15.07-.07.04-.05.17-.38v-.03s.14-.42.14-.42l1.04-.06.53.35.27.37.21.46.83.05.59.25.05.02.09.08.49.54c.41.64.29,1.28.05,1.87l-.46.93-.22-.04-.16-.03h-.51s-.07-.01-.07-.01l-.2.02h-.14M188.64,66.9l.19-.04h.02s.26-.08.26-.08h.02s0,0,0,0h0s.21-.09.21-.09l.27-.13h.02s.35-.21.35-.21l.05.05-.1.11-.1.17-.61.38-.11.05-.05.09.1.04.36-.09.22-.08.04.04h0s-.15.19-.15.19l-.13.06-.46.2-.11.06.15.05.2-.03h.08s.13,0,.13,0l-.07.12-.31.15-.3.07-.14.05v.06h.41l.02.05-.14.11-.1.02-.5.1-.07.03-.03.02.03.04.04.05.19.11h.02s-.02.06-.02.06h-.75v.04s.08.07.08.07l.02.12-.3.05-.09-.1-.21-.18-1.11-.67-.03-.11.21-.34.03-.05.37-.47.8-.1.37.03.7-.05M201.3,59.31c-.5.54-1.17,1.13-1.96,1.72h0c-1.31.99-2.94,1.98-4.63,2.71l-1.38-1.23c-.11-2.58-.44-7.21-1.15-11.85-.13-3.5-1.06-7-.79-7.92.93,2.86,1.73,8.42,2.26,13.09.27,2.99.54,5.84.54,7.01.82,0,3.71-1.65,5.61-2.98l2.51-2.27-7.66-17.55-1.09.48c-1.09.31-1.94.17-2.86-.22l.42-.19.32-.81v-.03s-.02-.22-.02-.22l.46.02c.81.02,0,0,1.53.28,1.52.28,0,0,.59-.08.59-.08.27-.06.95-.5.68-.43.02-.38.02-.38l-1.35.38-1.54-.33.12-.26.14-.28.31.06h.02l.35-.06.51.15.42-.09,1.42-.79.17.34c.36,1.17-.09,2-.9,2.52.59,1.09,7.26,13.36,8.29,17.24.23.18-.68,1.13-1.64,2.02M192.08,41.14l2.13-.46-.04.56-.25-.24v.39h-.53l.27.25v.52l.27-.25.19.14-.09,1.13h-.57l-.13-.65v.65h-.66l.27.26v.26l.4-.26.53.26-.4-.26.57-.23c-.08.91-.16,1.81-.25,2.19l-.03.66h-.43l.44.22.1.94h-.46l-.12-.28c-.11-.57-.21-1.21-.3-1.87l.07-.05.27.39v-.66l.27-.25h-.54v-.27l-.18.12c-.13-.76-.27-1.43-.41-1.96l.45.33-.13-.66.25-.25h-.25l-.4-.39v.39h-.08l-.22-.69M194.65,42.96v-1.41s3.24,7.21,3.42,7.88c.18.68,3.42,8.08,3.42,8.08l-1.31.91s-.2-.28-.56-1.15c-.36-.86-4.98-14.33-4.98-14.33M193.4,47.5l.46-.24.14,1.53h-.21v-.39l-.12.18-.25-.94.24.12-.26-.25ZM196.75,41.73l-.14-.26-.21-.37-.33-.61-.09-.17-.22-.41s1.01-.89.53-1.95c.67,1.07,1,1.71,1.28,2.31l.19.39h0c.32.68,1.43,2.65,1.57,2.9l.23.41c1.06,1.87,2.01,3.58,3.06,5.45l-1.24.71s-3.01-5.47-4.63-8.41M196.17,36.67l.3-.95c3.3,3.88,8.98,10.93,8.89,11.96-.8.14-1.07.66-1.61.66-1.26-2.22-5.09-7.86-7.59-11.67M195.37,31.36c1.6.91,13.72,11.8,18.1,16.46l-1.06.77c-.54-.25-15.97-14.91-17.04-17.23M190.35,28.32l.04.06v.04s-.38.15-.38.15l-.23-.1-.03-.05.03-.04.36-.17.22.11M192.03,28.44l-.07.17-.32.02-.1-.14.26-.15.22.1M169.81,21.51l-14.51,1.16v-1.16l14.92-.25-.41.25ZM170.07,24.1l-18.76,4.01-.28-1.67h.28l18.49-2.86.27.51ZM157.04,18.26v-1.16l12.77,1.82.15.51-12.91-1.17ZM169.95,17.1l-10.65-1.67.53-1.18,10.38,2.61-.26.25ZM161.25,11.5l.56-.8,9.2,4.76h-.27l-9.49-3.96ZM163.91,8.85l.56-.79,7.38,5.26v.28l-7.94-4.75ZM165.69,5.58c-.54.26-1.2-.39-2-.39.54,5.58-2.53,2.97-3.06,3.76-.26,4.92-2,5.83-5.58,5.3l-2.54-1.54c0,.63-.53,1.54-1.2,1.54,1.73,3.37-5.07,8.69-6.93,7.78v.91c.27,1.94,8.93-2.07,8.13-8.16.54.25,1.73.9,3.07.65,0,6.35-4.26,7.51-6.4,8.93,3.34,4.02-3.46,8.17-7.05,8.43l-.25.65c2.26.5,5.04,3.75,5.58,7.24.82,4.02-.39,5.57-1.47,7-.79,1.43-4.1,2.85-7.58,2.85-1.86,0-4.4-1.69-4.4-2.08-.91,1.3-1.18,1.57-3.05,1.81V3.38l36.74.12c.28,1.69-.92,1.44-1.99,2.08M146.91,36.02l-1.73-2.08,24.62-8.41.27.64-23.16,9.85ZM171.28,27.61l.25.51-22.75,13.74-.52-2.59,23.02-11.66ZM171.53,30.19l-.25.52c-2.8,2.97-13.18,12.69-18.24,15.81l-1.07-1.43c6.91-2.98,17.05-13.47,19.56-14.9M153.57,50.02v-.91l1.48-.26.25.91c.53,0,1.34-.39,2.14-.39v-.78h2v.78h1.99v-.52h1.73l-.4.91c.65,0,1.19.26,1.46.26l.26-.91,1.2.65-.66,2.33c-3.33-2.07-11.46-1.82-14.25.26l-.27-2.33,1.34-.65.27,1.17,1.45-.51M153.31,52.09l.25.77-1.72.91-.54-.91,2-.77ZM215.48,56.75c-.52-.25-1.06-.25-1.72-.25,0-.66,0-1.17.4-1.43l1.32.27v1.42ZM214.15,53.78l.26-.51c.79,0,1.06,0,1.99.63l-.37.53-1.88-.64M202.97,52.61l-.66-1.94,1.45-.65.54.9c.26,0,.81-.25,1.46-.25l-.39-.91c.66,0,1.2-.26,1.73-.26v.91l2-.39v-.53h1.85v.91c.93-.26,1.21-.39,2.4,0v-.91l1.35.26v.65c.26.26,1.06.51,1.71.91l.28-1.17,1.07.52-.8,2.08c-3.48-1.82-11.2-2.08-13.98-.14M217.2,45.09c-4.51-4.28-17.96-13.73-19.3-13.99v-.65l21.3,13.87-2,.77ZM198.71,28.76l-.25-.25c.79,0,21.01,9.32,21.29,9.32l-.54,2.08c-1.07-.52-19.7-10.89-20.5-11.15M130.8,132.17l.14-79.31c1.05-.26,2.79-1.69,3.05-2.84,1.09.9,3.87,2.33,6.94,1.67.94,0,5.85-.78,7.58-5.69.82,0,1.31-.07,2.39-.6l1.22,1.52c-1.08.69-1.34.75-1.61.75v.91l-1.45.26.54,4.53.92-.25c.81.91,1.34,1.56,1.34,2.71v18.93l-.45.07-.34.02-.25.07c-1.38.36-2.48.65-3.38,1.23l-.22.2-.68.35v7.65c0,1.3,4.79,3.37,5.32,3.63v45.1c-3.99,1.42-5.61,3.24-5.99,5.05v5.69c6.51,4.15,22.5,7,38.06,7.4,14.37.25,29.29-1.7,37.15-6.74v-6.87c0-1.16-3.06-4.15-4.8-4.39v-45.1c.92-.26,4.8-2.59,4.8-3.76l.05-.92.15-.51v-2.33l.19-3.49-2.36-.89-1.52-.65-.35-.07-1.21-.46v-19.69l1.17-2.07.55.25,1.19-3.11c.8.91,2.28,0,2.28-1.43,0-1.16-2.01,0-1.76-1.81-.25-.26-.45-.65-1.12-1.16l1.53-.63c3.19,6.45,10.27,4.77,10.79,4.11.65,2.08,1.2,4.92,6.54,4.92l-.14,77.88v18.92c0,2.07-1.74,3.75-4.01,3.75h-40.6c-2.28,0-6.78,2.33-8.12,5.19-1.72-2.86-5.06-5.19-7.31-5.19h-42.34c-2.26-.12-3.99-1.81-3.87-3.89v-18.92Z"/>
      <path class="cls-1" d="M144.92,14.13c-.54,2.97-1.72,4.4-5.05,4.4,0,4.41-1.73,6.09-3.34,7,3.87.64,4.13-3.24,4.13-5.57,2.4-.26,4.79-.51,4.79-4.01,2,0,3.73-.26,4-2.6-2.53,1.43-3.74,1.17-4.53.79"/>
      <path class="cls-1" d="M230.66,35.24c1.73,0,1.73-1.43.93-1.16-2.8.51-4.79,0-5.06-2.34-2.27-.65-4.12-.91-4.12-4.14-1.48,1.16-4.66-.52-4.66-1.44l-.55,1.17c.55.92,3.21,2.34,4.27,1.56,0,1.69,2,4.02,4.54,3.38-.27,2.33,1.59,2.98,4.66,2.98"/>
      <path class="cls-1" d="M141.33,30.19c-.93-.91-.93.26-.4.91,1.73,1.04,3.99-4.01,3.99-5.96l-.54.12c-.25,1.69-1.98,5.45-3.05,4.93"/>
      <path class="cls-1" d="M227.06,29.93c-.8,0-.8-1.03.27-2.32l-1.07.39c-.53,0-1.46,2.58,0,2.84,2,.26,5.6-.52,5.86-1.43v-.25s-2.8,1.68-5.06.77"/>
      <path class="cls-1" d="M222.53,34.08c-.52.25-3.33-.91-3.85-2.99,0-1.17-.55,0-.27.91.79,2.07,2.26,2.97,4.12,2.97.94,0,.94-.9,0-.9"/>
      <path class="cls-1" d="M227.33,37.19l-1.07-.26c-1.06,4.4,4.67,4.15,5.86,4.15.54,0,1.74-.52.79-.79-1.32-.38-5.85-.38-5.58-3.1"/>
      <path class="cls-1" d="M140.4,36.02l-.8-.37c-.8,2.33-1.73,3.62-3.33,3.23v.91c3.06.65,4.39-3.23,4.13-3.76"/>
      <path class="cls-1" d="M138.39,47.42c-.78-.38-.25.79,1.21,1.17,1.33,0,2.8-.39,3.6-2.97,1.46,0,3.47-3.76,3.47-6.09l-.69-.9c-.26,1.15-.53,6.08-3.31,5.83.25,2.07-1.73,3.75-4.27,2.97"/>
      <path class="cls-1" d="M136.53,44.18c-.67,0-1.2,1.17-.27,1.17,2.65.26,5.85-.26,6.64-4.93,0-.9-1.04-.39-.79.26.28,2.59-3.32,4.67-5.58,3.5"/>
      <polyline class="cls-1" points="187.63 33.44 187.63 33.45 187.63 33.44 187.57 32.64 187.63 33.44"/>
      <path class="cls-1" d="M178.07,32.86l.05.66.2,1.23.07.28c.17.7.4,1.38.7,2.06l-.05-.81-.39-1.31-.21-.86-.11-.49-.1-.66-.04-.22-.09-1.81c-.07.65-.08,1.3-.05,1.93"/>
      <polyline class="cls-1" points="191.11 29.49 190.93 29.55 190.8 29.47 190.81 29.41 190.82 29.32 190.77 29.34 190.69 29.41 190.65 29.55 190.72 29.64 190.94 29.7 191.07 29.69 191.14 29.68 191.11 29.49"/>
      <polyline class="cls-1" points="191.1 29.95 191.02 29.88 190.85 29.88 190.7 29.87 190.55 29.9 190.42 29.96 190.38 29.96 190.27 30.06 190.49 30.05 190.52 30.06 190.61 30.19 190.66 30.25 190.85 30.26 190.73 30.19 190.73 30.19 190.68 30.06 190.81 30.08 190.99 30.02 191.16 30.04 191.17 30.03 191.17 30 191.1 29.95"/>
      <polyline class="cls-1" points="192.69 24.65 193 24.93 193.02 25.15 193.2 25.39 193.13 25.08 192.54 24.48 192.69 24.65"/>
      <polyline class="cls-1" points="183.02 24.78 183.22 24.69 183.55 24.72 183.78 24.68 184.09 24.62 183.97 24.55 183.64 24.47 183.4 24.44 183.2 24.4 182.8 24.61 182.8 24.67 183.02 24.78"/>
      <polyline class="cls-1" points="183.27 24.96 183.03 24.89 183.2 25.1 183.5 25.13 183.67 24.92 183.27 24.96"/>
      <polygon class="cls-1" points="188.9 12.38 186.58 14.54 186.98 14.91 189.05 12.54 189.14 12.78 189.36 12.44 189.77 12.43 189.51 12.12 189.62 11.73 189.24 11.88 188.9 11.66 188.92 12.05 188.6 12.3 188.9 12.38"/>
      <polygon class="cls-1" points="180.48 11.2 180.73 10.94 181.92 14.08 182.42 13.85 180.95 10.9 181.24 10.94 181.01 10.55 181.21 10.15 180.77 10.24 180.44 9.94 180.39 10.38 179.98 10.59 180.4 10.77 180.48 11.2"/>
      <polygon class="cls-1" points="178.23 12.44 178.44 12.78 178.53 12.54 180.7 14.79 180.77 14.87 181.15 14.47 178.69 12.38 178.98 12.3 178.66 12.05 178.69 11.66 178.34 11.88 177.96 11.73 178.08 12.12 177.82 12.43 178.23 12.44"/>
      <polygon class="cls-1" points="176.54 15.16 176.9 15.07 177.17 15.31 177.19 15.08 180.26 16.42 180.35 16.46 180.55 15.95 177.29 14.89 177.51 14.76 177.17 14.63 177.09 14.28 176.85 14.56 176.48 14.53 176.68 14.83 176.54 15.16"/>
      <polygon class="cls-1" points="176.58 17.87 176.87 17.64 177.22 17.73 177.13 17.52 180.3 17.73 180.4 17.74 180.4 17.2 177.15 17.3 177.28 17.1 176.92 17.12 176.69 16.84 176.6 17.19 176.25 17.32 176.57 17.51 176.58 17.87"/>
      <polygon class="cls-1" points="177.65 19.58 177.44 19.32 177.36 19.64 177.05 19.75 177.33 19.92 177.35 20.24 177.6 20.04 177.92 20.12 177.8 19.82 177.82 19.78 180.95 18.82 181.05 18.79 180.86 18.29 177.78 19.57 177.65 19.58"/>
      <polygon class="cls-1" points="183.01 46.5 182.81 46.41 182.81 46.88 183.01 46.5"/>
      <polygon class="cls-1" points="180.46 38.36 180.34 38.66 180.2 39 180.29 38.94 180.6 38.71 180.73 38.62 180.73 38.62 180.94 38.91 181.01 39 181.01 38.52 181.01 38.36 181.07 38.32 181.37 38.11 181.4 38.09 181.38 38.09 181.13 38.09 180.89 38.09 180.74 38.09 180.73 38.09 180.73 37.45 180.46 38.09 180.43 38.09 179.94 38.09 180.39 38.32 180.46 38.36"/>
      <path class="cls-1" d="M188.68,65.25l.11.19.61-.17v-.02c-.12-1.3-.63-2.74-2.56-3.09l-.64-.07h-.44s-.23.12-.23.12l.07.25.39.04.19-.04.15-.02c1.4-.11,2.77,1.52,2.35,2.81"/>
      <polyline class="cls-1" points="194 36.36 194.03 36.38 194.06 36.3 193.99 36.18 193.96 36.19 193.94 36.18 193.88 36.25 193.97 36.38 194 36.36"/>
      <polyline class="cls-1" points="194.42 35.43 194.59 35.84 194.77 36 194.78 35.96 194.88 36 194.94 35.86 194.79 35.6 194.66 35.37 194.62 35.27 194.55 35.29 194.53 35.27 194.42 35.31 194.42 35.43"/>
      <polyline class="cls-1" points="194.77 36 194.76 36 194.76 36 194.76 36.01 194.77 36"/>
      <polyline class="cls-1" points="194.02 34.34 194.1 34.57 194.16 34.59 194.18 34.58 194.23 34.59 194.29 34.49 194.17 34.18 194.12 34.22 194.1 34.18 194.02 34.34"/>
      <polyline class="cls-1" points="194.22 34.68 194.26 34.99 194.31 35.1 194.33 35.08 194.39 35.1 194.48 34.96 194.29 34.68 194.29 34.75 194.22 34.68"/>
      <polyline class="cls-1" points="193.8 33.5 193.85 33.8 193.94 33.94 193.97 33.93 194 33.94 194.05 33.9 193.97 33.53 193.93 33.46 193.86 33.37 193.85 33.38 193.81 33.37 193.8 33.5"/>
      <polyline class="cls-1" points="193.67 32.84 193.69 32.83 193.74 32.86 193.74 32.87 193.75 32.88 193.8 32.81 193.69 32.68 193.68 32.7 193.65 32.68 193.62 32.74 193.67 32.84"/>
      <polyline class="cls-1" points="194.85 36.08 194.83 36.05 194.77 36.01 194.75 36.03 194.83 36.22 194.9 36.21 194.89 36.17 194.95 36.22 195.02 36.21 194.94 36.05 194.88 36.01 194.86 36.03 194.85 36.08"/>
      <polyline class="cls-1" points="194.88 36.01 194.88 36 194.88 36 194.88 36 194.88 36.01"/>
      <polyline class="cls-1" points="194.12 36.5 194.05 36.54 194.05 36.5 193.96 36.64 194.04 36.69 194.05 36.67 194.1 36.69 194.12 36.5"/>
      <polyline class="cls-1" points="190.78 36.63 190.73 36.6 190.7 36.65 190.67 36.85 190.73 36.97 190.76 36.96 190.78 36.63"/>
      <polyline class="cls-1" points="192.47 34.14 192.3 34.26 192.45 34.26 192.44 34.41 192.59 34.26 192.47 34.14"/>
      <polyline class="cls-1" points="191.19 36.74 191.09 36.75 191.17 36.97 191.08 37.69 190.88 37.67 190.77 37.56 190.81 37.78 191.05 37.84 191.17 37.68 191.25 37.2 191.27 36.92 191.19 36.74"/>
      <polyline class="cls-1" points="190.6 35.97 190.59 35.96 190.59 35.99 190.57 36.14 190.47 36.7 190.4 36.96 190.52 36.96 190.66 36.24 190.67 36.09 190.6 35.97"/>
      <polygon class="cls-1" points="185.73 13.98 186.87 10.96 187.1 11.2 187.18 10.77 187.6 10.59 187.19 10.38 187.15 9.94 186.82 10.24 186.37 10.15 186.57 10.55 186.34 10.94 186.66 10.89 185.22 13.78 185.73 13.98"/>
      <polygon class="cls-1" points="187.31 15.72 187.51 16.22 190.39 15.04 190.41 15.31 190.69 15.07 191.04 15.16 190.9 14.83 191.1 14.53 190.73 14.56 190.49 14.28 190.41 14.63 190.07 14.76 190.2 14.84 187.42 15.68 187.31 15.72"/>
      <polyline class="cls-1" points="176.28 29.74 176.28 29.74 176.27 29.75 176.29 29.74 176.28 29.74"/>
      <polyline class="cls-1" points="175.95 28.45 176.02 28.56 175.95 28.45"/>
      <polyline class="cls-1" points="176.11 27.85 176.13 27.43 176.11 27.85"/>
      <polyline class="cls-1" points="186.59 68.56 186.16 68.42 185.24 68.49 185.14 68.5 184.92 68.66 185.1 68.74 185.43 69.02 185.24 68.67 185.2 68.63 186.66 68.68 186.59 68.56"/>
      <polyline class="cls-1" points="179.57 67.86 179.88 68.27 180.03 68.56 180.58 68.49 180.61 68.41 180.53 68.38 180.3 68.45 180.08 68.43 180.01 68.33 180.09 68.24 180.28 68.18 180.37 68.08 180.24 68.06 179.9 68.1 179.74 67.83 180.09 67.72 179.88 67.69 179.54 67.65 179.42 67.47 179.55 67.33 179.89 67.33 179.98 67.32 179.98 67.28 179.54 67.21 179.31 67.59 179.57 67.86"/>
      <polyline class="cls-1" points="183.97 65.34 183.97 65.34 184.16 65.4 184.3 65.62 184.58 65.8 184.65 65.63 184.7 65.51 184.82 65.41 184.83 65.34 184.83 65.33 184.74 65.26 184.6 65.15 184.13 64.83 184.07 64.81 184.15 64.7 184.13 64.64 183.79 64.64 183.66 64.78 183.69 64.95 183.8 65.11 183.84 65.17 183.88 65.23 183.93 65.35 183.94 65.35 183.97 65.34"/>
      <polyline class="cls-1" points="183.92 65.38 183.92 65.36 183.93 65.35 183.82 65.42 183.8 65.44 183.92 65.38"/>
      <polyline class="cls-1" points="185.34 65.35 185.28 65.12 185.25 65.11 185.22 65.11 185.15 65.19 185.18 65.31 185.2 65.4 185.19 65.42 185.15 65.45 185.08 65.47 185.05 65.48 185 65.56 185.24 65.5 185.34 65.35"/>
      <polyline class="cls-1" points="188.04 67.56 187.91 67.58 187.9 67.63 188.05 67.68 188.18 67.77 188.11 67.96 187.89 68.02 187.59 68.01 187.57 68.05 187.68 68.11 187.73 68.3 187.57 68.38 187.31 68.39 187.25 68.43 187.29 68.49 187.92 68.22 188 68.13 188.3 67.68 188.52 67.54 188.51 67.09 188.11 67.15 188.32 67.19 188.48 67.29 188.42 67.45 188.04 67.56"/>
      <path class="cls-1" d="M29.14,198.62h-6.37l-2.53-6.59h-11.6l-2.39,6.59H.02l11.3-29.01h6.19l11.62,29.01ZM18.35,187.14l-4-10.77-3.92,10.77h7.92Z"/>
      <rect class="cls-1" x="31.35" y="169.6" width="5.56" height="29.01"/>
      <path class="cls-1" d="M60.09,183.82l-5.48.99c-.18-1.1-.6-1.92-1.26-2.47-.65-.56-1.5-.83-2.54-.83-1.38,0-2.49.48-3.31,1.44-.83.96-1.24,2.56-1.24,4.8,0,2.5.42,4.26,1.25,5.29.84,1.03,1.96,1.54,3.38,1.54,1.06,0,1.92-.3,2.59-.9.67-.6,1.15-1.63,1.42-3.1l5.47.93c-.57,2.51-1.66,4.4-3.27,5.68-1.61,1.28-3.77,1.92-6.47,1.92-3.08,0-5.53-.97-7.35-2.91-1.82-1.94-2.74-4.62-2.74-8.05s.92-6.17,2.75-8.1c1.84-1.93,4.31-2.9,7.44-2.9,2.56,0,4.6.55,6.11,1.65,1.51,1.1,2.6,2.78,3.26,5.04"/>
      <path class="cls-1" d="M67.61,184.01l-5.05-.91c.57-2.03,1.54-3.54,2.93-4.51,1.38-.97,3.44-1.46,6.17-1.46,2.48,0,4.33.29,5.54.88,1.21.59,2.07,1.33,2.56,2.23.5.91.74,2.56.74,4.98l-.06,6.49c0,1.85.09,3.21.27,4.09.17.88.51,1.82,1,2.82h-5.5c-.15-.37-.32-.92-.53-1.64l-.2-.65c-.95.92-1.97,1.62-3.05,2.08-1.08.46-2.24.69-3.46.69-2.16,0-3.87-.59-5.12-1.76-1.25-1.17-1.87-2.66-1.87-4.45,0-1.19.28-2.25.85-3.18.57-.93,1.36-1.64,2.38-2.14s2.5-.93,4.42-1.3c2.6-.49,4.4-.94,5.4-1.37v-.55c0-1.07-.26-1.83-.79-2.29-.53-.46-1.52-.68-2.99-.68-.99,0-1.76.19-2.31.58-.56.39-1,1.07-1.35,2.05M75.05,188.53c-.71.24-1.84.52-3.38.85-1.54.33-2.56.66-3.03.97-.73.51-1.09,1.17-1.09,1.96s.29,1.45.87,2.02c.58.57,1.32.85,2.22.85,1,0,1.96-.33,2.87-.99.67-.5,1.11-1.11,1.33-1.84.14-.47.22-1.38.22-2.71v-1.11Z"/>
      <rect class="cls-1" x="85.15" y="169.6" width="5.56" height="29.01"/>
      <path class="cls-1" d="M114.84,198.62h-5.17v-3.09c-.86,1.2-1.87,2.1-3.04,2.68-1.17.59-2.35.88-3.53.88-2.42,0-4.48-.97-6.21-2.92-1.72-1.95-2.58-4.66-2.58-8.14s.84-6.27,2.51-8.13c1.68-1.86,3.79-2.78,6.35-2.78,2.35,0,4.38.98,6.1,2.93v-10.45h5.56v29.01ZM99.99,187.65c0,2.24.31,3.87.93,4.87.9,1.45,2.15,2.18,3.76,2.18,1.28,0,2.37-.54,3.27-1.63.9-1.09,1.35-2.72,1.35-4.88,0-2.42-.44-4.15-1.31-5.22-.87-1.06-1.99-1.59-3.35-1.59s-2.42.52-3.32,1.57c-.89,1.05-1.33,2.62-1.33,4.7"/>
      <path class="cls-1" d="M119.05,175.03l2.73-5.92h6.23l-5.44,5.92h-3.52ZM119.47,177.6h5.56v21.02h-5.56v-21.02Z"/>
      <path class="cls-1" d="M134.03,184.01l-5.05-.91c.57-2.03,1.54-3.54,2.93-4.51,1.38-.97,3.44-1.46,6.17-1.46,2.48,0,4.33.29,5.54.88,1.21.59,2.07,1.33,2.56,2.23.5.91.74,2.56.74,4.98l-.06,6.49c0,1.85.09,3.21.27,4.09.17.88.51,1.82,1,2.82h-5.5c-.15-.37-.32-.92-.53-1.64l-.2-.65c-.95.92-1.97,1.62-3.05,2.08-1.08.46-2.24.69-3.46.69-2.16,0-3.87-.59-5.11-1.76-1.25-1.17-1.87-2.66-1.87-4.45,0-1.19.28-2.25.85-3.18.57-.93,1.36-1.64,2.38-2.14s2.5-.93,4.42-1.3c2.6-.49,4.4-.94,5.4-1.37v-.55c0-1.07-.26-1.83-.79-2.29-.53-.46-1.52-.68-2.99-.68-.99,0-1.76.19-2.31.58-.56.39-1,1.07-1.35,2.05M141.47,188.53c-.71.24-1.84.52-3.38.85-1.54.33-2.56.66-3.03.97-.73.51-1.09,1.17-1.09,1.96s.29,1.45.87,2.02c.58.57,1.32.85,2.22.85,1,0,1.96-.33,2.87-.99.67-.5,1.11-1.11,1.33-1.84.15-.47.22-1.38.22-2.71v-1.11Z"/>
      <path class="cls-1" d="M181.26,198.62h-5.17v-3.09c-.86,1.2-1.87,2.1-3.04,2.68-1.17.59-2.35.88-3.53.88-2.42,0-4.48-.97-6.21-2.92-1.72-1.95-2.58-4.66-2.58-8.14s.84-6.27,2.51-8.13c1.68-1.86,3.79-2.78,6.36-2.78,2.35,0,4.38.98,6.1,2.93v-10.45h5.56v29.01ZM166.41,187.65c0,2.24.31,3.87.93,4.87.9,1.45,2.15,2.18,3.76,2.18,1.28,0,2.37-.54,3.27-1.63.9-1.09,1.35-2.72,1.35-4.88,0-2.42-.44-4.15-1.31-5.22-.87-1.06-1.99-1.59-3.35-1.59s-2.42.52-3.32,1.57c-.89,1.05-1.33,2.62-1.33,4.7"/>
      <path class="cls-1" d="M198.06,191.93l5.54.93c-.71,2.03-1.84,3.58-3.37,4.64-1.54,1.06-3.46,1.59-5.77,1.59-3.66,0-6.36-1.2-8.12-3.58-1.38-1.91-2.08-4.33-2.08-7.24,0-3.48.91-6.21,2.73-8.18,1.82-1.97,4.12-2.96,6.91-2.96,3.13,0,5.59,1.03,7.4,3.1,1.81,2.06,2.67,5.23,2.59,9.49h-13.93c.04,1.65.49,2.93,1.35,3.85.86.92,1.93,1.38,3.21,1.38.87,0,1.6-.24,2.2-.71.6-.48,1.04-1.24,1.35-2.3M198.38,186.31c-.04-1.61-.45-2.83-1.25-3.67-.79-.84-1.75-1.26-2.89-1.26-1.21,0-2.22.44-3.01,1.32-.79.88-1.18,2.09-1.17,3.6h8.31Z"/>
      <polygon class="cls-1" points="217.95 198.62 217.95 169.61 226.72 169.61 231.98 189.4 237.19 169.61 245.98 169.61 245.98 198.62 240.54 198.62 240.54 175.78 234.77 198.62 229.13 198.62 223.39 175.78 223.39 198.62 217.95 198.62"/>
      <path class="cls-1" d="M263.08,191.93l5.54.93c-.71,2.03-1.84,3.58-3.37,4.64-1.54,1.06-3.46,1.59-5.77,1.59-3.66,0-6.36-1.2-8.12-3.58-1.38-1.91-2.08-4.33-2.08-7.24,0-3.48.91-6.21,2.73-8.18,1.82-1.97,4.12-2.96,6.91-2.96,3.13,0,5.59,1.03,7.4,3.1,1.81,2.06,2.67,5.23,2.59,9.49h-13.93c.04,1.65.49,2.93,1.35,3.85.86.92,1.93,1.38,3.21,1.38.87,0,1.6-.24,2.2-.71.59-.48,1.04-1.24,1.34-2.3M263.4,186.31c-.04-1.61-.45-2.83-1.25-3.67-.79-.84-1.75-1.26-2.89-1.26-1.22,0-2.22.44-3.01,1.32-.79.88-1.18,2.09-1.17,3.6h8.31Z"/>
      <path class="cls-1" d="M291.88,198.62h-5.16v-3.09c-.86,1.2-1.87,2.1-3.04,2.68-1.17.59-2.34.88-3.53.88-2.42,0-4.48-.97-6.2-2.92-1.72-1.95-2.58-4.66-2.58-8.14s.84-6.27,2.51-8.13c1.67-1.86,3.79-2.78,6.35-2.78,2.35,0,4.38.98,6.1,2.93v-10.45h5.56v29.01ZM277.03,187.65c0,2.24.31,3.87.93,4.87.9,1.45,2.15,2.18,3.76,2.18,1.28,0,2.37-.54,3.27-1.63.9-1.09,1.35-2.72,1.35-4.88,0-2.42-.44-4.15-1.31-5.22-.87-1.06-1.99-1.59-3.35-1.59s-2.42.52-3.32,1.57c-.89,1.05-1.33,2.62-1.33,4.7"/>
      <path class="cls-1" d="M308.68,191.93l5.54.93c-.71,2.03-1.84,3.58-3.37,4.64s-3.46,1.59-5.77,1.59c-3.66,0-6.36-1.2-8.11-3.58-1.39-1.91-2.08-4.33-2.08-7.24,0-3.48.91-6.21,2.73-8.18,1.82-1.97,4.12-2.96,6.91-2.96,3.13,0,5.59,1.03,7.4,3.1,1.81,2.06,2.67,5.23,2.59,9.49h-13.93c.04,1.65.49,2.93,1.35,3.85.86.92,1.93,1.38,3.21,1.38.87,0,1.6-.24,2.2-.71.59-.48,1.04-1.24,1.35-2.3M309,186.31c-.04-1.61-.45-2.83-1.25-3.67-.79-.84-1.75-1.26-2.89-1.26-1.21,0-2.22.44-3.01,1.32-.79.88-1.18,2.09-1.17,3.6h8.31Z"/>
      <rect class="cls-1" x="318.2" y="169.6" width="5.56" height="29.01"/>
      <rect class="cls-1" x="328.61" y="169.6" width="5.56" height="29.01"/>
      <path class="cls-1" d="M338.61,175.03l2.73-5.92h6.23l-5.44,5.92h-3.52ZM339.02,177.6h5.56v21.02h-5.56v-21.02Z"/>
      <path class="cls-1" d="M368.55,198.62h-5.56v-10.73c0-2.27-.12-3.74-.35-4.4-.24-.67-.62-1.18-1.16-1.55-.54-.37-1.18-.56-1.93-.56-.96,0-1.83.27-2.59.79-.77.53-1.29,1.23-1.58,2.1-.28.87-.43,2.48-.43,4.83v9.52h-5.56v-21.02h5.17v3.09c1.84-2.37,4.15-3.56,6.93-3.56,1.23,0,2.35.22,3.37.66,1.01.44,1.78,1.01,2.3,1.69.52.69.88,1.46,1.09,2.33.21.87.31,2.12.31,3.74v13.06Z"/>
      <path class="cls-1" d="M140.78,212.77h5.75c1.95,0,3.46.7,4.54,2.1.96,1.27,1.44,2.89,1.44,4.87,0,1.53-.28,2.91-.85,4.14-1,2.18-2.71,3.27-5.15,3.27h-5.73v-14.38ZM146.14,225.49c.64,0,1.17-.07,1.59-.21.74-.25,1.35-.74,1.82-1.47.37-.58.65-1.32.81-2.23l.14-1.51c0-1.78-.34-3.17-1.04-4.15-.69-.98-1.81-1.48-3.35-1.48h-3.38v11.04h3.4Z"/>
      <path class="cls-1" d="M154.93,212.77h1.79v2h-1.79v-2ZM154.93,216.72h1.79v10.43h-1.79v-10.43Z"/>
      <path class="cls-1" d="M160.43,223.86l.45,1.35c.45.57,1.24.85,2.36.85.67,0,1.25-.14,1.76-.43l.76-1.32-.61-1.03c-.26-.14-.77-.31-1.53-.5l-1.42-.35c-.91-.22-1.58-.47-2.01-.74-.77-.48-1.15-1.13-1.15-1.98,0-.99.36-1.79,1.09-2.41.72-.61,1.7-.92,2.92-.92,1.6,0,2.76.46,3.46,1.39.44.59.66,1.22.65,1.9h-1.67l-.43-1.08c-.42-.46-1.13-.69-2.16-.69-.68,0-1.2.13-1.55.38l-.53,1.01.69,1.09,1.18.43,1.19.28c1.29.31,2.15.61,2.59.89.68.45,1.03,1.16,1.03,2.12s-.36,1.74-1.08,2.42c-.72.68-1.81,1.02-3.27,1.02-1.58,0-2.7-.36-3.35-1.06-.66-.71-1.01-1.58-1.06-2.63h1.69Z"/>
      <path class="cls-1" d="M169.76,213.74h1.78v2.93h1.67v1.44h-1.67v6.84l.37.73.68.11h.28s.34-.04.34-.04v1.4l-.63.13-.71.04c-.82,0-1.38-.21-1.67-.63-.3-.42-.44-.97-.44-1.64v-6.94h-1.42v-1.44h1.42v-2.93Z"/>
      <path class="cls-1" d="M175.03,216.67h1.67v1.81l1.01-1.29c.53-.5,1.15-.76,1.85-.76h.17s.4.05.4.05v1.86l-.29-.04h-.29c-.89-.01-1.57.27-2.05.84-.48.57-.71,1.23-.71,1.97v6.03h-1.76v-10.48Z"/>
      <path class="cls-1" d="M181.66,212.77h1.79v2h-1.79v-2ZM181.66,216.72h1.79v10.43h-1.79v-10.43Z"/>
      <path class="cls-1" d="M186.46,213.74h1.78v2.93h1.67v1.44h-1.67v6.84l.37.73.68.11h.28s.34-.04.34-.04v1.4l-.63.13-.71.04c-.82,0-1.38-.21-1.67-.63-.29-.42-.44-.97-.44-1.64v-6.94h-1.42v-1.44h1.42v-2.93Z"/>
      <path class="cls-1" d="M199.28,217.71c.93.9,1.39,2.22,1.39,3.97s-.41,3.08-1.22,4.19c-.82,1.1-2.08,1.65-3.8,1.65-1.43,0-2.57-.49-3.41-1.46s-1.26-2.28-1.26-3.93c0-1.76.45-3.17,1.33-4.21s2.08-1.57,3.58-1.57c1.34,0,2.48.45,3.4,1.35M198.18,224.68c.43-.88.64-1.87.64-2.95,0-.98-.15-1.77-.46-2.39-.49-.97-1.34-1.45-2.54-1.45-1.07,0-1.84.41-2.32,1.23-.49.82-.73,1.81-.73,2.97s.24,2.04.73,2.79c.48.74,1.25,1.12,2.3,1.12,1.15,0,1.95-.44,2.37-1.33"/>
      <path class="cls-1" d="M214.16,216.99l1.06,1.03v-5.3h1.69v14.43h-1.58v-1.46c-.41.65-.89,1.11-1.45,1.4-.56.29-1.2.43-1.92.43-1.16,0-2.17-.49-3.02-1.47-.85-.98-1.28-2.29-1.28-3.92,0-1.53.39-2.85,1.17-3.97.78-1.12,1.89-1.68,3.33-1.68.8,0,1.47.17,2.01.51M210.23,224.85c.48.75,1.23,1.13,2.28,1.13.81,0,1.48-.35,2-1.05.52-.7.79-1.71.79-3.02s-.27-2.31-.81-2.94c-.54-.64-1.21-.95-2-.95-.88,0-1.6.34-2.15,1.02-.55.68-.82,1.68-.82,2.99,0,1.12.24,2.07.71,2.82"/>
      <path class="cls-1" d="M226.03,216.96c.7.35,1.22.8,1.59,1.35.35.53.59,1.15.7,1.85.1.48.16,1.26.16,2.31h-7.62c.03,1.07.28,1.92.75,2.57.47.64,1.19.97,2.17.97.91,0,1.64-.3,2.19-.91l.65-1.23h1.73l-.45,1.29-.86,1.16c-.53.52-1.19.88-1.97,1.06l-1.43.16c-1.3,0-2.4-.47-3.3-1.42-.9-.95-1.35-2.28-1.35-3.99s.45-3.05,1.36-4.1c.91-1.05,2.1-1.58,3.56-1.58.74,0,1.46.17,2.15.53M226.66,221.07c-.07-.76-.24-1.37-.5-1.83-.48-.85-1.28-1.27-2.4-1.27-.8,0-1.48.29-2.02.88-.54.59-.83,1.33-.86,2.23h5.78Z"/>
      <path class="cls-1" d="M2.42,237.99c1.41-1.44,3.2-2.16,5.37-2.16,2.91,0,5.03.96,6.37,2.89.74,1.08,1.14,2.17,1.19,3.26h-3.65c-.23-.84-.53-1.47-.89-1.9-.65-.76-1.61-1.13-2.89-1.13s-2.33.53-3.08,1.6c-.75,1.07-1.12,2.58-1.12,4.54s.4,3.42,1.19,4.4c.79.97,1.8,1.46,3.02,1.46s2.21-.42,2.86-1.25c.36-.45.66-1.12.9-2.02h3.62c-.31,1.9-1.11,3.45-2.4,4.64-1.29,1.19-2.93,1.79-4.94,1.79-2.48,0-4.43-.81-5.86-2.42-1.42-1.62-2.13-3.84-2.13-6.66,0-3.04.81-5.4,2.42-7.05"/>
      <path class="cls-1" d="M21.15,239.18h-3.42v-3.11h3.42v3.11ZM17.73,240.72h3.42v12.91h-3.42v-12.91Z"/>
      <path class="cls-1" d="M32.52,240.98c.9.41,1.64,1.04,2.23,1.91.53.77.87,1.66,1.03,2.67.09.59.13,1.45.11,2.56h-9.4c.05,1.3.5,2.2,1.35,2.73.52.32,1.14.48,1.86.48.77,0,1.39-.2,1.87-.59l.69-.89h3.45c-.09.77-.51,1.54-1.25,2.33-1.15,1.26-2.77,1.88-4.85,1.88-1.72,0-3.23-.53-4.55-1.59-1.31-1.06-1.97-2.78-1.97-5.17,0-2.24.59-3.95,1.78-5.14,1.18-1.19,2.72-1.79,4.62-1.79,1.12,0,2.13.2,3.03.6M27.47,243.89c-.48.49-.78,1.16-.9,2h5.82c-.06-.9-.36-1.58-.9-2.04-.54-.46-1.21-.7-2-.7-.86,0-1.54.25-2.01.74"/>
      <path class="cls-1" d="M47.69,241.46c.85.7,1.27,1.86,1.27,3.48v8.69h-3.46v-7.85c0-.68-.09-1.2-.27-1.56-.33-.66-.96-1-1.88-1-1.14,0-1.92.48-2.34,1.46-.22.51-.33,1.17-.33,1.97v6.98h-3.38v-12.88h3.27v1.88c.43-.66.84-1.14,1.23-1.43.69-.52,1.57-.78,2.63-.78,1.33,0,2.42.35,3.26,1.05"/>
      <path class="cls-1" d="M59.5,245.35l-.49-1.3c-.38-.52-.97-.78-1.77-.78-1.14,0-1.92.56-2.34,1.69-.22.6-.33,1.4-.33,2.39s.11,1.7.33,2.28c.4,1.07,1.16,1.61,2.28,1.61.79,0,1.35-.21,1.69-.64.33-.42.53-.98.6-1.66h3.45c-.08,1.03-.45,2-1.11,2.91-1.06,1.48-2.63,2.22-4.71,2.22s-3.61-.62-4.59-1.85c-.98-1.23-1.47-2.83-1.47-4.79,0-2.22.54-3.94,1.62-5.17,1.08-1.23,2.58-1.85,4.48-1.85,1.62,0,2.95.36,3.98,1.09,1.03.73,1.64,2.01,1.83,3.85h-3.46Z"/>
      <path class="cls-1" d="M68.42,239.18h-3.42v-3.11h3.42v3.11ZM65,240.72h3.42v12.91h-3.42v-12.91Z"/>
      <path class="cls-1" d="M76.49,245.77l1.35-.3.73-.96-.56-1.1c-.37-.2-.92-.3-1.64-.3-.81,0-1.38.2-1.72.59l-.48,1.19h-3.26c.07-1.13.39-2.06.95-2.78.9-1.14,2.43-1.7,4.62-1.7,1.42,0,2.68.28,3.78.84,1.1.56,1.65,1.62,1.65,3.17v5.92l.02,1.49.2.9.5.39v.5h-3.67l-.21-.73-.1-.78-1.62,1.29c-.73.42-1.56.63-2.48.63-1.17,0-2.14-.33-2.91-1-.77-.67-1.15-1.61-1.15-2.84,0-1.59.62-2.74,1.85-3.45.68-.39,1.67-.66,2.98-.83l1.16-.14ZM78.55,247.35l-.65.33-.91.23-.77.14c-.72.13-1.24.28-1.55.46-.53.31-.8.79-.8,1.43l.49,1.25,1.18.39c.74,0,1.42-.21,2.04-.64.62-.43.94-1.2.97-2.33v-1.26Z"/>
      <path class="cls-1" d="M84.37,256.43c.68-.19,1.18-.51,1.5-.95.32-.44.5-1.06.55-1.86h-2.05v-3.54h3.65v3.06l-.21,1.68-.79,1.51-1.47,1.04-1.17.35v-1.3Z"/>
      <polygon class="cls-1" points="110.34 236.17 110.34 239.26 105.12 239.26 105.12 253.63 101.45 253.63 101.45 239.26 96.21 239.26 96.21 236.17 110.34 236.17"/>
      <path class="cls-1" d="M118.51,240.98c.9.41,1.64,1.04,2.23,1.91.53.77.87,1.66,1.03,2.67.09.59.13,1.45.11,2.56h-9.4c.05,1.3.5,2.2,1.35,2.73.52.32,1.14.48,1.86.48.77,0,1.39-.2,1.87-.59l.69-.89h3.45c-.09.77-.51,1.54-1.25,2.33-1.15,1.26-2.77,1.88-4.85,1.88-1.72,0-3.23-.53-4.55-1.59-1.31-1.06-1.97-2.78-1.97-5.17,0-2.24.59-3.95,1.78-5.14,1.18-1.19,2.72-1.79,4.62-1.79,1.12,0,2.13.2,3.03.6M113.46,243.89c-.48.49-.78,1.16-.9,2h5.82c-.06-.9-.36-1.58-.9-2.04-.54-.46-1.21-.7-2-.7-.86,0-1.54.25-2.01.74"/>
      <path class="cls-1" d="M131,245.35l-.49-1.3c-.38-.52-.97-.78-1.77-.78-1.14,0-1.92.56-2.34,1.69-.22.6-.33,1.4-.33,2.39s.11,1.7.33,2.28c.4,1.07,1.16,1.61,2.28,1.61.79,0,1.35-.21,1.69-.64.33-.42.53-.98.6-1.66h3.45c-.08,1.03-.45,2-1.11,2.91-1.06,1.48-2.63,2.22-4.71,2.22s-3.61-.62-4.59-1.85c-.98-1.23-1.47-2.83-1.47-4.79,0-2.22.54-3.94,1.62-5.17,1.08-1.23,2.58-1.85,4.48-1.85,1.62,0,2.95.36,3.98,1.09,1.03.73,1.64,2.01,1.83,3.85h-3.46Z"/>
      <path class="cls-1" d="M146.86,241.46c.85.7,1.27,1.86,1.27,3.48v8.69h-3.46v-7.85c0-.68-.09-1.2-.27-1.56-.33-.66-.96-1-1.88-1-1.14,0-1.92.48-2.34,1.46-.22.51-.33,1.17-.33,1.97v6.98h-3.38v-12.88h3.27v1.88c.43-.66.84-1.14,1.23-1.43.69-.52,1.57-.78,2.63-.78,1.33,0,2.42.35,3.26,1.05"/>
      <path class="cls-1" d="M161.71,252.05c-1.09,1.35-2.74,2.02-4.96,2.02s-3.87-.67-4.96-2.02c-1.09-1.35-1.64-2.97-1.64-4.86s.55-3.48,1.64-4.84c1.09-1.36,2.74-2.05,4.96-2.05s3.87.68,4.96,2.05c1.09,1.37,1.63,2.98,1.63,4.84s-.54,3.51-1.63,4.86M159.01,250.18c.53-.7.79-1.7.79-2.99s-.27-2.29-.79-2.99c-.53-.7-1.29-1.04-2.27-1.04s-1.75.35-2.28,1.04c-.53.7-.8,1.69-.8,2.99s.27,2.29.8,2.99c.53.7,1.29,1.05,2.28,1.05s1.75-.35,2.27-1.05"/>
      <rect class="cls-1" x="165.52" y="236.17" width="3.37" height="17.46"/>
      <path class="cls-1" d="M182.63,252.05c-1.09,1.35-2.74,2.02-4.96,2.02s-3.87-.67-4.96-2.02c-1.09-1.35-1.64-2.97-1.64-4.86s.55-3.48,1.64-4.84c1.09-1.36,2.74-2.05,4.96-2.05s3.87.68,4.96,2.05c1.09,1.37,1.63,2.98,1.63,4.84s-.54,3.51-1.63,4.86M179.93,250.18c.53-.7.79-1.7.79-2.99s-.27-2.29-.79-2.99c-.53-.7-1.29-1.04-2.27-1.04s-1.75.35-2.28,1.04c-.53.7-.8,1.69-.8,2.99s.27,2.29.8,2.99c.53.7,1.29,1.05,2.28,1.05s1.75-.35,2.27-1.05"/>
      <path class="cls-1" d="M192.75,240.71c.82.34,1.48.96,1.99,1.87v-1.86h3.29v12.24c0,1.67-.28,2.92-.84,3.77-.96,1.45-2.81,2.18-5.54,2.18-1.65,0-3-.32-4.04-.97-1.04-.65-1.62-1.61-1.73-2.9h3.67l.46.85c.36.31.98.46,1.84.46,1.21,0,2.03-.41,2.44-1.22.27-.52.4-1.39.4-2.63v-.83l-1.04,1.24c-.67.51-1.54.77-2.62.77-1.66,0-2.98-.58-3.97-1.75-.99-1.16-1.49-2.74-1.49-4.73s.48-3.53,1.43-4.84c.95-1.31,2.31-1.96,4.06-1.96.65,0,1.21.1,1.69.3M193.9,249.96c.54-.6.81-1.55.81-2.85,0-1.22-.26-2.15-.77-2.79-.51-.64-1.2-.96-2.07-.96-1.18,0-1.99.56-2.44,1.67-.24.59-.36,1.32-.36,2.19,0,.75.13,1.42.38,2,.46,1.09,1.27,1.63,2.45,1.63.79,0,1.45-.3,1.99-.89"/>
      <path class="cls-1" d="M206.73,235.44l-3.6,3.54h-2.44l2.27-3.54h3.77ZM200.91,240.72h3.42v12.91h-3.42v-12.91Z"/>
      <path class="cls-1" d="M212.4,245.77l1.35-.3.73-.96-.56-1.1c-.37-.2-.92-.3-1.64-.3-.81,0-1.38.2-1.72.59l-.48,1.19h-3.26c.07-1.13.39-2.06.95-2.78.9-1.14,2.43-1.7,4.62-1.7,1.42,0,2.68.28,3.78.84,1.1.56,1.65,1.62,1.65,3.17v5.92l.02,1.49.2.9.5.39v.5h-3.67l-.21-.73-.1-.78-1.62,1.29c-.73.42-1.56.63-2.48.63-1.17,0-2.14-.33-2.91-1-.77-.67-1.15-1.61-1.15-2.84,0-1.59.62-2.74,1.85-3.45.68-.39,1.67-.66,2.98-.83l1.16-.14ZM214.47,247.35l-.65.33-.91.23-.77.14c-.72.13-1.24.28-1.55.46-.53.31-.8.79-.8,1.43l.49,1.25,1.18.39c.74,0,1.42-.21,2.04-.64.62-.43.94-1.2.97-2.33v-1.26Z"/>
      <path class="cls-1" d="M235.29,240.98c.9.41,1.64,1.04,2.23,1.91.53.77.87,1.66,1.03,2.67.09.59.13,1.45.11,2.56h-9.4c.05,1.3.5,2.2,1.35,2.73.52.32,1.13.48,1.86.48.77,0,1.39-.2,1.87-.59l.69-.89h3.45c-.09.77-.51,1.54-1.25,2.33-1.15,1.26-2.77,1.88-4.85,1.88-1.72,0-3.23-.53-4.55-1.59-1.31-1.06-1.97-2.78-1.97-5.17,0-2.24.59-3.95,1.78-5.14,1.18-1.19,2.72-1.79,4.62-1.79,1.12,0,2.13.2,3.03.6M230.25,243.89c-.48.49-.78,1.16-.9,2h5.82c-.06-.9-.36-1.58-.9-2.04-.54-.46-1.21-.7-2-.7-.86,0-1.54.25-2.01.74"/>
      <rect class="cls-1" x="246.46" y="236.17" width="3.62" height="17.46"/>
      <path class="cls-1" d="M263.31,241.46c.84.7,1.27,1.86,1.27,3.48v8.69h-3.46v-7.85c0-.68-.09-1.2-.27-1.56-.33-.66-.96-1-1.88-1-1.14,0-1.92.48-2.34,1.46-.22.51-.33,1.17-.33,1.97v6.98h-3.38v-12.88h3.27v1.88c.43-.66.84-1.14,1.23-1.43.69-.52,1.57-.78,2.63-.78,1.33,0,2.42.35,3.26,1.05"/>
      <path class="cls-1" d="M277.81,241.46c.84.7,1.27,1.86,1.27,3.48v8.69h-3.46v-7.85c0-.68-.09-1.2-.27-1.56-.33-.66-.96-1-1.88-1-1.13,0-1.92.48-2.34,1.46-.22.51-.33,1.17-.33,1.97v6.98h-3.38v-12.88h3.27v1.88c.43-.66.84-1.14,1.23-1.43.69-.52,1.57-.78,2.63-.78,1.33,0,2.42.35,3.26,1.05"/>
      <path class="cls-1" d="M292.67,252.05c-1.09,1.35-2.74,2.02-4.96,2.02s-3.87-.67-4.96-2.02c-1.09-1.35-1.64-2.97-1.64-4.86s.55-3.48,1.64-4.84c1.09-1.36,2.74-2.05,4.96-2.05s3.87.68,4.96,2.05c1.09,1.37,1.63,2.98,1.63,4.84s-.54,3.51-1.63,4.86M289.97,250.18c.53-.7.79-1.7.79-2.99s-.27-2.29-.79-2.99c-.53-.7-1.29-1.04-2.27-1.04s-1.75.35-2.28,1.04c-.53.7-.8,1.69-.8,2.99s.27,2.29.8,2.99c.53.7,1.29,1.05,2.28,1.05s1.75-.35,2.27-1.05"/>
      <polygon class="cls-1" points="304.35 240.72 307.97 240.72 303.31 253.63 299.75 253.63 295.13 240.72 298.92 240.72 301.6 250.24 304.35 240.72"/>
      <path class="cls-1" d="M314.68,245.77l1.35-.3.73-.96-.56-1.1c-.37-.2-.92-.3-1.64-.3-.81,0-1.38.2-1.72.59l-.48,1.19h-3.26c.07-1.13.39-2.06.95-2.78.9-1.14,2.43-1.7,4.62-1.7,1.42,0,2.68.28,3.78.84,1.1.56,1.65,1.62,1.65,3.17v5.92l.03,1.49.2.9.5.39v.5h-3.67l-.21-.73-.1-.78-1.62,1.29c-.73.42-1.56.63-2.48.63-1.17,0-2.15-.33-2.91-1-.77-.67-1.15-1.61-1.15-2.84,0-1.59.62-2.74,1.85-3.45.68-.39,1.67-.66,2.98-.83l1.16-.14ZM316.75,247.35l-.65.33-.91.23-.77.14c-.72.13-1.24.28-1.55.46-.53.31-.8.79-.8,1.43l.49,1.25,1.18.39c.74,0,1.42-.21,2.04-.64.62-.43.94-1.2.97-2.33v-1.26Z"/>
      <path class="cls-1" d="M330.47,245.35l-.49-1.3c-.38-.52-.97-.78-1.77-.78-1.14,0-1.92.56-2.34,1.69-.22.6-.33,1.4-.33,2.39s.11,1.7.33,2.28c.4,1.07,1.16,1.61,2.28,1.61.79,0,1.35-.21,1.68-.64.33-.42.53-.98.61-1.66h3.45c-.08,1.03-.45,2-1.11,2.91-1.06,1.48-2.63,2.22-4.71,2.22s-3.61-.62-4.59-1.85c-.98-1.23-1.47-2.83-1.47-4.79,0-2.22.54-3.94,1.62-5.17,1.08-1.23,2.58-1.85,4.48-1.85,1.62,0,2.95.36,3.97,1.09,1.03.73,1.64,2.01,1.83,3.85h-3.46Z"/>
      <path class="cls-1" d="M339.39,239.18h-3.42v-3.11h3.42v3.11ZM335.96,240.72h3.42v12.91h-3.42v-12.91Z"/>
      <path class="cls-1" d="M353.11,252.05c-1.09,1.35-2.74,2.02-4.96,2.02s-3.87-.67-4.96-2.02c-1.09-1.35-1.64-2.96-1.64-4.86s.54-3.48,1.64-4.84c1.09-1.36,2.74-2.05,4.96-2.05s3.87.68,4.96,2.05c1.09,1.37,1.63,2.98,1.63,4.84s-.54,3.51-1.63,4.86M350.41,250.18c.53-.7.79-1.7.79-2.99s-.26-2.29-.79-2.99c-.53-.7-1.29-1.05-2.27-1.05s-1.75.35-2.28,1.05c-.53.7-.8,1.69-.8,2.99s.27,2.29.8,2.99c.53.7,1.29,1.05,2.28,1.05s1.74-.35,2.27-1.05M352.18,235.44l-3.6,3.54h-2.44l2.28-3.54h3.77Z"/>
      <path class="cls-1" d="M367.25,241.46c.84.7,1.27,1.86,1.27,3.48v8.69h-3.46v-7.85c0-.68-.09-1.2-.27-1.56-.33-.66-.96-1-1.88-1-1.13,0-1.92.48-2.34,1.46-.22.51-.33,1.17-.33,1.97v6.98h-3.38v-12.88h3.27v1.88c.43-.66.84-1.14,1.23-1.43.69-.52,1.57-.78,2.63-.78,1.33,0,2.42.35,3.26,1.05"/>
      <rect class="cls-1" x="0" y="219.58" width="123.97" height="2.01"/>
      <rect class="cls-1" x="245.29" y="219.58" width="123.26" height="2.01"/>
    </g>
  </g>
</svg>