<?xml version="1.0" encoding="UTF-8"?>
<svg id="Capa_2" data-name="Capa 2" xmlns="http://www.w3.org/2000/svg" viewBox="0 0 817.4 238.08">
  <defs>
    <style>
      .cls-1 {
        fill: #fff;
      }
    </style>
  </defs>
  <g id="Capa_1-2" data-name="Capa 1">
    <g>
      <polygon class="cls-1" points="410.66 104.98 410.66 134.32 442.72 134.32 442.72 104.98 455.41 104.98 455.41 172.99 442.72 172.99 442.72 142.98 411.66 142.98 410.66 143.98 410.66 172.99 397.96 172.99 397.96 104.98 410.66 104.98"/>
      <path class="cls-1" d="M522.88,124.32c2.57.11,8.35-.78,9.69,2,.55,1.13-.22,4,1.32,3.33,1.33-.57,3.65-3.41,5.67-4.34,4.63-2.12,9.66-2.2,13.99.72,2.57,1.74,3.29,4.33,5.38,6.29,4.58-10.36,22.48-11.52,28.62-2.22.68,1.03,2.78,5.64,2.78,6.55v36.33h-11.36v-33.67c0-.91-2.02-4.31-2.99-5.01-5.03-3.62-13.71.34-13.71,6.35v32.33h-11.36v-33c0-.85-1.53-4.24-2.3-5.04-4.02-4.19-11.06-1.32-14.4,2.37v35.67h-11.36v-48.67Z"/>
      <path class="cls-1" d="M283.74,92.98h-10.35c-3.84,0-6.55-13.26-8.28-16.25l-28.7-.32c-1.56,3.06-4.56,16.58-8.44,16.58h-10.35l26.69-68.36c2.77-.17,11.85-1.28,13.33.75l26.11,67.61ZM261.69,66.98l-11.02-30.01-10.35,30.01h21.38Z"/>
      <path class="cls-1" d="M776.72,102.98v70l-9.58-.61-2.11-5.37c-23.31,19.96-39.73-7.52-30.9-30.19,4.88-12.52,19.94-17.73,30.57-8.49v-25.33h12.02ZM754.54,132.46c-11.29.9-12.3,17.44-9.35,25.67,3.71,10.34,18.59,6.36,19.55-.77.32-2.41.36-18.88-.16-20.58-.81-2.65-7.48-4.53-10.04-4.32Z"/>
      <path class="cls-1" d="M558.95,22.98v70l-8.91-.61-1.78-6.06c-10.25,10.39-26.12,10.22-31.72-4.68-5.91-15.73.15-39.69,20.73-38.02,4.3.35,6.67,2.3,10.32,4.03v-24.67h11.36ZM530.46,55.21c-4.93,4.9-5.41,22.11-.26,26.81,4.76,4.34,15.98,1.48,17.26-4.18.5-2.22.48-19.01-.15-20.9-1.8-5.41-12.78-5.78-16.85-1.73Z"/>
      <path class="cls-1" d="M613.73,102.98v26.67c2.88-.8,4.49-3.17,7.36-4.32,32.44-13.06,35.68,53.07,1.84,48.15-4.58-.66-6.62-2.96-9.85-5.83l-1.33,5.01-9.36.33v-70h11.36ZM622.24,133.15c-2.49.43-7.45,3.32-8.21,5.8-.74,2.41-.67,16.7-.31,19.71.73,6.07,10.17,7.67,14.94,4.89,6.66-3.88,7.07-15.97,5.49-22.61-1.43-6.02-5.77-8.85-11.91-7.8Z"/>
      <path class="cls-1" d="M674.38,123.85c34.78-2.81,35.87,52.97-.85,49.79-27.71-2.4-28.87-47.39.85-49.79ZM673,133.14c-11.56,2.37-12.71,33.01,4.43,31.8,10.09-.71,11.87-11.36,11.04-19.54-.91-8.93-6.07-14.19-15.46-12.26Z"/>
      <path class="cls-1" d="M290.28,123.85c34.72-2.81,35.84,52.85-.85,49.79-27.73-2.31-28.94-47.38.85-49.79ZM288.9,133.14c-11.56,2.36-12.76,33.01,4.43,31.8,7.46-.52,10.37-6.33,11.04-13.04,1.05-10.61-2.7-21.37-15.46-18.77Z"/>
      <path class="cls-1" d="M324.48,70.32c.21,9.89,6.36,15.25,16.31,13.94,6.97-.92,10.63-9.04,15.73,1.65-11.23,11.17-33.2,10.51-40.84-4.48-3.68-7.21-3.95-18.08-.47-25.37,7.88-16.51,34.84-17.29,40.7,1.21.93,2.94,3.04,13.04-1.71,13.04h-29.73ZM346.53,62.98c-.06-15.09-20.7-14.25-22.04,0h22.04Z"/>
      <path class="cls-1" d="M479.46,124.32v33.67c0,.95,2.02,4.27,2.99,5.01,4.68,3.59,11.94.82,15.71-3.01v-34.67l1-1h11.02v48.67l-8.69-.33-2.34-5.01c-7.35,6.74-21.12,9.38-27.71.34-.75-1.03-3.34-6.51-3.34-7.33v-36.33h11.36Z"/>
      <path class="cls-1" d="M580.33,70.32c-.08,10.33,6.71,15.57,16.87,13.84,3.21-.55,7.39-4.26,10.14-3.86,2.08.29,3.13,3.86,5.03,5.02-17.46,16.86-45.08,7.31-44.1-18.69,1.08-28.89,42.04-30.84,44.14-4.66.17,2.1.64,8.36-2.36,8.36h-29.73ZM602.37,62.98c-.5-14.94-20.91-14.26-22.04,0h22.04Z"/>
      <path class="cls-1" d="M506.18,92.98h-11.36v-33.67l-1.99-4.02c-3.9-4.92-12.93-1.82-16.72,2.02v34.67l-1,1h-11.02v-48.67l8.69.32,2.33,5.02c7.11-5.82,16.86-8.76,25-2.96,2.2,1.57,6.06,7.5,6.06,9.96v36.33Z"/>
      <path class="cls-1" d="M367.9,172.99h-12.02v-34.33c0-1-2.03-3.68-3-4.33-5.25-3.53-11.8-.2-15.7,3.67v35h-11.36v-48.67c2.59.12,8.33-.8,9.68,2.01.61,1.26-.07,3.01,1.34,3.98,8.59-9.28,24.88-9.24,29.58,3.83.3.84,1.48,4.7,1.48,5.19v33.67Z"/>
      <path class="cls-1" d="M452.74,92.98c-5.22.35-9.86.4-10.03-6-8.88,9.11-30.56,10.17-30.58-6.33-.02-13.08,19.4-15.64,29.26-15.66.56-8.86-2.23-13.26-11.63-11.94-6.21.87-10.42,9.26-14.9-1.74,7.15-8.4,25.87-11.25,33.49-2.27,1.36,1.61,4.39,7.76,4.39,9.62v34.33ZM441.39,72.31c-3.32-.08-6.95.06-10.17.85-14.18,3.49-7.14,16.88,5.05,11.04,5.82-2.79,5.43-6.02,5.12-11.89Z"/>
      <path class="cls-1" d="M371.58,44.31l12.35,17.33c1.03-2.79,9.5-17.33,11.7-17.33h11.02l-15.84,23,16.51,25.67h-11.69c-2.67,0-10.3-14.95-12.21-17.8-.31-.47.2-1.15-1.15-.87-1.35,2.8-10.67,18.67-12.7,18.67h-11.02l16.49-25.01-15.82-23.66h12.36Z"/>
      <path class="cls-1" d="M227.29,124.32c1.97.42,3.23,3.03,4,4.68,4.37,9.38,7.39,21.46,10.7,31.33l12.42-34.28c2.06-2.77,8.88-1.42,11.96-1.72l-19.67,48.71-10.32-.12-18.78-48.59c2.85.41,7.06-.56,9.69,0Z"/>
      <path class="cls-1" d="M803.44,109.65v15.33h12.69v8.67h-12.69v27l1.5,2.83c2.75,2.65,7.45-1.32,9.07-.38l3.37,5.67c.34,2.09-6.69,4.45-8.44,4.7-24.82,3.64-14.88-25.07-16.86-39.83-6.16.49-8.2-.39-7.39-6.92l7.96-1.84,2.92-14.42,7.86-.82Z"/>
      <polygon class="cls-1" points="303.11 22.98 303.11 91.98 302.11 92.98 291.08 92.98 291.08 22.98 303.11 22.98"/>
      <rect class="cls-1" x="710.59" y="102.98" width="11.36" height="70"/>
      <path class="cls-1" d="M633.77,92.98h-11.36v-48.67l9.09.6,1.61,7.4c4.95-6.27,11.38-11.5,19.76-7.35l-1.71,9.71c-3.36,1.48-6.49-.5-10.52.83-1.96.64-6.86,5.35-6.86,7.15v30.33Z"/>
      <path class="cls-1" d="M502.04,190.52c6.2-.51,11.99,1.5,16.8,5.46l-2.96,3.49c-2.62-.98-4.65-3.16-7.52-3.65-28.26-4.8-27.91,40.48-.13,34.88,4.56-.92,7.01-6.63,10.63-1.37-9.79,11.23-30.05,8.49-35.51-5.88-5.7-15,1.81-31.55,18.69-32.93Z"/>
      <path class="cls-1" d="M445.89,203.82c13.84-2.17,20.74,10.25,17.09,22.38-2.55,8.45-11.58,11.64-19.59,9.13-13.52-4.23-12.79-29.11,2.51-31.52ZM455.19,209.88c-3.03-2.95-8.35-2.78-11.77-.52-7.88,5.18-4.93,27.09,8.81,22.12,7.45-2.69,7.81-16.87,2.96-21.6Z"/>
      <path class="cls-1" d="M683.2,235.65c-3.91.64-3.79-1.05-5-3.99-5.47,6.15-19.87,6.8-19.77-3.68.08-8.3,13.01-10.12,19.43-9.66-.06-3.32.8-7.13-2.33-9.35-6.09-4.33-10.72,2.77-13.92,2.06l-1.67-2.39c4.51-5.1,15.26-7.21,20.36-2.1l2.9,5.44v23.67ZM677.86,221.65c-3.82-.36-13.43.17-13.98,5.05-.97,8.54,10.07,6.24,13.99,1.82v-6.86Z"/>
      <path class="cls-1" d="M605.71,204.32v23c0,2.68,4.37,4.85,6.91,4.77,1.9-.06,8.45-3.11,8.45-4.77v-23h5.34v31.33l-4.05-.29-.96-3.72c-4.61,4.14-13.53,6.94-18.38,1.69l-2.66-5.35v-23.67h5.34Z"/>
      <path class="cls-1" d="M278.39,235.65h-5.34v-23l-2.04-3.3c-3.99-3.71-10.15-.67-13.33,2.63v23.67h-5.34v-31.33l4.05.29.96,3.72c4.85-4.37,13.21-7.37,18.26-1.57.86.99,2.78,4.81,2.78,5.89v23Z"/>
      <path class="cls-1" d="M530.9,204.32v22.33c0,2.58,3.9,5.31,6.45,5.43,1.91.08,8.92-2.41,8.92-4.09v-23.67h5.34v31.33l-3.92-.09-1.1-3.92c-4.45,3.57-9.27,6.13-15.02,3.67-2.86-1.22-6.01-5.71-6.01-8.67v-22.33h5.34Z"/>
      <path class="cls-1" d="M381.93,204.32v21c0,3.52,3.13,6.37,6.58,6.62,2.29.17,9.46-2.51,9.46-4.62v-23h5.34v31.33h-4.68s-1-3.99-1-3.99c-4.69,4.49-12.53,6.68-17.73,1.68-.79-.76-2.64-3.89-2.64-4.7v-24.33h4.68Z"/>
      <path class="cls-1" d="M291.28,214.8c3.06,3.66,15.8,2.38,15.83,11.18.04,10.94-14.67,12.66-21.75,7.03-.24-6.37,4.44-1.38,7.54-.85,3.98.68,8.73.02,8.91-4.86.25-6.64-14.84-4.97-16.04-12.01-1.7-9.98,7.92-13.6,16.15-10.79,2.43.83,5.91,2.61,3.19,4.87l-.98.3c-3.33-1.44-7.21-3.07-10.88-1.5-2.39,1.02-3.81,4.45-1.97,6.64Z"/>
      <path class="cls-1" d="M420.01,193.65v11.33h8.69s0,2.95,0,2.95l-8.7.39v21.67c0,2.36,6.06,1.73,7.61.38l1.48,1.94c1.04,3.96-9.73,5.19-12.89,1.8-3.34-3.57-.6-19.41-1.64-24.7l-1-1c-1.37-.61-4.31.96-4.26-1.1.07-3.41,2.77-2.12,5.33-2.36l1.69-10.65,3.69-.65Z"/>
      <path class="cls-1" d="M321.81,193.65v11.33h8.69s0,2.95,0,2.95l-8.7.39v21.67c0,.79,2.1,1.64,3,1.73,3.24.29,5.85-3.72,6.06,1.93-3.45,3.4-10.63,3.72-13.37-.69-2.5-4.01-.14-23.76-1.03-24.64-7.21,1-7.41-4.19-.07-3.4l1.71-10.63,3.7-.64Z"/>
      <path class="cls-1" d="M361.22,193.65v11.33h9.35v3.33h-9.35v21c0,1.29,1.87,2.2,3.06,2.3,3.81.32,4.83-3.04,6.93,1.71-3.29,2.8-8.95,4.14-12.65,1.31-.88-.67-2.69-3.86-2.69-4.65v-21.67h-4.68s.08-2.26.08-2.26l4.98-1.7c1.24-3.8-.85-11.5,4.96-10.71Z"/>
      <path class="cls-1" d="M584.34,193.65v11.33h9.35v3.34s-9.06.62-9.06.62c-.49.7-.5,15.06-.32,17.07.56,6.06,2.92,7.04,8.33,4.26l1.66,2.96c-2.69,3.28-9.87,4.23-12.94,1.05-3.59-3.72-.73-19.42-1.79-24.88l-1-1-3.88-.08c-.87-.1-.49-3.15.72-3.25l4.25-.09c.7-3.65-.63-12.21,4.67-11.34Z"/>
      <rect class="cls-1" x="234.97" y="190.99" width="6.01" height="44.67"/>
      <rect class="cls-1" x="692.55" y="189.65" width="5.34" height="46"/>
      <path class="cls-1" d="M635.77,204.32h4.67s1.01,6.01,1.01,6.01c2.59-5.87,7.55-7.84,13.7-6l-1.31,5.04c-4.05-.58-7.04-1.29-10.04,1.96l-2.68,3.99v20.33h-5.34v-31.33Z"/>
      <rect class="cls-1" x="562.29" y="189.65" width="4.68" height="46"/>
      <rect class="cls-1" x="338.51" y="204.32" width="5.34" height="31.33"/>
      <path class="cls-1" d="M338.67,191.15c2.61-2.61,8.53.59,5.89,4.88-3.06,4.98-9.79-.99-5.89-4.88Z"/>
      <path class="cls-1" d="M194.23,20.08v218.01c-35.83-12.25-66.73-39.04-82.89-73.34-10.06,3.92-20.05,8.01-30.65,10.39-26.92,6.05-54.59,4.61-80.69-4.3L134.47,0l59.76,20.08ZM108.61,160.6c-2.87-8.45-6.42-16.8-8.58-25.61-7.98-32.57-4.51-56.69,5.44-87.89.22-.68.99-2.17.14-2.57L8.16,167.79c0,1.5,17.75,4.67,20.12,5,22.98,3.14,46.75.57,68.51-7.36,4-1.46,7.78-3.47,11.82-4.82ZM189.48,231.29V72.37l-7.35,19.47c-13.54,30.17-37.35,55.31-66.69,70.54,14.87,31.23,41.99,56.1,74.05,68.91Z"/>
    </g>
  </g>
</svg>