<?xml version="1.0" encoding="UTF-8"?>
<svg id="Capa_2" data-name="Capa 2" xmlns="http://www.w3.org/2000/svg" xmlns:xlink="http://www.w3.org/1999/xlink" viewBox="0 0 585.72 241.91">
  <defs>
    <style>
      .cls-1 {
        fill: url(#Degradado_sin_nombre_5);
      }

      .cls-2 {
        fill: #fff;
      }

      .cls-3 {
        mask: url(#mask);
      }

      .cls-4 {
        fill: none;
      }

      .cls-5 {
        fill: url(#Degradado_sin_nombre_4);
      }

      .cls-6 {
        clip-path: url(#clippath);
      }
    </style>
    <clipPath id="clippath">
      <path class="cls-4" d="M.13,181.43c0,32.78,26.57,59.36,59.36,59.36s59.36-26.57,59.36-59.36-26.58-59.36-59.36-59.36S.13,148.65.13,181.43"/>
    </clipPath>
    <radialGradient id="Degradado_sin_nombre_5" data-name="Degradado sin nombre 5" cx="977.7" cy="307.15" fx="977.7" fy="307.15" r=".72" gradientTransform="translate(-80383.7 25453.15) scale(82.28 -82.28)" gradientUnits="userSpaceOnUse">
      <stop offset="0" stop-color="#fff"/>
      <stop offset=".29" stop-color="#fff"/>
      <stop offset=".54" stop-color="#fdfdfd"/>
      <stop offset=".63" stop-color="#f6f6f6"/>
      <stop offset=".7" stop-color="#eaeaea"/>
      <stop offset=".76" stop-color="#d8d8d8"/>
      <stop offset=".81" stop-color="#c2c2c2"/>
      <stop offset=".85" stop-color="#a6a6a6"/>
      <stop offset=".89" stop-color="#858585"/>
      <stop offset=".93" stop-color="#5f5f5f"/>
      <stop offset=".97" stop-color="#333"/>
      <stop offset="1" stop-color="#050505"/>
      <stop offset="1" stop-color="#000"/>
    </radialGradient>
    <mask id="mask" x=".13" y="122.07" width="118.71" height="118.71" maskUnits="userSpaceOnUse">
      <rect class="cls-1" x=".13" y="122.07" width="118.71" height="118.71"/>
    </mask>
    <radialGradient id="Degradado_sin_nombre_4" data-name="Degradado sin nombre 4" cx="977.7" cy="307.15" fx="977.7" fy="307.15" r=".72" gradientTransform="translate(-80383.7 25453.15) scale(82.28 -82.28)" gradientUnits="userSpaceOnUse">
      <stop offset="0" stop-color="#fff"/>
      <stop offset=".29" stop-color="#fff"/>
      <stop offset=".9" stop-color="#fff"/>
      <stop offset="1" stop-color="#fff"/>
    </radialGradient>
  </defs>
  <g id="Capa_1-2" data-name="Capa 1">
    <g>
      <g class="cls-6">
        <g class="cls-3">
          <rect class="cls-5" x=".13" y="122.07" width="118.71" height="118.71"/>
        </g>
      </g>
      <g>
        <rect class="cls-2" x="119" y=".32" width="2.89" height="240.99"/>
        <rect class="cls-2" y="119.32" width="240.89" height="2.89"/>
        <rect class="cls-2" x="59.52" y="-23.51" width="2.89" height="168.81" transform="translate(-25.21 60.65) rotate(-44.81)"/>
        <path class="cls-2" d="M136.69,1h31.23c8.57,0,9.44,0,10.75.14,16.56,1.6,26.29,11.91,26.29,27.6,0,9.44-7.41,20.19-20.77,22.37v.15c14.24,1.45,25.13,10.6,25.13,24.12,0,14.24-9.88,27.75-28.18,29.2-1.45.15-2.33.15-7.55.15h-36.9V1ZM171.84,46.04c12.06,0,19.32-5.67,19.32-17.29s-7.26-16.13-19.32-16.13h-21.35v33.41h21.35ZM175.91,93.1c11.48,0,19.61-6.54,19.61-17.72s-8.14-17.72-19.61-17.72h-25.42v35.45h25.42Z"/>
        <path class="cls-2" d="M286.32,70.73h-58.98c1.02,15.69,10.61,24.84,23.97,24.84,10.02,0,18.45-3.92,21.06-13.22h12.78c-4.21,15.98-16.85,24.12-33.56,24.12-22.23,0-36.9-16.13-36.9-39.66s15.4-38.93,36.61-38.93c26.44,0,34.72,21.21,35.01,40.53v2.33ZM273.1,60.27c-1.16-13.07-8.43-21.65-21.79-21.65s-22.08,8.72-23.82,21.65h45.62Z"/>
        <path class="cls-2" d="M298.81,29.62l23.82,62.18h.15l21.35-62.18h13.95l-33.99,89.63c-3.34,9.01-8.86,14.53-19.03,14.53h-10.17v-11.04h8.28c7.26,0,8.43-4.07,10.6-9.44l2.62-6.54c-10.46-25.71-21.06-51.43-31.52-77.14h13.95Z"/>
        <path class="cls-2" d="M356.77,67.25c0-22.08,14.82-39.37,37.63-39.37s37.63,17.29,37.63,39.37-14.82,39.22-37.63,39.22-37.63-17.14-37.63-39.22M418.95,67.25c0-15.54-9.88-28.33-24.55-28.33s-24.55,12.78-24.55,28.33,9.88,28.18,24.55,28.18,24.55-12.78,24.55-28.18"/>
        <path class="cls-2" d="M503.93,56.06v48.67h-13.08v-47.36c0-13.22-5.67-18.45-15.83-18.45-11.04,0-20.77,6.39-20.77,26v39.8h-13.07V29.62h13.07v15.25h.14c2.03-8.57,9.73-17,22.37-17,19.76,0,27.17,12.93,27.17,28.18"/>
        <path class="cls-2" d="M585.72,1v103.72h-13.07v-14.96h-.15c-2.47,8.57-10.6,16.71-25.28,16.71-21.5,0-34.87-17-34.87-39.51s13.37-39.08,34.87-39.08c14.67,0,22.81,8.43,25.28,17h.15V1h13.07ZM573.08,66.95c0-14.67-7.7-28.04-23.82-28.04s-23.82,13.37-23.82,28.04,7.41,28.33,23.82,28.33c18.45,0,23.82-13.51,23.82-28.33"/>
        <polygon class="cls-2" points="241.14 136.44 241.14 240.16 227.34 240.16 227.34 150.09 227.05 150.09 196.98 240.16 181 240.16 150.78 150.09 150.49 150.09 150.49 240.16 136.69 240.16 136.69 136.44 159.93 136.58 188.99 224.76 217.89 136.44 241.14 136.44"/>
        <path class="cls-2" d="M303.02,229.27v-2.91h-.15c-1.74,5.81-7.99,15.54-24.7,15.54-18.01,0-26.29-11.48-26.29-22.23,0-22.08,26.73-21.94,38.06-23.97,9.88-1.74,13.07-4.5,13.07-10.75s-5.96-10.75-16.71-10.75c-9.15,0-15.69,5.08-16.27,13.51h-13.07c.44-11.19,9.3-24.55,28.91-24.55,27.6,0,30.22,17.87,30.22,29.49v32.25c0,5.67.58,11.62,1.16,15.25h-13.95c-.29-3.63-.29-6.68-.29-10.9M303.31,205.3v-10.02h-.29c-1.45,4.79-4.94,9.01-20.77,11.77-10.9,1.89-17.43,4.21-17.43,12.64,0,7.12,6.54,11.62,15.69,11.62,11.48,0,22.81-7.41,22.81-26"/>
        <path class="cls-2" d="M347.17,175.81v43.29c0,5.96,2.76,10.6,8.13,10.6h4.65v10.46h-5.96c-13.37,0-19.61-9.73-19.61-20.19v-44.16h-11.19v-10.75h11.19v-18.45l12.35-5.81h.44v24.26h14.38v10.75h-14.38Z"/>
        <path class="cls-2" d="M391.65,175.81v43.29c0,5.96,2.76,10.6,8.13,10.6h4.65v10.46h-5.96c-13.37,0-19.61-9.73-19.61-20.19v-44.16h-11.19v-10.75h11.19v-18.45l12.35-5.81h.44v24.26h14.38v10.75h-14.38Z"/>
        <path class="cls-2" d="M481.12,206.17h-58.98c1.02,15.69,10.61,24.84,23.97,24.84,10.02,0,18.45-3.92,21.06-13.22h12.78c-4.21,15.98-16.85,24.12-33.56,24.12-22.23,0-36.9-16.13-36.9-39.66s15.4-38.93,36.61-38.93c26.44,0,34.72,21.21,35.01,40.53v2.33ZM467.9,195.71c-1.16-13.08-8.43-21.65-21.79-21.65s-22.08,8.72-23.82,21.65h45.62Z"/>
        <path class="cls-2" d="M506.2,204.57v35.59h-13.07v-75.11h13.07l.14,18.16h.15c3.34-12.49,12.06-18.45,22.08-19.18v13.07c-13.37.87-22.37,10.17-22.37,27.46"/>
      </g>
    </g>
  </g>
</svg>