<?xml version="1.0" encoding="UTF-8"?>
<svg id="Capa_2" data-name="Capa 2" xmlns="http://www.w3.org/2000/svg" viewBox="0 0 932 261.94">
  <defs>
    <style>
      .cls-1 {
        fill: #242a5a;
      }

      .cls-2 {
        fill: #283f4b;
      }

      .cls-3 {
        fill: #3e3974;
      }

      .cls-4 {
        fill: #1d1d1b;
      }

      .cls-5 {
        fill: #5655a0;
      }
    </style>
  </defs>
  <g id="Capa_1-2" data-name="Capa 1">
    <g>
      <path class="cls-2" d="M627.57,101.22c-.58-.44-1.39-.31-1.83.26l-2.63,3.51c-.44.58-.31,1.4.26,1.83.09.06.18.11.26.16.54.24,1.19.07,1.56-.41l2.63-3.52c.44-.57.31-1.38-.26-1.82"/>
      <polygon class="cls-4" points="0 226.24 0 86.92 97.13 86.92 97.13 105.31 23.58 105.31 23.58 147.49 89.12 147.49 89.12 165.66 23.58 165.66 23.58 208.06 89.9 208.06 97.13 226.24 0 226.24"/>
      <path class="cls-4" d="M142.56,226.24c-7.07,0-13.81-.5-20.23-1.52-6.42-1.01-11.72-2.22-15.9-3.68v-19.91c4.9,1.88,10.31,3.33,16.22,4.35,5.91.99,11.54,1.51,16.88,1.51,8.07,0,13.85-.73,17.3-2.16,3.45-1.44,5.19-4.27,5.19-8.45,0-3.01-1.05-5.39-3.13-7.14-2.08-1.72-5.18-3.29-9.31-4.75-4.1-1.43-9.34-3.15-15.68-5.17-6.05-2.02-11.32-4.22-15.79-6.6-4.48-2.38-7.93-5.46-10.39-9.2-2.46-3.74-3.68-8.65-3.68-14.73,0-9.36,3.38-16.61,10.17-21.73,6.77-5.12,17.66-7.69,32.66-7.69,5.92,0,11.55.45,16.89,1.31,5.32.87,9.86,1.93,13.63,3.25v19.69c-4.05-1.59-8.48-2.83-13.31-3.68-4.84-.87-9.35-1.29-13.53-1.29-7.5,0-13.15.63-16.97,1.95-3.83,1.3-5.73,3.89-5.73,7.79s1.98,6.89,5.95,8.54c3.97,1.66,10.36,3.94,19.15,6.81,8.07,2.46,14.49,5.05,19.24,7.8,4.77,2.74,8.19,6.02,10.29,9.84,2.08,3.83,3.13,8.76,3.13,14.82,0,10.09-3.67,17.63-11.04,22.61-7.35,4.97-18.02,7.47-32.01,7.47"/>
      <path class="cls-4" d="M261.96,226.24v-104.66l22.04-2.23,1.36,14.37c5-3.23,10.96-6.18,17.88-8.83,6.92-2.65,13.77-4.49,20.54-5.54v18.34c-4.12.74-8.58,1.81-13.36,3.2-4.79,1.39-9.31,2.95-13.58,4.62-4.27,1.71-7.88,3.44-10.82,5.2v75.51h-24.07Z"/>
      <path class="cls-4" d="M354.56,226.22c-6.5,0-12.52-1.15-18.07-3.44-5.55-2.31-9.99-5.82-13.3-10.5-3.32-4.68-4.98-10.49-4.98-17.41,0-9.8,3.35-17.71,10.06-23.7,6.7-5.97,17.05-8.97,31.04-8.97h32.89v-4.55c0-4.92-.76-8.81-2.28-11.69-1.52-2.87-4.25-4.96-8.22-6.27-3.97-1.29-9.76-1.94-17.42-1.94-12.11,0-23.43,1.81-33.95,5.41v-17.52c4.61-1.87,10.23-3.39,16.87-4.55,6.64-1.15,13.77-1.73,21.42-1.73,15,0,26.42,3.01,34.29,9.08,7.85,6.07,11.78,15.93,11.78,29.62v57.41l-20.11,8.59-1.51-10.4c-4.18,4.05-9.34,7.14-15.47,9.31-6.15,2.17-13.81,3.23-23.04,3.23M360.83,209.37c7.07,0,13.23-1.19,18.5-3.57,5.26-2.38,9.56-5.59,12.88-9.64v-17.94h-32.46c-6.92,0-11.93,1.33-15.04,3.98-3.1,2.67-4.65,6.76-4.65,12.23s1.81,9.15,5.42,11.48c3.6,2.31,8.72,3.46,15.35,3.46"/>
      <path class="cls-4" d="M469.41,226.24c-10.96,0-19.14-2.92-24.55-8.77-5.41-5.83-8.11-13.79-8.11-23.89v-55.82h-15.15v-18.4h15.15v-26.45l23.35-5.79v32.23h27.27l-1.51,18.4h-25.76v54.51c0,5.91,1.38,10.06,4.12,12.43,2.73,2.38,7.21,3.56,13.41,3.56,3.89,0,8.01-.7,12.33-2.14v16.66c-5.63,2.3-12.48,3.45-20.56,3.45"/>
      <path class="cls-4" d="M549.24,226.24c-17.89,0-31.74-4.39-41.54-13.21-9.81-8.77-14.7-22.27-14.7-40.45,0-16.42,4.18-29.42,12.54-38.94,8.37-9.52,21.06-14.28,38.07-14.28,15.57,0,27.3,4.1,35.15,12.23,7.86,8.15,11.8,18.65,11.8,31.46v19.04h-75.07c1.14,9.97,4.75,16.82,10.81,20.56,6.06,3.76,15.29,5.61,27.7,5.61,5.18,0,10.52-.46,16-1.51,1.33-.25,6.58-1.17,7.25-1.28l13.31,12.29c-4.62,2.04-16.2,5.94-22.18,6.95-5.99,1.02-12.37,1.52-19.14,1.52M515.5,166.75h54.29v-7.14c0-7.07-1.94-12.6-5.85-16.55-3.89-3.97-10.45-5.95-19.68-5.95-10.96,0-18.5,2.38-22.61,7.14-4.1,4.76-6.15,12.24-6.15,22.5"/>
      <path class="cls-4" d="M644.41,261.94c-7.64,0-15.28-.47-22.92-1.41-7.65-.93-14.14-2.34-19.48-4.22l10-15.13c7.17,1.01,2.11.44,9.91,1.28,7.52.81,14.63,1.51,21.41,1.51,10.39,0,17.97-.59,22.72-1.74,4.77-1.15,7.14-3.74,7.14-7.77,0-3.03-1.16-5.17-3.47-6.39-2.31-1.22-6.7-1.84-13.2-1.84h-27.69c-18.59,0-27.9-6.56-27.9-19.69,0-4.18,1.22-8.07,3.68-11.67,2.45-3.6,6.34-6.35,11.68-8.22-5.91-2.88-10.27-6.85-13.08-11.9-2.81-5.05-4.21-11.1-4.21-18.18,0-13.11,3.92-22.63,11.78-28.55,7.87-5.9,19.65-8.87,35.38-8.87,3.3,0,6.77.25,10.37.76,3.61.5,6.42.96,8.44,1.41h37.64l-.65,15.35h-17.3c2.73,2.33,4.75,5.2,6.05,8.66,1.3,3.48,1.95,7.22,1.95,11.24,0,10.98-3.32,19.59-9.96,25.85-6.62,6.27-16.65,9.42-30.06,9.42-2.31,0-4.43-.11-6.37-.33-1.96-.21-4.09-.48-6.39-.76-4.32.44-8.22,1.6-11.68,3.47-3.45,1.88-5.18,4.4-5.18,7.56,0,2.18.86,3.73,2.59,4.66,1.73.95,4.62,1.41,8.66,1.41h28.77c10.24,0,18.13,2.21,23.69,6.6,5.55,4.4,8.32,10.79,8.32,19.14,0,10.09-4.36,17.35-13.08,21.74-8.73,4.41-21.24,6.6-37.54,6.6M646.15,176.92c9.36,0,15.9-1.59,19.57-4.75,3.68-3.17,5.53-8.58,5.53-16.22s-1.85-13.21-5.53-16.66c-3.67-3.47-10.2-5.2-19.57-5.2-8.81,0-15.23,1.65-19.26,4.98-4.05,3.32-6.05,8.94-6.05,16.88,0,7.34,1.91,12.68,5.72,16,3.82,3.33,10.34,4.97,19.59,4.97"/>
      <path class="cls-4" d="M779.07,226.22c-6.5,0-12.52-1.15-18.07-3.44-5.55-2.31-9.99-5.82-13.3-10.5-3.32-4.68-4.98-10.49-4.98-17.41,0-9.8,3.35-17.71,10.06-23.7,6.7-5.97,17.05-8.97,31.04-8.97h32.89v-4.55c0-4.92-.76-8.81-2.29-11.69-1.51-2.87-4.25-4.96-8.21-6.27-3.97-1.29-9.76-1.94-17.42-1.94-12.11,0-23.43,1.81-33.95,5.41v-17.52c4.61-1.87,10.23-3.39,16.87-4.55,6.64-1.15,13.77-1.73,21.42-1.73,15,0,26.42,3.01,34.29,9.08,7.85,6.07,11.78,15.93,11.78,29.62v59.54l-20.11,6.47-1.51-10.4c-4.18,4.05-9.34,7.14-15.47,9.31-6.15,2.17-13.81,3.23-23.04,3.23M785.34,209.37c7.07,0,13.23-1.19,18.5-3.57,5.26-2.38,9.56-5.59,12.88-9.64v-17.94h-32.46c-6.92,0-11.93,1.33-15.04,3.98-3.1,2.67-4.65,6.76-4.65,12.23s1.81,9.15,5.42,11.48c3.6,2.31,8.72,3.46,15.35,3.46"/>
      <path class="cls-4" d="M888.96,226.24c-7.07,0-13.82-.5-20.23-1.52-6.42-1.01-11.72-2.22-15.9-3.68v-19.91c4.9,1.88,10.31,3.33,16.22,4.35,5.91.99,11.54,1.51,16.88,1.51,8.07,0,13.85-.73,17.3-2.16,3.45-1.44,5.19-4.27,5.19-8.45,0-3.01-1.05-5.39-3.14-7.14-2.08-1.72-5.18-3.29-9.3-4.75-4.11-1.43-9.34-3.15-15.68-5.17-6.05-2.02-11.33-4.22-15.79-6.6-4.48-2.38-7.93-5.46-10.39-9.2-2.46-3.74-3.68-8.65-3.68-14.73,0-9.36,3.38-16.61,10.17-21.73,6.77-5.12,17.66-7.69,32.66-7.69,5.92,0,11.55.45,16.89,1.31,5.32.87,9.86,1.93,13.63,3.25v19.69c-4.05-1.59-8.48-2.83-13.31-3.68-4.84-.87-9.35-1.29-13.53-1.29-7.5,0-13.16.63-16.98,1.95-3.82,1.3-5.72,3.89-5.72,7.79s1.98,6.89,5.94,8.54c3.97,1.66,10.36,3.94,19.16,6.81,8.07,2.46,14.49,5.05,19.24,7.8,4.77,2.74,8.19,6.02,10.28,9.84,2.09,3.83,3.13,8.76,3.13,14.82,0,10.09-3.67,17.63-11.04,22.61-7.34,4.97-18.02,7.47-32.01,7.47"/>
      <path class="cls-2" d="M819.09,101.12c.58-.44,1.39-.31,1.82.26l2.63,3.51c.44.58.31,1.39-.26,1.83-.08.06-.17.11-.26.15-.54.24-1.19.08-1.56-.41l-2.63-3.52c-.44-.57-.31-1.38.26-1.82"/>
      <rect class="cls-3" x="721.35" y="52.74" width="1.83" height="130.56"/>
      <g>
        <polygon class="cls-1" points="714.1 220.54 715.36 119.37 730.72 119.37 734.45 226.23 714.1 220.54"/>
        <rect class="cls-1" x="723.18" y="52.74" width="1.82" height="130.56"/>
        <path class="cls-1" d="M716.29,52.9s-53.36-7.58-91.96,50.46l2.18,1.46c4.72-1.73,13.37-4.06,24.85-3.45,14.63.76,30.69,10.61,30.69,10.61,4.48-19.38,8.29-31.97,13.93-40.09,7.76-11.16,22.19-18.99,22.19-18.99h-1.87Z"/>
        <path class="cls-1" d="M730.45,52.9s53.36-7.58,91.96,50.46l-2.18,1.46c-4.72-1.73-13.37-4.06-24.85-3.45-14.63.76-30.69,10.61-30.69,10.61-4.48-19.38-8.29-31.97-13.93-40.09-7.76-11.16-22.19-18.99-22.19-18.99h1.87Z"/>
        <path class="cls-1" d="M745.36,71.73c-7.76-11.16-22.18-18.99-22.18-18.99v.05-.05s-14.44,7.82-22.2,18.99c-5.64,8.12-9.44,20.71-13.92,40.09,0,0,18.24-9,35.85-9.06,17.66.06,36.37,9.05,36.37,9.05-4.48-19.38-8.28-31.96-13.92-40.08"/>
      </g>
      <path class="cls-5" d="M724.36,54.47h0c.66,0,1.18-.48,1.18-1.06,0-.07,0-.14-.02-.21l-1.18-9.62c-.05-.56-.56-.98-1.18-.98v11.88h1.18Z"/>
      <path class="cls-5" d="M721.99,54.47h1.18v-11.88c-.62,0-1.13.43-1.18.98l-1.18,9.74c-.03.3.09.59.31.81.22.22.54.34.87.34"/>
      <path class="cls-4" d="M31.38,63.88c-10.09,0-17.81-2.73-23.16-8.18C2.87,50.26.19,42.83.19,33.43.19,23.47,2.79,15.72,7.99,10.18,13.18,4.63,20.95,1.86,31.28,1.86c3.62,0,6.87.27,9.76.8,2.9.53,5.62,1.26,8.17,2.18v11.02c-5.29-2.17-10.96-3.27-17-3.27-6.85,0-11.76,1.73-14.75,5.14-2.98,3.43-4.48,8.67-4.48,15.69,0,13.21,6.47,19.8,19.42,19.8,2.93,0,5.82-.26,8.68-.8,2.87-.52,5.61-1.31,8.22-2.38v11.11c-2.56.81-5.27,1.46-8.17,1.97-2.9.49-6.15.74-9.76.74"/>
      <path class="cls-4" d="M71.53,63.88c-2.81,0-5.4-.51-7.79-1.54-2.4-1.03-4.34-2.56-5.8-4.57-1.46-2.03-2.18-4.57-2.18-7.62,0-4.35,1.54-7.84,4.62-10.46,3.09-2.61,7.64-3.91,13.68-3.91h13.07v-1.22c0-2.75-.76-4.68-2.28-5.8-1.53-1.12-4.6-1.68-9.2-1.68-5.04,0-9.91.78-14.57,2.33v-8.87c2.06-.81,4.55-1.48,7.52-2.01,2.96-.53,6.17-.79,9.66-.79,6.67,0,11.82,1.36,15.46,4.06,3.65,2.71,5.46,7.05,5.46,13.03v24.91l-10.93,3.2-.65-4.02c-1.75,1.56-3.88,2.78-6.45,3.64-2.56.88-5.75,1.31-9.61,1.31M74.99,55.56c2.81,0,5.22-.46,7.29-1.4,2.06-.93,3.66-2.12,4.85-3.55v-7h-12.79c-4.91,0-7.37,2.02-7.37,6.07s2.68,5.88,8.03,5.88"/>
      <path class="cls-4" d="M124.49,63.88c-3.3,0-6.44-.24-9.43-.71-3-.46-5.39-1.04-7.19-1.73v-10.46c2.18.87,4.63,1.53,7.37,2.01,2.75.47,5.26.69,7.57.69,3.1,0,5.3-.18,6.58-.56,1.27-.38,1.91-1.21,1.91-2.52,0-1.49-.98-2.58-2.94-3.26-1.96-.69-4.88-1.66-8.74-2.91-4.05-1.36-7.17-3.02-9.33-4.95-2.18-1.93-3.28-4.8-3.28-8.59,0-4.24,1.54-7.49,4.63-9.76,3.08-2.28,8.04-3.42,14.89-3.42,2.74,0,5.33.2,7.75.61,2.43.41,4.49.89,6.16,1.45v10.36c-1.67-.81-3.6-1.41-5.78-1.82-2.18-.4-4.2-.6-6.07-.6-2.68,0-4.8.19-6.39.56-1.59.36-2.38,1.18-2.38,2.42,0,1.38.85,2.35,2.56,2.91,1.71.56,4.37,1.41,7.99,2.51,3.55,1.07,6.32,2.22,8.32,3.46,1.99,1.24,3.39,2.72,4.2,4.44.81,1.71,1.21,3.85,1.21,6.39,0,8.97-6.53,13.46-19.61,13.46"/>
      <path class="cls-4" d="M164.93,63.88c-2.81,0-5.41-.51-7.8-1.54-2.4-1.03-4.34-2.56-5.8-4.57-1.46-2.03-2.19-4.57-2.19-7.62,0-4.35,1.54-7.84,4.62-10.46,3.09-2.61,7.64-3.91,13.68-3.91h13.07v-1.22c0-2.75-.75-4.68-2.28-5.8-1.53-1.12-4.6-1.68-9.2-1.68-5.04,0-9.9.78-14.57,2.33v-8.87c2.06-.81,4.55-1.48,7.52-2.01,2.96-.53,6.17-.79,9.66-.79,6.67,0,11.81,1.36,15.45,4.06,3.65,2.71,5.47,7.05,5.47,13.03v25.12l-10.94,2.99-.65-4.02c-1.74,1.56-3.88,2.78-6.45,3.64-2.55.88-5.75,1.31-9.61,1.31M168.37,55.56c2.81,0,5.23-.46,7.29-1.4,2.06-.93,3.67-2.12,4.85-3.55v-7h-12.79c-4.91,0-7.37,2.02-7.37,6.07s2.68,5.88,8.03,5.88"/>
      <path class="cls-4" d="M240.84,63.88c-3.92,0-7.42-.71-10.51-2.1-3.08-1.41-5.5-3.71-7.24-6.92-1.75-3.2-2.61-7.46-2.61-12.74s.96-9.75,2.89-13.36c1.93-3.61,4.51-6.35,7.75-8.21,3.23-1.88,6.78-2.81,10.64-2.81,4.86,0,9,1.11,12.43,3.36V0h12.6v62.94h-10.84l-.75-4.11c-1.92,1.68-4.03,2.95-6.3,3.78-2.27.84-4.96,1.27-8.07,1.27M244.3,54.63c3.92,0,7.22-1.33,9.91-4.02v-20.18c-2.62-2.29-5.67-3.45-9.16-3.45-7.84,0-11.76,5.04-11.76,15.13,0,4.73.96,7.99,2.88,9.8,1.93,1.81,4.65,2.71,8.13,2.71"/>
      <path class="cls-4" d="M299.11,63.87c-7.66,0-13.72-1.91-18.2-5.74-4.49-3.83-6.73-9.63-6.73-17.41,0-7.04,1.88-12.63,5.65-16.77,3.76-4.14,9.38-6.21,16.85-6.21,6.85,0,12.09,1.79,15.74,5.37,3.63,3.58,5.46,8.27,5.46,14.06v8.04h-32.03c.69,3.55,2.32,5.97,4.9,7.27,2.58,1.31,6.24,1.97,10.97,1.97,2.36,0,4.78-.21,7.23-.66,1.18-.21,1.61-.23,2.01-.4l5.32,7.32c-2.06.93-5.47,2.01-8.22,2.47-2.74.46-5.72.69-8.97.69M285.86,37.45h21.01v-2.43c0-2.55-.74-4.55-2.24-6.03-1.49-1.46-4.01-2.18-7.57-2.18-4.17,0-7.08.84-8.73,2.51-1.65,1.69-2.47,4.4-2.47,8.14"/>
      <path class="cls-4" d="M358.6,63.88c-4.3,0-7.42-1.01-9.38-2.98-1.97-2-2.96-5.18-2.96-9.54V2.73l12.61-2.73v50.34c0,1.55.31,2.63.94,3.22.62.6,1.53.89,2.71.89,1.61,0,3.08-.23,4.38-.66v8.69c-2.37.93-5.13,1.4-8.31,1.4"/>
      <path class="cls-4" d="M387.56,63.88c-2.81,0-5.4-.51-7.8-1.54-2.4-1.03-4.33-2.56-5.8-4.57-1.46-2.03-2.19-4.57-2.19-7.62,0-4.35,1.54-7.84,4.63-10.46,3.08-2.61,7.63-3.91,13.68-3.91h13.08v-1.22c0-2.75-.76-4.68-2.28-5.8-1.53-1.12-4.6-1.68-9.2-1.68-5.04,0-9.9.78-14.57,2.33v-8.87c2.06-.81,4.55-1.48,7.52-2.01,2.96-.53,6.17-.79,9.66-.79,6.67,0,11.81,1.36,15.46,4.06,3.64,2.71,5.46,7.05,5.46,13.03v25.73l-10.94,2.38-.65-4.02c-1.74,1.56-3.88,2.78-6.45,3.64-2.55.88-5.75,1.31-9.61,1.31M391.01,55.56c2.81,0,5.23-.46,7.29-1.4,2.06-.93,3.67-2.12,4.85-3.55v-7h-12.8c-4.91,0-7.37,2.02-7.37,6.07s2.67,5.88,8.02,5.88"/>
      <path class="cls-4" d="M440.5,63.88c-3.3,0-6.44-.24-9.43-.71-2.99-.46-5.39-1.04-7.19-1.73v-10.46c2.18.87,4.64,1.53,7.37,2.01,2.75.47,5.27.69,7.57.69,3.11,0,5.31-.18,6.58-.56,1.27-.38,1.91-1.21,1.91-2.52,0-1.49-.99-2.58-2.94-3.26-1.96-.69-4.88-1.66-8.73-2.91-4.05-1.36-7.17-3.02-9.34-4.95-2.18-1.93-3.27-4.8-3.27-8.59,0-4.24,1.53-7.49,4.62-9.76,3.08-2.28,8.05-3.42,14.9-3.42,2.73,0,5.32.2,7.75.61,2.43.41,4.48.89,6.16,1.45v10.36c-1.68-.81-3.61-1.41-5.78-1.82-2.18-.4-4.21-.6-6.08-.6-2.67,0-4.8.19-6.39.56-1.58.36-2.38,1.18-2.38,2.42,0,1.38.85,2.35,2.56,2.91,1.71.56,4.38,1.41,7.99,2.51,3.55,1.07,6.32,2.22,8.32,3.46,2,1.24,3.39,2.72,4.2,4.44.81,1.71,1.21,3.85,1.21,6.39,0,8.97-6.53,13.46-19.61,13.46"/>
      <path class="cls-4" d="M234.06,226.24c-10.96,0-19.14-2.92-24.55-8.77-5.41-5.83-8.11-13.79-8.11-23.89v-55.82h-15.15v-18.4h15.15v-26.45l23.35-5.79v32.23h27.27l-1.51,18.4h-25.76v54.51c0,5.91,1.38,10.06,4.12,12.43,2.73,2.38,7.21,3.56,13.41,3.56,3.89,0,8.01-.7,12.33-2.14v16.66c-5.63,2.3-12.48,3.45-20.56,3.45"/>
    </g>
  </g>
</svg>