<?xml version="1.0" encoding="UTF-8"?>
<svg id="Capa_2" data-name="Capa 2" xmlns="http://www.w3.org/2000/svg" viewBox="0 0 556.96 260.74">
  <defs>
    <style>
      .cls-1 {
        fill: #fff;
      }
    </style>
  </defs>
  <g id="Capa_1-2" data-name="Capa 1">
    <g>
      <path class="cls-1" d="M213.19,95.09c26.26,0,47.54-21.28,47.54-47.55S239.45,0,213.19,0s-47.55,21.29-47.55,47.54c0,26.26,21.29,47.55,47.55,47.55ZM213.19,10.59c20.4,0,36.95,16.54,36.95,36.95s-16.55,36.95-36.95,36.95-36.95-16.54-36.95-36.95,16.54-36.95,36.95-36.95Z"/>
      <path class="cls-1" d="M93.98,130.37c0-20.09,16.28-36.38,36.38-36.38v-10.39c-25.85,0-46.81,20.91-46.81,46.77s20.96,46.81,46.82,46.81,46.76-20.95,46.76-46.81h-10.31c0,20.09-16.36,36.38-36.45,36.38s-36.38-16.29-36.38-36.38Z"/>
      <path class="cls-1" d="M62.82,130.37c0,37.31,30.24,67.55,67.54,67.55s67.62-30.24,67.62-67.55h-10.35c0,31.58-25.7,57.17-57.27,57.17s-57.17-25.6-57.17-57.17,25.6-57.16,57.17-57.16v-10.38c-37.31,0-67.55,30.24-67.55,67.54Z"/>
      <path class="cls-1" d="M41.85,130.37c0,48.88,39.63,88.51,88.51,88.51s88.41-39.62,88.41-88.5h-10.42c0,43.04-34.96,77.92-77.98,77.92s-77.92-34.88-77.92-77.92,34.88-77.92,77.92-77.92v-10.49c-48.88,0-88.51,39.52-88.51,88.41Z"/>
      <path class="cls-1" d="M130.37,20.87c-60.48,0-109.5,49.02-109.5,109.5s49.03,109.51,109.5,109.51,109.43-49.02,109.43-109.5h-10.41c0,54.64-44.37,98.94-99.02,98.94S31.42,185.02,31.42,130.37,75.72,31.42,130.37,31.42v-10.56h0Z"/>
      <path class="cls-1" d="M130.37,250.35c-66.27,0-119.99-53.72-119.99-119.98S64.1,10.39,130.37,10.39V0C58.36,0,0,58.37,0,130.37s58.37,130.37,130.37,130.37,130.37-58.36,130.37-130.36h-10.31c0,66.25-53.79,119.97-120.05,119.97Z"/>
      <path class="cls-1" d="M321.75,113.85c5.2,0,11.61-1.16,15.1-2.8v-28.24h-17.77v8.88h7.06v12.68c-1.24.22-3.11.31-4.66.31-7.87,0-13.97-4.16-13.97-17.5s6.16-17.3,15.33-17.3c3.83,0,8.88.82,12.09,2.12l1.09-8.96c-3.55-1.44-9.35-2.32-13.8-2.32-15.81,0-26,8.27-26,26.61,0,17.92,9.44,26.53,25.52,26.53Z"/>
      <polygon class="cls-1" points="500.9 112.82 511.91 112.82 511.91 61.53 500.9 61.53 500.9 81.78 484.41 81.78 484.41 61.53 473.4 61.53 473.4 112.82 484.41 112.82 484.41 90.93 500.9 90.93 500.9 112.82"/>
      <polygon class="cls-1" points="456.06 112.82 456.06 70.76 467.2 70.76 467.2 61.53 433.77 61.53 433.77 70.76 444.91 70.76 444.91 112.82 456.06 112.82"/>
      <polygon class="cls-1" points="407.85 90.99 425.96 90.99 425.96 81.94 407.85 81.94 407.85 70.68 429.18 70.68 429.18 61.53 396.84 61.53 396.84 112.82 429.9 112.82 429.9 103.67 407.85 103.67 407.85 90.99"/>
      <path class="cls-1" d="M366.64,114.33c14.57,0,21.61-7.83,21.61-27.19s-7.04-27.12-21.61-27.12-21.6,8.17-21.6,27.12,7.31,27.19,21.6,27.19ZM366.64,69.15c6.98,0,10.33,4.37,10.33,17.99s-3.35,18.12-10.26,18.12-10.4-4.51-10.4-18.12c0-13.55,3.42-17.99,10.33-17.99Z"/>
      <polygon class="cls-1" points="555.87 103.67 533.82 103.67 533.82 90.99 551.93 90.99 551.93 81.94 533.82 81.94 533.82 70.68 555.15 70.68 555.15 61.53 522.81 61.53 522.81 112.82 555.87 112.82 555.87 103.67"/>
      <polygon class="cls-1" points="395.35 139.34 405.55 139.34 405.55 179.93 416.3 179.93 416.3 139.34 426.51 139.34 426.51 130.42 395.35 130.42 395.35 139.34"/>
      <rect class="cls-1" x="299.92" y="130.43" width="10.86" height="49.5"/>
      <path class="cls-1" d="M510.14,162.71c0,5.74-1.97,8.92-7.32,8.92s-7.4-3.24-7.4-8.92v-32.28h-10.77v32.68c0,11.88,6.12,17.69,18.13,17.69s18-5.81,18-17.69v-32.68h-10.65v32.28Z"/>
      <path class="cls-1" d="M374.58,143.62c0-2.56,1.32-5.1,6.7-5.1,3.37,0,6.37.9,9.37,2.21l1.19-8.65c-3.43-1.58-6.99-2.44-11.48-2.44-11.42,0-16.35,6.6-16.35,14.98,0,15.93,19.68,12.88,19.68,21.73,0,3.4-2.14,5.68-6.64,5.68s-8.18-1.5-11.86-3.57l-1.39,8.84c3.82,2.24,8.56,3.5,13.71,3.5,10.7,0,16.75-5.94,16.75-15.64,0-16.45-19.69-13.88-19.69-21.53Z"/>
      <polygon class="cls-1" points="346.64 159.33 331.42 130.43 321.59 130.43 321.59 179.93 331.42 179.93 331.42 151.03 346.64 179.93 356.46 179.93 356.46 130.43 346.64 130.43 346.64 159.33"/>
      <polygon class="cls-1" points="525.81 130.42 525.81 139.34 536.01 139.34 536.01 179.93 546.76 179.93 546.76 139.34 556.96 139.34 556.96 130.42 525.81 130.42"/>
      <rect class="cls-1" x="432" y="130.43" width="10.86" height="49.5"/>
      <polygon class="cls-1" points="448.37 139.34 458.57 139.34 458.57 179.93 469.33 179.93 469.33 139.34 479.53 139.34 479.53 130.42 448.37 130.42 448.37 139.34"/>
    </g>
  </g>
</svg>