<?xml version="1.0" encoding="UTF-8"?>
<svg id="Capa_2" data-name="Capa 2" xmlns="http://www.w3.org/2000/svg" viewBox="0 0 1124.46 155.19">
  <defs>
    <style>
      .cls-1 {
        fill: #fff;
      }
    </style>
  </defs>
  <g id="Capa_1-2" data-name="Capa 1">
    <g>
      <path class="cls-1" d="M462.24,149.47l-4.35-6.63-1.33.06h-5.51v6.57h-2.37v-20.72h7.87c5.18,0,8.17,2.55,8.17,6.96,0,3.4-1.69,5.74-4.68,6.69l4.88,7.07h-2.69ZM456.56,140.71c3.76,0,5.89-1.69,5.89-4.94s-2.13-4.83-5.89-4.83h-5.51v9.77h5.51Z"/>
      <path class="cls-1" d="M486.16,142.55h-12.73c.39,3.08,2.6,5.09,5.66,5.09,1.92,0,3.61-.71,4.82-1.98l1.27,1.33c-1.48,1.63-3.67,2.58-6.28,2.58-4.59,0-7.76-3.23-7.76-7.88s3.2-7.84,7.73-7.87c5.03,0,7.52,3.46,7.28,8.74ZM484.09,140.71c-.15-3.02-2.16-4.97-5.21-4.97s-5.12,1.95-5.45,4.97h10.66Z"/>
      <path class="cls-1" d="M502.77,149.47v-2.43c-1.24,1.69-3.23,2.52-5.71,2.52-3.23,0-5.3-2.04-5.3-4.71s2.16-4.44,5.83-4.47h5.12v-.98c0-2.28-1.42-3.67-4.17-3.67-1.72,0-3.31.65-4.95,1.81l-.98-1.63c2.01-1.33,3.7-2.1,6.37-2.1,3.85,0,5.98,2.04,6.01,5.36l.03,10.3h-2.25ZM502.74,144.12v-1.9h-4.86c-2.6,0-3.97.8-3.97,2.55s1.39,2.87,3.58,2.87c2.64,0,4.65-1.3,5.24-3.52Z"/>
      <path class="cls-1" d="M519.37,135.89c-3.23,0-5.54,2.37-5.54,5.8s2.31,5.83,5.54,5.83c2.04,0,3.73-.71,4.83-2.01l1.33,1.36c-1.39,1.69-3.55,2.69-6.25,2.69-4.53,0-7.73-3.23-7.73-7.88s3.23-7.87,7.73-7.87c2.52,0,4.59.86,6.01,2.31l-1.27,1.6c-1.18-1.15-2.75-1.83-4.65-1.83Z"/>
      <path class="cls-1" d="M540.6,133.81v2.25c-3.29-.06-5.33,1.98-5.59,5.12v8.29h-2.31v-15.57h2.31v3.46c1.04-2.28,2.96-3.52,5.59-3.55Z"/>
      <path class="cls-1" d="M560.11,142.55h-12.73c.39,3.08,2.6,5.09,5.66,5.09,1.92,0,3.61-.71,4.82-1.98l1.27,1.33c-1.48,1.63-3.67,2.58-6.28,2.58-4.59,0-7.76-3.23-7.76-7.88s3.2-7.84,7.73-7.87c5.03,0,7.52,3.46,7.28,8.74ZM558.03,140.71c-.15-3.02-2.16-4.97-5.21-4.97s-5.12,1.95-5.45,4.97h10.66Z"/>
      <path class="cls-1" d="M581.36,127.51v21.97h-2.31v-3.35c-1.16,2.19-3.29,3.46-6.07,3.46-4.44,0-7.52-3.29-7.52-7.93s3.08-7.87,7.49-7.87c2.78,0,4.94,1.27,6.1,3.49v-9.77h2.31ZM579.05,141.72c0-3.44-2.34-5.92-5.63-5.92s-5.66,2.49-5.66,5.92,2.34,5.89,5.66,5.89,5.63-2.46,5.63-5.89Z"/>
      <path class="cls-1" d="M592.73,129.43c0,.89-.65,1.57-1.51,1.57s-1.51-.68-1.51-1.57.65-1.57,1.51-1.57,1.51.65,1.51,1.57ZM592.37,133.9v15.57h-2.28v-15.57h2.28Z"/>
      <path class="cls-1" d="M609.01,148.41c-1.1.74-2.28,1.15-3.52,1.15-2.28.03-3.97-1.33-3.97-4.41v-8.97h-2.25v-1.81h2.25v-4.09h2.28v4.09h4.94v1.81h-4.94v8.58c0,1.9.74,2.67,2.07,2.67.8-.03,1.63-.3,2.49-.8l.65,1.78Z"/>
      <path class="cls-1" d="M625.14,149.47v-2.43c-1.24,1.69-3.23,2.52-5.71,2.52-3.23,0-5.3-2.04-5.3-4.71s2.16-4.44,5.83-4.47h5.12v-.98c0-2.28-1.42-3.67-4.17-3.67-1.72,0-3.32.65-4.95,1.81l-.98-1.63c2.01-1.33,3.7-2.1,6.37-2.1,3.85,0,5.98,2.04,6.01,5.36l.03,10.3h-2.25ZM625.11,144.12v-1.9h-4.86c-2.6,0-3.97.8-3.97,2.55s1.39,2.87,3.58,2.87c2.64,0,4.65-1.3,5.24-3.52Z"/>
      <path class="cls-1" d="M649.83,127.51v21.97h-2.31v-3.35c-1.16,2.19-3.29,3.46-6.07,3.46-4.44,0-7.52-3.29-7.52-7.93s3.08-7.87,7.49-7.87c2.78,0,4.94,1.27,6.1,3.49v-9.77h2.31ZM647.52,141.72c0-3.44-2.34-5.92-5.63-5.92s-5.66,2.49-5.66,5.92,2.34,5.89,5.66,5.89,5.63-2.46,5.63-5.89Z"/>
      <path class="cls-1" d="M668.24,149.47v-2.43c-1.24,1.69-3.23,2.52-5.71,2.52-3.23,0-5.3-2.04-5.3-4.71s2.16-4.44,5.83-4.47h5.12v-.98c0-2.28-1.42-3.67-4.17-3.67-1.72,0-3.31.65-4.94,1.81l-.98-1.63c2.01-1.33,3.7-2.1,6.37-2.1,3.85,0,5.98,2.04,6.01,5.36l.03,10.3h-2.25ZM668.21,144.12v-1.9h-4.86c-2.6,0-3.97.8-3.97,2.55s1.39,2.87,3.58,2.87c2.64,0,4.65-1.3,5.24-3.52Z"/>
      <path class="cls-1" d="M703.88,142.55h-12.73c.39,3.08,2.6,5.09,5.66,5.09,1.92,0,3.61-.71,4.82-1.98l1.27,1.33c-1.48,1.63-3.67,2.58-6.28,2.58-4.59,0-7.76-3.23-7.76-7.88s3.2-7.84,7.73-7.87c5.03,0,7.52,3.46,7.28,8.74ZM701.81,140.71c-.15-3.02-2.16-4.97-5.21-4.97s-5.12,1.95-5.45,4.97h10.66Z"/>
      <path class="cls-1" d="M725.08,139.88v9.59h-2.31v-9c0-2.78-1.66-4.44-4.41-4.44-3.08.03-4.97,2.07-5.24,5.09v8.35h-2.31v-15.57h2.31v3.43c1.1-2.37,3.2-3.49,6.04-3.52,3.73,0,5.92,2.28,5.92,6.07Z"/>
      <path class="cls-1" d="M758.44,144.17h-11.28l-2.31,5.3h-2.52l9.3-20.72h2.46l9.27,20.72h-2.58l-2.34-5.3ZM757.49,141.98l-4.71-10.66-4.65,10.66h9.36Z"/>
      <rect class="cls-1" x="769.39" y="127.51" width="2.31" height="21.97"/>
      <path class="cls-1" d="M788.48,148.41c-1.1.74-2.28,1.15-3.52,1.15-2.28.03-3.97-1.33-3.97-4.41v-8.97h-2.25v-1.81h2.25v-4.09h2.28v4.09h4.94v1.81h-4.94v8.58c0,1.9.74,2.67,2.07,2.67.8-.03,1.63-.3,2.49-.8l.65,1.78Z"/>
      <path class="cls-1" d="M804.62,149.47v-2.43c-1.24,1.69-3.23,2.52-5.71,2.52-3.23,0-5.3-2.04-5.3-4.71s2.16-4.44,5.83-4.47h5.12v-.98c0-2.28-1.42-3.67-4.17-3.67-1.72,0-3.31.65-4.94,1.81l-.98-1.63c2.01-1.33,3.7-2.1,6.37-2.1,3.85,0,5.98,2.04,6.01,5.36l.03,10.3h-2.25ZM804.59,144.12v-1.9h-4.86c-2.6,0-3.97.8-3.97,2.55s1.39,2.87,3.58,2.87c2.64,0,4.65-1.3,5.24-3.52Z"/>
      <path class="cls-1" d="M836.03,130.85c-4.68,0-8.44,3.64-8.44,8.23s3.76,8.26,8.44,8.26c2.28,0,4.5-.95,6.13-2.49l1.45,1.57c-2.04,1.93-4.83,3.14-7.7,3.14-5.98,0-10.72-4.62-10.72-10.48s4.8-10.39,10.81-10.39c2.84,0,5.59,1.16,7.58,3.02l-1.42,1.72c-1.6-1.6-3.85-2.58-6.13-2.58Z"/>
      <path class="cls-1" d="M860.18,149.47v-2.43c-1.24,1.69-3.23,2.52-5.71,2.52-3.23,0-5.3-2.04-5.3-4.71s2.16-4.44,5.83-4.47h5.12v-.98c0-2.28-1.42-3.67-4.17-3.67-1.72,0-3.31.65-4.94,1.81l-.98-1.63c2.01-1.33,3.7-2.1,6.37-2.1,3.85,0,5.98,2.04,6.01,5.36l.03,10.3h-2.25ZM860.15,144.12v-1.9h-4.86c-2.6,0-3.97.8-3.97,2.55s1.39,2.87,3.58,2.87c2.64,0,4.65-1.3,5.24-3.52Z"/>
      <rect class="cls-1" x="870.69" y="127.51" width="2.31" height="21.97"/>
      <path class="cls-1" d="M884.36,129.43c0,.89-.65,1.57-1.51,1.57s-1.51-.68-1.51-1.57.65-1.57,1.51-1.57,1.51.65,1.51,1.57ZM884.01,133.9v15.57h-2.28v-15.57h2.28Z"/>
      <path class="cls-1" d="M906.92,127.51v21.97h-2.31v-3.35c-1.16,2.19-3.29,3.46-6.07,3.46-4.44,0-7.52-3.29-7.52-7.93s3.08-7.87,7.49-7.87c2.78,0,4.94,1.27,6.1,3.49v-9.77h2.31ZM904.61,141.72c0-3.44-2.34-5.92-5.63-5.92s-5.66,2.49-5.66,5.92,2.34,5.89,5.66,5.89,5.63-2.46,5.63-5.89Z"/>
      <path class="cls-1" d="M925.33,149.47v-2.43c-1.24,1.69-3.23,2.52-5.71,2.52-3.23,0-5.3-2.04-5.3-4.71s2.16-4.44,5.83-4.47h5.12v-.98c0-2.28-1.42-3.67-4.17-3.67-1.72,0-3.31.65-4.94,1.81l-.98-1.63c2.01-1.33,3.7-2.1,6.37-2.1,3.85,0,5.98,2.04,6.01,5.36l.03,10.3h-2.25ZM925.3,144.12v-1.9h-4.86c-2.6,0-3.97.8-3.97,2.55s1.39,2.87,3.58,2.87c2.64,0,4.65-1.3,5.24-3.52Z"/>
      <path class="cls-1" d="M950.02,127.51v21.97h-2.31v-3.35c-1.16,2.19-3.29,3.46-6.07,3.46-4.44,0-7.52-3.29-7.52-7.93s3.08-7.87,7.49-7.87c2.78,0,4.94,1.27,6.1,3.49v-9.77h2.31ZM947.71,141.72c0-3.44-2.34-5.92-5.63-5.92s-5.66,2.49-5.66,5.92,2.34,5.89,5.66,5.89,5.63-2.46,5.63-5.89Z"/>
      <path class="cls-1" d="M471.08,96.92c6.38,0,10.79-4.44,10.79-11.79v-32.88h14.42v32.88c0,14.95-9.77,24.4-25.29,24.4s-25.61-9.45-25.61-24.4v-32.88h14.42v32.88c0,7.27,4.73,11.79,11.27,11.79Z"/>
      <path class="cls-1" d="M549.65,81.33v27.55h-13.94v-23.43c0-4.93-2.84-8-7.25-8-4.73.08-7.8,3.39-8.35,8.32v23.11h-14.02v-43.71h14.02v7.11c2.99-5.01,7.88-7.67,14.1-7.67,9.3,0,15.44,6.46,15.44,16.72Z"/>
      <path class="cls-1" d="M573.14,65.17v43.71h-13.94v-43.71h13.94ZM572.59,52.89c0,3.8-2.68,6.54-6.38,6.54s-6.38-2.75-6.38-6.54,2.68-6.63,6.38-6.63,6.38,2.75,6.38,6.63Z"/>
      <polygon class="cls-1" points="592.53 65.17 601.43 95.55 610.41 65.17 624.43 65.17 608.44 108.88 594.02 108.88 578.11 65.17 592.53 65.17"/>
      <path class="cls-1" d="M668.09,90.86h-29.62c1.34,4.93,4.88,7.67,9.69,7.67,3.62,0,7.17-1.53,10-4.44l7.33,7.51c-4.33,5.01-10.71,7.76-18.59,7.76-13.95,0-22.53-8.81-22.53-22.14s8.9-22.54,22.22-22.54c14.89,0,22.46,10.26,21.51,26.18ZM654.54,83.19c0-5.01-3.15-8.4-7.88-8.4s-7.56,3.39-8.51,8.4h16.39Z"/>
      <path class="cls-1" d="M703.09,64.6v13.17c-7.8-.81-13,2.75-13.71,8.81v22.3h-14.02v-43.71h14.02v7.27c2.92-5.01,7.72-7.84,13.71-7.84Z"/>
      <path class="cls-1" d="M724.13,74.54c-2.37,0-4.02.89-4.02,2.75,0,5.74,22.38,2.99,22.3,18.18,0,8.97-7.64,14.06-18.04,14.06-7.17,0-14.02-2.1-19.22-6.22l4.41-9.29c4.88,3.47,10.4,5.41,15.13,5.41,2.6,0,4.49-.89,4.49-2.67,0-5.98-21.98-2.99-21.98-18.1,0-9.13,7.49-14.14,17.49-14.14,6.15,0,12.37,1.78,17.73,5.09l-4.73,9.37c-5.28-2.83-10.08-4.44-13.55-4.44Z"/>
      <path class="cls-1" d="M763.93,65.17v43.71h-13.95v-43.71h13.95ZM763.38,52.89c0,3.8-2.68,6.54-6.38,6.54s-6.38-2.75-6.38-6.54,2.68-6.63,6.38-6.63,6.38,2.75,6.38,6.63Z"/>
      <path class="cls-1" d="M802.38,106.62c-3.07,1.86-7.33,2.91-11.5,2.91-8.27.08-14.26-4.93-14.26-13.98v-18.74h-5.91v-9.53h5.91v-12.12h13.94v12.12h11.03v9.53h-11.03v16.48c0,3.23,1.42,4.69,3.86,4.61,1.42,0,3.23-.57,5.28-1.45l2.68,10.18Z"/>
      <path class="cls-1" d="M846.98,80.44v28.44h-13.79v-4.93c-2.76,3.63-7.09,5.57-12.84,5.57-9.14,0-14.58-5.66-14.58-13.65s5.75-13.09,16.31-13.25h11.11v-.48c0-4.12-2.76-6.54-8.11-6.54-3.55,0-8.19,1.21-12.77,3.47l-3.86-9.7c6.7-3.07,12.84-4.77,19.85-4.77,11.74,0,18.59,5.82,18.67,15.83ZM833.2,94.09v-3.8h-8.35c-3.94,0-5.91,1.45-5.91,4.53s2.13,4.93,5.75,4.93c4.18,0,7.64-2.34,8.51-5.66Z"/>
      <path class="cls-1" d="M884.18,64.6v13.17c-7.8-.81-13,2.75-13.71,8.81v22.3h-14.02v-43.71h14.02v7.27c2.92-5.01,7.72-7.84,13.71-7.84Z"/>
      <path class="cls-1" d="M904.28,65.17v43.71h-13.94v-43.71h13.94ZM903.73,52.89c0,3.8-2.68,6.54-6.38,6.54s-6.38-2.75-6.38-6.54,2.68-6.63,6.38-6.63,6.38,2.75,6.38,6.63Z"/>
      <path class="cls-1" d="M952.9,80.44v28.44h-13.79v-4.93c-2.76,3.63-7.09,5.57-12.84,5.57-9.14,0-14.57-5.66-14.57-13.65s5.75-13.09,16.31-13.25h11.11v-.48c0-4.12-2.76-6.54-8.12-6.54-3.54,0-8.19,1.21-12.76,3.47l-3.86-9.7c6.7-3.07,12.84-4.77,19.85-4.77,11.74,0,18.59,5.82,18.67,15.83ZM939.11,94.09v-3.8h-8.35c-3.94,0-5.91,1.45-5.91,4.53s2.13,4.93,5.75,4.93c4.17,0,7.64-2.34,8.51-5.66Z"/>
      <rect class="cls-1" x="449.05" y="6.11" width="3.64" height="31.83"/>
      <path class="cls-1" d="M511.02,23.21v14.73h-3.55v-13.82c0-4.27-2.55-6.82-6.78-6.82-4.73.05-7.64,3.18-8.05,7.82v12.82h-3.55V14.03h3.55v5.27c1.68-3.64,4.91-5.37,9.28-5.41,5.73,0,9.09,3.5,9.09,9.32Z"/>
      <path class="cls-1" d="M552.34,16.84c-2.68,0-4.73.95-4.73,3.23,0,5.41,13.37,2.64,13.37,11.23,0,4.68-4.18,6.78-8.78,6.78-3.41,0-6.91-1.18-9.19-3.37l1.37-2.59c2.04,1.91,5.14,3.05,7.96,3.05s5.09-1.09,5.14-3.5c.14-5.82-13.28-2.86-13.23-11.32,0-4.55,3.96-6.5,8.32-6.5,2.87,0,5.64.86,7.64,2.18l-1.36,2.73c-1.86-1.18-4.27-1.91-6.5-1.91Z"/>
      <path class="cls-1" d="M606.45,36.31c-1.68,1.14-3.5,1.77-5.41,1.77-3.5.05-6.09-2.05-6.09-6.78v-13.78h-3.46v-2.77h3.46v-6.28h3.5v6.28h7.59v2.77h-7.59v13.19c0,2.91,1.14,4.09,3.18,4.09,1.23-.05,2.5-.46,3.82-1.23l1,2.73Z"/>
      <path class="cls-1" d="M643.14,7.16c0,1.36-1,2.41-2.32,2.41s-2.32-1.05-2.32-2.41,1-2.41,2.32-2.41,2.32,1,2.32,2.41ZM642.59,14.03v23.92h-3.5V14.03h3.5Z"/>
      <path class="cls-1" d="M690.88,36.31c-1.68,1.14-3.5,1.77-5.41,1.77-3.5.05-6.09-2.05-6.09-6.78v-13.78h-3.46v-2.77h3.46v-6.28h3.5v6.28h7.59v2.77h-7.59v13.19c0,2.91,1.14,4.09,3.18,4.09,1.23-.05,2.5-.46,3.82-1.23l1,2.73Z"/>
      <path class="cls-1" d="M744.3,14.03v23.92h-3.55v-5.41c-1.59,3.73-4.78,5.5-9.09,5.55-5.59,0-8.96-3.55-8.96-9.32v-14.73h3.55v13.82c0,4.27,2.5,6.82,6.64,6.82,4.96-.09,7.87-3.73,7.87-8.91v-11.73h3.55Z"/>
      <path class="cls-1" d="M789.81,17.07c-4.96,0-8.5,3.64-8.5,8.91s3.55,8.96,8.5,8.96c3.14,0,5.73-1.09,7.41-3.09l2.05,2.09c-2.14,2.59-5.46,4.14-9.59,4.14-6.96,0-11.87-4.96-11.87-12.1s4.96-12.09,11.87-12.09c3.86,0,7.05,1.32,9.23,3.55l-1.95,2.45c-1.82-1.77-4.23-2.82-7.14-2.82Z"/>
      <path class="cls-1" d="M837.05,7.16c0,1.36-1,2.41-2.32,2.41s-2.32-1.05-2.32-2.41,1-2.41,2.32-2.41,2.32,1,2.32,2.41ZM836.51,14.03v23.92h-3.5V14.03h3.5Z"/>
      <path class="cls-1" d="M894.3,25.94c0,7.14-5.05,12.14-12.14,12.14s-12.14-5-12.14-12.14,5-12.05,12.14-12.05,12.14,4.96,12.14,12.05ZM873.56,25.98c0,5.37,3.55,9,8.59,9s8.59-3.64,8.59-9-3.59-8.96-8.59-8.96-8.59,3.68-8.59,8.96ZM888.79,5.48l-5.64,4.5h-3.41l5.46-6.14,3.59,1.64Z"/>
      <path class="cls-1" d="M949.72,23.21v14.73h-3.55v-13.82c0-4.27-2.55-6.82-6.78-6.82-4.73.05-7.64,3.18-8.05,7.82v12.82h-3.55V14.03h3.55v5.27c1.68-3.64,4.91-5.37,9.28-5.41,5.73,0,9.09,3.5,9.09,9.32Z"/>
      <path class="cls-1" d="M359.61,33.71c-.46-20.38-24.87-27.76-42.57-31.11-44.35-6.25-91.61-.41-136.85,10.37-11,2.81-22.21,5.85-33.23,9.28,1.97-2.12,3.54-4.52,4.53-7.03C154.61,6.71,149.91,0,141.39,0c-.67,0-1.12,0-1.79,0-8.07.68-16.8,7.18-19.93,15.24-3.13,8.29,1.35,15.01,10.09,15,3.36,0,6.72-.9,9.86-2.47,2.63-1.32,5.05-3.13,7.07-5.23,11.78-1.07,23.78-1.5,36.2-1.29,39.6-.02,75.33,5.23,102.35,13.84h-.02s-14.33,20.61-14.33,20.61c-3.36,4.7-6.71,9.63-8.94,13.67-2.24,3.81-4.71,7.62-6.49,11.2h-.45c1.35-5.6,2.46-12.99,3.13-21.5.44-1.57.22-2.46.44-3.14l1.55-20.83-32.25-.21-28.87,52.2-17.68,31.59,17.7.21h12.76s16.78-33.17,16.78-33.17c.9-2.46,2.69-5.37,3.58-7.84.89-2.02,2.24-4.7,3.12-7.39-.44,2.24-.89,5.15-1.11,7.84-.67,2.47-.66,5.61-.89,8.52l-2.45,32.03,18.81.22,22.16-32.26c1.79-2.69,4.03-5.83,5.82-8.74,1.34-2.47,3.14-5.38,4.25-7.4-.89,2.47-1.11,5.38-2.01,7.84-.9,2.02-1.56,4.93-2.69,7.39l-8.27,33.15,30.69-.02,15.2-71.2c11.84,7.1,19.31,15.23,21.11,23.92,10.3-8.74,18.8-18.82,22.61-29.8.66-2.69,1.11-5.15,1.1-7.39v-.9Z"/>
      <path class="cls-1" d="M175.64,134.1c-56.06.03-104.37-10.55-130.86-26.31h6.85s3.8-10.31,3.8-10.31h-10.75s-3.07,8.33-3.07,8.33c-10.07-6.61-16.4-14.04-18.03-21.94-10.24,8.69-18.69,18.71-22.47,29.62C.44,116.16,0,118.61,0,120.83v.89c.45,20.26,24.72,27.59,42.31,30.92,44.08,6.21,91.04.4,136.01-10.3,11.34-2.9,22.93-6.02,34.28-9.59-12.02,1.13-24.27,1.57-36.95,1.36Z"/>
      <polygon class="cls-1" points="89.46 66.33 93.26 55.57 85.87 55.58 82.51 55.58 78.49 66.11 85.87 66.11 89.46 66.33"/>
      <polygon class="cls-1" points="135.4 118.72 139.66 118.72 167.2 118.7 188.45 62.25 198.99 62.24 206.15 62.24 216.45 34.91 198.97 34.92 149.7 34.71 139.63 60.93 139.18 62.05 139.63 62.05 156.87 62.26 139.65 107.29 135.4 118.72"/>
      <polygon class="cls-1" points="74.01 77.53 74.46 76.41 74.01 76.41 63.48 76.42 59.68 86.95 70.43 87.16 74.01 77.53"/>
      <polygon class="cls-1" points="73.8 108 74.03 108 84.55 107.99 80.53 118.52 85.9 118.52 110.76 118.5 112.1 118.5 139.62 45.92 143.87 34.72 139.62 34.72 112.28 34.51 110.72 38.77 104.24 55.79 110.73 55.79 115.43 55.79 111.18 66.09 110.74 66.09 100.43 66.1 96.41 76.4 85.88 76.41 85.65 76.41 81.63 87.16 85.88 87.16 92.38 87.15 88.35 97.46 85.89 97.46 77.83 97.24 74.02 107.1 73.8 108"/>
      <rect class="cls-1" x="403.81" y="5.2" width="3.69" height="143.8"/>
      <rect class="cls-1" x="986.99" y="6.56" width="3.69" height="145.37"/>
      <path class="cls-1" d="M1041.54,140.1h-19.86l-4.37,9.66h-2.23l15.39-33.95h2.19l15.54,33.95h-2.23l-4.42-9.66ZM1040.62,138.06l-9.08-19.91-8.98,19.91h18.07Z"/>
      <path class="cls-1" d="M1073.39,134.32v15.44h-2.04v-15.05c0-5.2-3.06-8.25-8.26-8.25-5.83.14-9.42,3.79-9.86,9.62v13.69h-2.04v-25.3h2.04v6.46c1.7-4.18,5.29-6.41,10.34-6.51,6.17,0,9.81,3.74,9.81,9.91ZM1057.66,118.83h-1.55c0-2.87,1.31-4.47,3.59-4.47,2.72,0,3.84,3.21,6.02,3.21,1.51,0,2.28-1.02,2.28-2.77h1.55c0,2.86-1.31,4.47-3.59,4.47-2.77,0-3.84-3.21-6.02-3.21-1.51,0-2.28,1.02-2.28,2.77Z"/>
      <path class="cls-1" d="M1102.48,137.09c0,7.48-5.25,12.72-12.48,12.72s-12.48-5.24-12.48-12.72,5.29-12.68,12.48-12.68,12.48,5.24,12.48,12.68ZM1079.51,137.09c0,6.41,4.42,10.83,10.49,10.83s10.49-4.42,10.49-10.83-4.37-10.73-10.49-10.73-10.49,4.42-10.49,10.73Z"/>
      <path class="cls-1" d="M1113.35,126.26c-3.55,0-6.31,1.36-6.31,4.37,0,6.8,14.76,3.45,14.76,12.38,0,4.71-4.22,6.8-8.79,6.8-3.55,0-6.94-1.26-9.28-3.5l.92-1.55c2.19,2.04,5.24,3.21,8.45,3.21,3.55,0,6.6-1.41,6.75-4.61.19-7.14-14.76-3.88-14.76-12.58,0-4.42,3.84-6.36,8.3-6.36,2.82,0,5.24.78,7.24,1.99l-.87,1.65c-1.75-1.12-3.98-1.8-6.41-1.8Z"/>
      <path class="cls-1" d="M1090.56,7.48c-7.51,0-13.72,2.52-18.56,7.4,1.4,2.22,2.53,4.65,3.34,7.24.4,1.28.65,2.48.9,3.65l.33,1.51.14.59.04,5.75-.15.63c-.16.65-.29,1.32-.44,2-.3,1.47-.6,3.01-1.13,4.61-1.93,6-5.52,11.32-10.64,15.87,6.02,6.09,9.62,11.95,11.32,18.38.25.91.44,1.83.61,2.74l.23,1.09.11.56v5.91l-.26,1.19-.2,1.01c-.72,4.03-2.26,7.82-4.51,11.19,4.86,5.11,11.2,7.78,18.87,7.78,19.68,0,30.6-17.75,30.6-49.61s-10.93-49.47-30.6-49.47ZM1090.56,92.17c-10.48,0-15.53-11.04-15.53-35.21s5.06-35.09,15.53-35.09,15.41,10.9,15.41,35.09-5.06,35.21-15.41,35.21Z"/>
      <path class="cls-1" d="M1090.56,7.48v-3.3c-8.24-.03-15.48,2.87-20.9,8.38l-1.85,1.86,1.4,2.22c1.25,1.98,2.26,4.14,2.98,6.45.34,1.11.58,2.19.82,3.35v.02s.33,1.51.33,1.51v.02s.06.26.06.26l.04,4.98-.06.24v-.03c-.19.79-.31,1.48-.45,2.09v.04s-.01,0-.01,0c-.3,1.49-.58,2.88-1.03,4.22v.03c-1.76,5.4-4.96,10.2-9.7,14.42l-2.6,2.31,2.45,2.48c5.75,5.82,8.94,11.13,10.48,16.91.22.81.39,1.64.56,2.52h0s.23,1.12.23,1.12l.04.22v5.24l-.18.84v.03s-.21,1.03-.21,1.03v.05s-.01.02-.01.02c-.64,3.59-2.01,6.94-4.01,9.94l-1.47,2.2,1.82,1.91c5.44,5.76,12.83,8.84,21.26,8.81,10.85.08,19.88-5.17,25.49-14.43,5.67-9.23,8.4-22.19,8.41-38.48-.01-16.3-2.75-29.23-8.42-38.43-5.62-9.22-14.64-14.43-25.49-14.35v6.6c8.83.08,15.11,3.68,19.87,11.22,4.71,7.57,7.44,19.38,7.43,34.95.01,15.56-2.72,27.41-7.43,35.02-4.77,7.59-11.05,11.21-19.87,11.29-6.91-.03-12.19-2.3-16.48-6.76l-2.39,2.28,2.74,1.83c2.5-3.74,4.21-7.96,5.02-12.44l-3.25-.58,3.23.66.2-1.01-3.23-.66,3.22.7.26-1.19.08-.35v-6.59l-.17-.87h0s-.24-1.14-.24-1.14l-3.23.69,3.24-.63c-.18-.95-.39-1.94-.67-2.97-1.86-7.07-5.86-13.49-12.16-19.84l-2.35,2.32,2.19,2.47c5.51-4.89,9.47-10.74,11.59-17.33v.03c.6-1.85.93-3.54,1.22-4.99l-3.23-.66,3.22.71c.16-.75.28-1.39.41-1.91l.16-.66.09-.39-.04-6.15v-.37s-.21-.91-.21-.91l-.32-1.5v.02c-.24-1.18-.53-2.5-.97-3.95-.89-2.87-2.15-5.56-3.7-8.02l-2.79,1.76,2.34,2.32c4.25-4.25,9.44-6.39,16.21-6.42v-3.3ZM1090.56,92.17v-3.3c-2.05-.01-3.54-.5-4.91-1.47-2.03-1.45-3.95-4.43-5.28-9.51-1.33-5.05-2.05-12.03-2.04-20.92-.02-11.86,1.3-20.29,3.55-25.26,1.12-2.5,2.4-4.09,3.76-5.06,1.37-.97,2.87-1.45,4.92-1.46,2.02.01,3.49.49,4.84,1.45,2,1.43,3.91,4.38,5.23,9.44,1.33,5.03,2.04,12,2.04,20.89.02,11.85-1.29,20.32-3.54,25.33-1.11,2.52-2.4,4.13-3.74,5.11-1.35.97-2.82,1.45-4.83,1.46v6.6c3.17.01,6.22-.89,8.73-2.74,3.78-2.79,6.19-7.29,7.73-13.17,1.54-5.91,2.25-13.36,2.25-22.6-.02-12.33-1.23-21.43-4.11-27.96-1.45-3.25-3.37-5.89-5.89-7.72-2.51-1.83-5.55-2.72-8.71-2.71-3.18-.01-6.25.87-8.77,2.7-3.82,2.76-6.25,7.25-7.8,13.11-1.55,5.89-2.26,13.33-2.26,22.57.02,12.32,1.23,21.46,4.12,28.01,1.45,3.27,3.39,5.93,5.93,7.77,2.53,1.85,5.59,2.74,8.79,2.73v-3.3Z"/>
      <path class="cls-1" d="M1071.43,28.51c-.38-1.6-.64-3.24-1.13-4.81-3.52-11.34-14.63-18.76-27.55-18.44-11.95.3-22.7,8.52-25.52,19.62-1.95,7.68-.05,14.73,4.51,21.21,1.63,2.32,3.63,4.41,5.5,6.58l.9,1.04,1.94.22,9.79-6.92c.68-.48.78-1.41.22-2.01-1.75-1.86-3.51-3.66-5.08-5.59-2.13-2.62-3.59-5.56-3.53-8.98.11-5.84,5.3-10.85,11.62-11.23,6.42-.39,12.23,3.94,13.14,9.77.65,4.17-.77,7.78-3.48,11.01-2.83,3.38-6.44,5.98-10.01,8.61-4.51,3.33-9.14,6.54-13.56,9.97-4.96,3.85-8.89,8.46-11.04,14.25-4.25,11.41-.33,23.55,9.8,30.33,16.43,10.98,39.74,2.06,43.03-16.48l.39-1.83v-4.78c-.26-1.2-.47-2.4-.78-3.59-1.71-6.47-5.64-11.72-10.45-16.49l-.46-.45-1.81-.14c-3.42,2.44-6.74,4.81-10.12,7.22l-.09,1.56c2.58,2.3,4.94,4.77,6.67,7.7,1.5,2.54,2.4,5.2,1.93,8.18-.92,5.9-6.64,10.26-13.13,9.9-6.3-.34-11.51-5.34-11.66-11.19-.11-4.07,1.72-7.44,4.41-10.49,2.76-3.12,6.16-5.58,9.56-8.04,4.71-3.42,9.55-6.69,14.06-10.34,4.9-3.96,8.6-8.83,10.5-14.7.65-2.02.96-4.14,1.44-6.2,0-1.52-.02-2.98-.03-4.49Z"/>
    </g>
  </g>
</svg>