<?xml version="1.0" encoding="UTF-8"?>
<svg id="Capa_2" data-name="Capa 2" xmlns="http://www.w3.org/2000/svg" viewBox="0 0 727.45 177.63">
  <defs>
    <style>
      .cls-1 {
        fill: #fff;
      }
    </style>
  </defs>
  <g id="Capa_1-2" data-name="Capa 1">
    <g>
      <path class="cls-1" d="M202.75,163.99l-2.09-12.54,14.63-87.8,2.09,12.54-14.63,87.79ZM196.49,126.36l14.63-87.79,2.09,12.54-14.63,87.79-2.09-12.54ZM192.3,101.28l14.63-87.79,2.09,12.54-14.63,87.79-2.09-12.54ZM144.22,163.99l-2.09-12.54,14.63-87.8,2.09,12.54-14.63,87.79ZM137.95,126.36l14.63-87.79,2.09,12.54-14.63,87.79-2.09-12.54ZM133.78,101.28l14.63-87.79,2.09,12.54-14.63,87.79-2.09-12.54ZM85.7,163.99l-2.09-12.54,14.63-87.8,2.09,12.54-14.63,87.79ZM79.43,126.36l14.63-87.79,2.1,12.54-14.63,87.79-2.09-12.54ZM75.25,101.28l14.63-87.79,2.09,12.54-14.63,87.79-2.09-12.54ZM204.84,176.52l14.63-87.78,14.63,87.78h29.26L234.11.95h-29.27l-14.63,87.79L175.58.95h-29.26l-14.63,87.79L117.05.95h-29.26l-14.63,87.79L58.53.95h-29.26L0,176.52h4.18L31.36,13.49l2.09,12.54L8.36,176.52h4.18L35.53,38.57l2.09,12.54-20.9,125.41h4.18l18.81-112.87,2.1,12.54-16.72,100.33h4.18l14.63-87.78,14.63,87.78h29.26l14.64-87.78,14.63,87.78h29.27l14.63-87.78,14.63,87.78h29.26Z"/>
      <polygon class="cls-1" points="323.93 1.76 339.98 33.39 340.1 33.39 356.09 1.76 364.06 1.76 364.06 42.76 357.73 42.76 357.73 11.01 357.61 11.01 341.27 42.76 338.75 42.76 322.41 11.01 322.29 11.01 322.29 42.76 315.96 42.76 315.96 1.76 323.93 1.76"/>
      <path class="cls-1" d="M370.83,11.72h6.03v17.22c0,5.92,3.28,9.31,9.14,9.31,2.81,0,5.09-.88,6.91-2.58,1.82-1.76,2.76-3.98,2.76-6.74V11.72h6.03v31.05h-5.92v-3.46h-.11c-2.4,2.81-6.39,4.34-11.13,4.34-8.43,0-13.71-5.21-13.71-13.65V11.72Z"/>
      <path class="cls-1" d="M412.68,31.05c1.11,5.04,4.86,7.56,11.13,7.56,5.45,0,8.79-1.58,8.79-4.21s-2.4-3.93-9.37-4.92c-11.07-1.52-14.94-4.16-14.94-9.37,0-5.56,5.39-9.26,13.53-9.26,7.5,0,14.24,4.28,15.41,9.9l-5.56,1.35c-1.17-3.8-4.92-6.21-9.84-6.21-4.63,0-7.74,1.7-7.74,4.1s2.11,3.34,9.61,4.51c10.78,1.64,14.76,4.33,14.76,9.9s-5.86,9.25-14.65,9.25-15.7-4.51-16.75-11.37l5.62-1.23Z"/>
      <path class="cls-1" d="M459.28,10.84c9.49,0,16.41,7.03,16.41,16.41v2.05h-26.95c.05,2.76,1.11,4.98,3.16,6.68,2.05,1.7,4.57,2.58,7.62,2.58,4.39,0,7.97-1.99,10.72-5.92l4.34,3.4c-3.46,5.1-8.5,7.62-15.06,7.62-10.19,0-16.81-6.5-16.81-16.29s6.91-16.52,16.57-16.52ZM459.34,15.94c-5.8,0-10.13,3.81-10.49,8.73h20.8c-.35-4.92-4.92-8.73-10.31-8.73Z"/>
      <path class="cls-1" d="M497.5,10.84c9.72-.17,17.28,7.21,17.1,16.41.18,9.2-7.38,16.57-17.1,16.4-9.78,0-17.04-7.09-17.04-16.4s7.26-16.41,17.04-16.41ZM497.5,16.17c-6.45,0-11.01,4.45-11.01,11.07s4.56,11.07,11.01,11.07,11.07-4.45,11.07-11.07-4.57-11.07-11.07-11.07Z"/>
      <path class="cls-1" d="M549.56,10.84c4.69,0,8.73,1.52,11.25,4.28h.12V0h6.03v42.76h-5.68v-3.51h-.12c-2.4,2.81-6.56,4.39-11.31,4.39-9.66,0-16.69-6.91-16.69-16.4s7.09-16.41,16.4-16.41ZM560.92,25.13c0-4.92-4.81-8.96-10.78-8.96-3.28,0-5.92,1-7.96,3.05-1.99,2.05-2.99,4.69-2.99,8.03,0,6.74,4.33,11.07,11.19,11.07,5.86,0,10.55-4.04,10.55-8.96v-4.22Z"/>
      <path class="cls-1" d="M589.47,10.84c9.49,0,16.41,7.03,16.41,16.41v2.05h-26.95c.06,2.76,1.12,4.98,3.17,6.68,2.05,1.7,4.57,2.58,7.62,2.58,4.39,0,7.96-1.99,10.72-5.92l4.34,3.4c-3.46,5.1-8.5,7.62-15.06,7.62-10.19,0-16.81-6.5-16.81-16.29s6.91-16.52,16.57-16.52ZM589.53,15.94c-5.8,0-10.13,3.81-10.49,8.73h20.8c-.35-4.92-4.92-8.73-10.31-8.73Z"/>
      <path class="cls-1" d="M321.59,101.91l-3.4,7.85h-6.85l18.45-41h6.33l18.45,41h-6.8l-3.39-7.85h-22.79ZM333.01,75.84h-.12l-8.9,20.56h17.98l-8.96-20.56Z"/>
      <path class="cls-1" d="M363.85,78.71v2.99h.12c2.05-2.17,4.98-3.52,8.32-3.52,1.52,0,3.16.24,4.92.71l-1.29,5.62c-1.87-.47-2.87-.65-4.33-.65-4.51,0-7.38,3.17-7.38,8.85v17.04h-6.03v-31.05h5.68Z"/>
      <path class="cls-1" d="M393.21,101.56c0,2.11.76,2.76,3.34,2.76h5.15v5.45h-5.45c-6.5,0-9.08-2.4-9.08-8.08v-17.81h-6.91v-5.15h6.91v-7.27h6.03v7.27h9.96v5.15h-9.96v17.69Z"/>
      <path class="cls-1" d="M422.7,77.83c9.49,0,16.41,7.03,16.41,16.41v2.05h-26.95c.05,2.75,1.11,4.98,3.16,6.68,2.05,1.7,4.57,2.58,7.62,2.58,4.39,0,7.97-1.99,10.72-5.92l4.34,3.4c-3.46,5.1-8.5,7.62-15.06,7.62-10.19,0-16.81-6.5-16.81-16.29s6.91-16.52,16.57-16.52ZM422.75,82.93c-5.8,0-10.13,3.81-10.49,8.73h20.8c-.35-4.92-4.92-8.73-10.31-8.73Z"/>
      <polygon class="cls-1" points="469.77 68.76 485.82 100.39 485.94 100.39 501.93 68.76 509.9 68.76 509.9 109.76 503.57 109.76 503.57 78.01 503.45 78.01 487.11 109.76 484.59 109.76 468.25 78.01 468.13 78.01 468.13 109.76 461.8 109.76 461.8 68.76 469.77 68.76"/>
      <path class="cls-1" d="M532.72,77.83c9.72-.17,17.28,7.21,17.1,16.41.18,9.19-7.38,16.57-17.1,16.4-9.78,0-17.04-7.09-17.04-16.4s7.26-16.41,17.04-16.41ZM532.72,83.16c-6.45,0-11.01,4.45-11.01,11.07s4.56,11.07,11.01,11.07,11.07-4.45,11.07-11.07-4.57-11.07-11.07-11.07Z"/>
      <path class="cls-1" d="M570.83,77.83c4.68,0,8.73,1.52,11.25,4.28h.12v-15.12h6.03v42.76h-5.68v-3.51h-.12c-2.4,2.81-6.56,4.39-11.31,4.39-9.66,0-16.69-6.92-16.69-16.4s7.09-16.41,16.4-16.41ZM582.19,92.13c0-4.92-4.8-8.96-10.78-8.96-3.28,0-5.92,1-7.96,3.05-1.99,2.05-2.99,4.69-2.99,8.03,0,6.74,4.33,11.07,11.19,11.07,5.86,0,10.55-4.04,10.55-8.96v-4.22Z"/>
      <path class="cls-1" d="M610.68,77.83c9.49,0,16.41,7.03,16.41,16.41v2.05h-26.95c.05,2.75,1.11,4.98,3.16,6.68,2.05,1.7,4.57,2.58,7.62,2.58,4.39,0,7.97-1.99,10.72-5.92l4.34,3.4c-3.46,5.1-8.5,7.62-15.06,7.62-10.19,0-16.81-6.5-16.81-16.29s6.91-16.52,16.57-16.52ZM610.74,82.93c-5.8,0-10.13,3.81-10.49,8.73h20.8c-.35-4.92-4.92-8.73-10.31-8.73Z"/>
      <path class="cls-1" d="M638.71,78.71v2.99h.12c2.05-2.17,4.98-3.52,8.32-3.52,1.52,0,3.16.24,4.92.71l-1.29,5.62c-1.87-.47-2.87-.65-4.33-.65-4.51,0-7.39,3.17-7.39,8.85v17.04h-6.03v-31.05h5.68Z"/>
      <path class="cls-1" d="M662.4,78.71v3.46h.12c2.4-2.76,6.56-4.34,10.84-4.34,8.84,0,14.82,5.51,14.82,13.53v18.4h-6.03v-17.4c0-5.68-3.63-9.2-9.31-9.2-3.05,0-5.51.88-7.44,2.64-1.87,1.7-2.81,3.93-2.81,6.68v17.28h-6.03v-31.05h5.86Z"/>
      <path class="cls-1" d="M710.34,77.83c9.72-.17,17.28,7.21,17.1,16.41.18,9.19-7.38,16.57-17.1,16.4-9.78,0-17.04-7.09-17.04-16.4s7.26-16.41,17.04-16.41ZM710.34,83.16c-6.45,0-11.01,4.45-11.01,11.07s4.56,11.07,11.01,11.07,11.07-4.45,11.07-11.07-4.57-11.07-11.07-11.07Z"/>
      <path class="cls-1" d="M329.96,144.83c4.69,0,8.73,1.52,11.25,4.28h.12v-15.12h6.03v42.76h-5.68v-3.51h-.12c-2.4,2.81-6.56,4.39-11.31,4.39-9.66,0-16.69-6.91-16.69-16.4s7.09-16.41,16.4-16.41ZM341.33,159.12c0-4.92-4.81-8.96-10.78-8.96-3.28,0-5.92,1-7.96,3.05-1.99,2.05-2.99,4.69-2.99,8.03,0,6.74,4.33,11.07,11.19,11.07,5.86,0,10.55-4.04,10.55-8.96v-4.22Z"/>
      <path class="cls-1" d="M369.82,144.83c9.49,0,16.41,7.03,16.41,16.41v2.05h-26.95c.06,2.76,1.12,4.98,3.17,6.68,2.05,1.7,4.57,2.58,7.62,2.58,4.39,0,7.96-1.99,10.72-5.92l4.34,3.4c-3.46,5.1-8.5,7.62-15.06,7.62-10.19,0-16.81-6.5-16.81-16.29s6.91-16.52,16.57-16.52ZM369.88,149.92c-5.8,0-10.13,3.81-10.49,8.73h20.8c-.35-4.92-4.92-8.73-10.31-8.73Z"/>
      <polygon class="cls-1" points="416.9 135.75 432.95 167.38 433.07 167.38 449.06 135.75 457.03 135.75 457.03 176.75 450.7 176.75 450.7 145 450.58 145 434.24 176.75 431.72 176.75 415.38 145 415.26 145 415.26 176.75 408.93 176.75 408.93 135.75 416.9 135.75"/>
      <path class="cls-1" d="M479.38,144.83c9.49,0,16.41,7.03,16.41,16.41v2.05h-26.95c.06,2.76,1.12,4.98,3.17,6.68,2.05,1.7,4.57,2.58,7.62,2.58,4.39,0,7.96-1.99,10.72-5.92l4.34,3.4c-3.46,5.1-8.5,7.62-15.06,7.62-10.19,0-16.81-6.5-16.81-16.29s6.91-16.52,16.57-16.52ZM479.44,149.92c-5.8,0-10.13,3.81-10.49,8.73h20.8c-.35-4.92-4.92-8.73-10.31-8.73Z"/>
      <path class="cls-1" d="M517.19,144.83c4.68,0,8.73,1.52,11.25,4.28h.12v-15.12h6.03v42.76h-5.68v-3.51h-.12c-2.4,2.81-6.56,4.39-11.31,4.39-9.66,0-16.69-6.91-16.69-16.4s7.09-16.41,16.4-16.41ZM528.56,159.12c0-4.92-4.8-8.96-10.78-8.96-3.28,0-5.92,1-7.96,3.05-1.99,2.05-2.99,4.69-2.99,8.03,0,6.74,4.33,11.07,11.19,11.07,5.86,0,10.55-4.04,10.55-8.96v-4.22Z"/>
      <path class="cls-1" d="M557,144.83c9.49,0,16.41,7.03,16.41,16.41v2.05h-26.95c.05,2.76,1.11,4.98,3.16,6.68,2.05,1.7,4.57,2.58,7.62,2.58,4.39,0,7.97-1.99,10.72-5.92l4.34,3.4c-3.46,5.1-8.5,7.62-15.06,7.62-10.19,0-16.81-6.5-16.81-16.29s6.91-16.52,16.57-16.52ZM557.06,149.92c-5.8,0-10.13,3.81-10.49,8.73h20.8c-.35-4.92-4.92-8.73-10.31-8.73Z"/>
      <rect class="cls-1" x="579.34" y="133.99" width="6.03" height="42.76"/>
      <rect class="cls-1" x="592.47" y="133.99" width="6.03" height="42.76"/>
      <path class="cls-1" d="M617.32,134.99l-7.21,7.2h-4.98l5.27-7.2h6.91ZM611.64,145.71v31.05h-6.03v-31.05h6.03Z"/>
      <path class="cls-1" d="M624.6,145.71v3.46h.12c2.4-2.75,6.56-4.34,10.84-4.34,8.84,0,14.82,5.51,14.82,13.53v18.39h-6.03v-17.4c0-5.68-3.63-9.2-9.31-9.2-3.05,0-5.5.88-7.44,2.64-1.87,1.7-2.81,3.93-2.81,6.68v17.28h-6.03v-31.05h5.86Z"/>
    </g>
  </g>
</svg>