<?xml version="1.0" encoding="UTF-8"?>
<svg id="Capa_2" data-name="Capa 2" xmlns="http://www.w3.org/2000/svg" viewBox="0 0 1071.67 835.52">
  <defs>
    <style>
      .cls-1 {
        fill: #1d1d1b;
      }
    </style>
  </defs>
  <g id="Capa_1-2" data-name="Capa 1">
    <g>
      <g>
        <path class="cls-1" d="M239.22,779.14c-9.27,24.38-39.74,14.98-33.17-7.73,0-10.32,83.56-273.35-46.34-498.46-10.79-14.84-55.51-101.27-82.24-70.52-3.42,5.81-3.28,13.56-3.28,13.8-1.69,23.1-52.54,33.48-70.49-3.87-16.91-38.04,28.43-80.58,52.6-53.3,18.95,16.77,62.53-31.58,82.94-16.12,20.4,15.46,66.3,94.83,66.3,94.83,0,0,133.64,229.92,33.69,541.37"/>
        <path class="cls-1" d="M456.79,817.43c-11.66,30.68-50.05,18.92-41.71-9.72,0-13,105.11-343.95-58.35-627.17-13.59-18.71-69.83-127.41-103.41-88.64-4.32,7.3-4.15,17.02-4.15,17.33-2.25,29.02-66.09,42.06-88.75-4.95-21.24-47.76,35.83-101.4,66.2-67.03,23.83,21.17,78.68-39.74,104.31-20.27,25.73,19.47,83.45,119.36,83.45,119.36,0,0,168.15,289.31,42.4,681.09"/>
        <path class="cls-1" d="M493.84,67.2c-3.67,6.12-3.46,14.32-3.46,14.56-1.87,24.35-55.41,35.28-74.39-4.12-17.78-40.09,30.02-84.98,55.47-56.17,19.96,17.67,65.92-33.3,87.43-16.95,21.51,16.26,69.9,99.94,69.9,99.94,0,0,140.9,242.43,35.52,570.68-9.79,25.77-41.88,15.88-34.9-8.13,0-10.89,88.02-288.17-48.94-525.49-11.35-15.67-58.52-106.73-86.64-74.32"/>
        <path class="cls-1" d="M836.96,583.94c0-9.51,77.23-252.75-42.88-460.95-9.96-13.66-51.29-93.59-76.02-65.13-3.15,5.4-3.01,12.52-3.01,12.73-1.68,21.37-48.63,30.95-65.19-3.56-15.67-35.17,26.25-74.57,48.56-49.32,17.57,15.53,57.9-29.16,76.68-14.84,18.88,14.28,61.39,87.71,61.39,87.71,0,0,123.5,212.61,31.11,500.52-8.49,22.62-36.75,13.87-30.63-7.16"/>
        <path class="cls-1" d="M924.32,69.97c-2.53,4.29-2.39,10.07-2.39,10.24-1.35,17.08-38.91,24.73-52.23-2.87-12.52-28.12,21.06-59.66,38.94-39.44,14.04,12.4,46.27-23.4,61.35-11.91,15.08,11.45,49.11,70.14,49.11,70.14,0,0,98.85,170.16,24.87,400.5-6.81,18.09-29.36,11.14-24.52-5.67,0-7.64,61.8-202.26-34.34-368.79-7.92-11-41.02-74.95-60.8-52.19"/>
      </g>
      <g>
        <path class="cls-1" d="M726.77,833.79l-.14-60.72-29.78,50.02h-10.55l-29.64-48.72v59.42h-21.98v-101.2h19.37l37.88,62.89,37.3-62.89h19.23l.29,101.2h-21.98Z"/>
        <path class="cls-1" d="M766.36,783.19c0-30.51,23.42-52.34,54.94-52.34,17.49,0,32.09,6.36,41.64,17.93l-15.04,13.88c-6.8-7.81-15.33-11.85-25.45-11.85-18.94,0-32.39,13.3-32.39,32.39s13.44,32.39,32.39,32.39c10.12,0,18.65-4.05,25.45-12l15.04,13.88c-9.54,11.71-24.15,18.07-41.79,18.07-31.37,0-54.79-21.83-54.79-52.33Z"/>
        <path class="cls-1" d="M971.5,732.58v101.2h-19.23l-50.46-61.44v61.44h-23.13v-101.2h19.37l50.31,61.44v-61.44h23.13Z"/>
        <path class="cls-1" d="M987.53,823.81l7.95-17.64c8.53,6.22,21.25,10.56,33.39,10.56,13.88,0,19.52-4.63,19.52-10.84,0-18.94-58.84-5.93-58.84-43.52,0-17.21,13.88-31.52,42.65-31.52,12.72,0,25.74,3.04,35.13,8.96l-7.23,17.78c-9.4-5.35-19.08-7.95-28.05-7.95-13.88,0-19.23,5.2-19.23,11.57,0,18.65,58.84,5.78,58.84,42.94,0,16.91-14.02,31.37-42.94,31.37-16.05,0-32.24-4.77-41.2-11.71Z"/>
      </g>
    </g>
  </g>
</svg>