<?xml version="1.0" encoding="UTF-8"?>
<svg id="Capa_2" data-name="Capa 2" xmlns="http://www.w3.org/2000/svg" viewBox="0 0 877.46 160.57">
  <defs>
    <style>
      .cls-1 {
        fill: #fff;
      }
    </style>
  </defs>
  <g id="Capa_1-2" data-name="Capa 1">
    <g>
      <polygon class="cls-1" points="9.66 128.48 1.55 131.06 1.55 130.11 7.44 128.38 8.77 128.03 7.44 127.68 1.55 125.88 1.55 124.98 9.66 127.58 9.66 128.48"/>
      <rect class="cls-1" x="1.55" y="123.15" width="8.11" height=".88"/>
      <path class="cls-1" d="M6.48,118.48h-.96v-2.81s3.01,0,3.01,0l.95,1.34.32,1.42c0,.65-.16,1.23-.49,1.74l-1.42,1.21c-.62.3-1.37.45-2.25.45s-1.66-.15-2.32-.45c-.65-.3-1.14-.69-1.45-1.17-.31-.48-.47-1.05-.47-1.71l.27-1.28.77-.9,1.36-.53.27.79-1.03.4-.54.64-.19.9.35,1.25,1.09.84c.5.21,1.1.32,1.81.32,1.09,0,1.9-.23,2.44-.68.54-.46.81-1.05.81-1.77l-.25-1.06-.59-.87h-1.51v1.95Z"/>
      <rect class="cls-1" x="1.55" y="113.34" width="8.11" height=".88"/>
      <polygon class="cls-1" points="9.66 111.85 1.55 111.85 1.55 110.98 8.7 110.98 8.7 107.7 9.66 107.7 9.66 111.85"/>
      <path class="cls-1" d="M9.66,107.36l-8.11-2.56v-.94l8.11-2.73v1.01l-2.46.77v2.8l2.46.72v.93ZM6.33,105.45v-2.26l-2.25.69c-.69.21-1.25.37-1.68.47l1.55.36,2.38.74Z"/>
      <path class="cls-1" d="M9.66,100.46H1.55v-2.29l.15-1.3.71-1.01,1.3-.66c.52-.16,1.14-.24,1.85-.24.92,0,1.7.13,2.34.4.64.27,1.09.61,1.36,1.04.26.42.4.98.4,1.66v2.4ZM8.7,99.58v-1.41l-.28-1.3-.9-.68c-.55-.21-1.21-.31-1.98-.31-.82,0-1.47.11-1.94.33l-.94.86-.16,1.12v1.39h6.2Z"/>
      <path class="cls-1" d="M9.66,94.46l-8.11-2.56v-.94l8.11-2.72v1.01l-2.46.77v2.8l2.46.72v.93ZM6.33,92.55v-2.26l-2.25.69c-.69.21-1.25.37-1.68.47l1.55.36,2.38.74Z"/>
      <polygon class="cls-1" points="9.66 85.49 1.55 85.49 1.55 84.17 7.29 82.59 8.49 82.27 7.19 81.92 1.55 80.33 1.55 79.14 9.66 79.14 9.66 79.99 2.88 79.99 9.66 81.93 9.66 82.71 2.76 84.64 9.66 84.64 9.66 85.49"/>
      <path class="cls-1" d="M1.55,77.03h1.15v.81h-1.15v-.81ZM3.79,77.03h5.87v.81H3.79v-.81Z"/>
      <path class="cls-1" d="M9.66,75.78H3.79v-.74h.83l-.72-.65-.24-.88.15-.72.4-.53.64-.3,1.2-.1h3.61v.81h-3.58l-.95.11-.46.34-.16.55.44.94c.29.23.79.35,1.5.35h3.21v.81Z"/>
      <path class="cls-1" d="M7.77,67.32l.13-.84,1.42.76.48,1.36c0,.68-.26,1.24-.78,1.66-.52.42-1.26.63-2.24.63s-1.79-.21-2.32-.64c-.53-.43-.8-.97-.8-1.62l.79-1.56c.52-.41,1.28-.62,2.27-.62h.26v3.6c.66-.03,1.16-.19,1.49-.46l.5-.99c0-.61-.4-1.04-1.2-1.28M6.16,70v-2.69l-1.14.32-.55,1,.45.94,1.23.43"/>
      <path class="cls-1" d="M9.66,62.33h-.74l.65.57.22.75-.8,1.48c-.54.41-1.29.62-2.27.62-.67,0-1.23-.09-1.7-.28l-1.04-.74-.34-1.02.21-.75.59-.57H1.55v-.83h8.11v.76ZM6.73,64.91c.76,0,1.32-.13,1.69-.4l.55-.92-.53-.9c-.35-.26-.89-.39-1.6-.39-.82,0-1.42.13-1.8.39l-.57.96.55.89c.36.25.93.37,1.71.37"/>
      <path class="cls-1" d="M9.66,57.13h-.86l.75.66.25.86-.31.97-.77.54-1.29.14h-3.64v-.81h3.26l1.21-.09.49-.34.19-.56-.48-.96c-.28-.21-.79-.32-1.53-.32h-3.15v-.82h5.87v.73Z"/>
      <path class="cls-1" d="M7.51,51.96l.13-.8c.7.09,1.24.32,1.6.69l.55,1.34-.78,1.56c-.52.41-1.28.61-2.3.61s-1.79-.2-2.3-.62c-.51-.41-.76-.94-.76-1.58l.46-1.26,1.39-.65.14.79-.89.4-.29.69.53,1c.36.26.92.4,1.7.4s1.38-.12,1.74-.38l.54-.97-.36-.79-1.11-.42"/>
      <path class="cls-1" d="M8.94,47.33l.64.85.22.92-.45,1.2-1.23.45-.9-.21-.61-.58-.32-1.11c-.1-.66-.21-1.15-.35-1.46h-.25s-.85.21-.85.21l-.35.94.24.85.89.41-.13.8-1.38-.69c-.29-.35-.43-.85-.43-1.5l.28-1.19.71-.54,1.23-.11h1.33c.93,0,1.51-.02,1.76-.05l.7-.2v.85l-.72.16M6.71,47.39l.38,1.33.2.72.32.32.48.12.67-.26.25-.72-.23-.79-.61-.54-1.1-.17h-.36Z"/>
      <path class="cls-1" d="M7.51,42.14l.13-.8c.7.09,1.24.32,1.6.69l.55,1.34-.78,1.56c-.52.41-1.28.61-2.3.61s-1.79-.2-2.3-.62c-.51-.41-.76-.94-.76-1.59l.46-1.26,1.39-.65.14.79-.89.4-.29.69.53,1c.36.26.92.4,1.7.4s1.38-.12,1.74-.38l.54-.97-.36-.79-1.11-.42"/>
      <path class="cls-1" d="M1.55,39.84h1.15v.81h-1.15v-.81ZM3.79,39.84h5.87v.81H3.79v-.81Z"/>
      <path class="cls-1" d="M6.72,38.9c-1.01,0-1.78-.21-2.3-.64-.51-.43-.77-.96-.77-1.62s.26-1.18.77-1.61c.52-.43,1.26-.65,2.24-.65,1.05,0,1.84.21,2.36.64.51.43.78.97.78,1.62s-.26,1.18-.78,1.61c-.52.43-1.28.64-2.29.64M6.72,38.06c.76,0,1.33-.14,1.7-.41l.56-1.03-.56-.99c-.38-.28-.94-.41-1.69-.41s-1.32.14-1.69.41l-.56,1.03.56.99c.37.27.94.41,1.69.41M3.05,37.24l-1.55-.6v-1.07l1.55,1v.67Z"/>
      <path class="cls-1" d="M9.66,33.42H3.79v-.74h.83l-.72-.65-.24-.88.15-.72.4-.53.64-.3,1.2-.1h3.61v.81h-3.58l-.95.11-.46.34-.16.55.44.94c.29.23.79.35,1.5.35h3.21v.81Z"/>
      <rect class="cls-1" y="88.23" width=".51" height="42.83"/>
      <rect class="cls-1" x="10.69" y="88.23" width=".51" height="42.83"/>
      <rect class="cls-1" x="10.69" y="88.23" width=".51" height="42.83"/>
      <path class="cls-1" d="M67.39,32.88l-.18.35-.57.25-1.06.16c-.45.05-1,.07-1.69.07s-1.23-.03-1.69-.07l-1.07-.16-.58-.25-.16-.35V8.57l.16-.35.6-.26,1.07-.16c.44-.04,1-.06,1.67-.06s1.25.02,1.69.06l1.06.16.57.26.18.35v24.3Z"/>
      <path class="cls-1" d="M108.54,31.77l-.2.8-.57.6-.85.35-.99.11h-2.97l-1.6-.15-1.24-.49-1.11-1.01c-.35-.41-.74-.95-1.19-1.61l-8.52-12.03c-.49-.72-1.01-1.48-1.52-2.31-.51-.83-.96-1.64-1.37-2.42h-.06c.07.95.13,1.9.15,2.85.03.95.06,1.94.06,2.93v13.46l-.16.36-.5.27-.96.16c-.41.05-.93.07-1.57.07l-1.54-.07-.95-.16-.48-.27-.12-.36V9.73l.72-1.4c.49-.31,1.08-.48,1.8-.48h3.73c.67,0,1.24.05,1.7.14l1.24.44,1.01.83.99,1.29,6.68,9.41,1.15,1.66,1.09,1.65,1.04,1.64.98,1.59h.02c-.05-.94-.09-1.91-.11-2.91-.03-1.01-.04-1.98-.04-2.89v-12.07l.15-.35.53-.3.98-.16c.4-.04.92-.06,1.56-.06l1.5.06.94.16.46.3.13.35v23.14Z"/>
      <path class="cls-1" d="M141.77,25.88c0,1.34-.33,2.53-1,3.55-.68,1.03-1.59,1.88-2.73,2.54-1.15.68-2.49,1.21-4.02,1.55-1.54.34-3.19.51-4.93.51-1.18,0-2.29-.05-3.29-.21-1.03-.15-1.91-.32-2.69-.51-.78-.22-1.43-.44-1.95-.65l-1.12-.6-.49-.73-.15-1.41.06-1.04.16-.67.33-.37.46-.11,1.05.34c.45.21,1.03.45,1.74.72.71.26,1.55.51,2.54.72.98.23,2.1.32,3.39.32.86,0,1.61-.07,2.29-.21.67-.15,1.24-.37,1.71-.64l1.07-1.04.38-1.38-.64-1.49c-.43-.41-.98-.79-1.65-1.11-.68-.32-1.46-.63-2.32-.92-.86-.27-1.75-.59-2.68-.91-.91-.31-1.81-.66-2.67-1.08-.86-.39-1.64-.87-2.32-1.44-.68-.56-1.23-1.22-1.65-1.99-.42-.78-.64-1.69-.64-2.76,0-1.23.3-2.31.92-3.25.6-.94,1.42-1.71,2.46-2.32,1.04-.63,2.25-1.07,3.66-1.4,1.41-.3,2.89-.45,4.46-.45.82,0,1.63.05,2.44.14.81.09,1.57.22,2.28.36.7.17,1.33.35,1.87.54l1.09.51.36.33.16.38.09.56.03.86-.04.99-.13.65-.26.38-.47.12-.92-.29-1.57-.6c-.62-.22-1.33-.42-2.14-.59-.81-.18-1.71-.27-2.68-.27-.75,0-1.42.06-1.99.22l-1.42.56-.85.89-.27,1.1.62,1.47c.41.42.97.79,1.66,1.12.7.32,1.49.62,2.38.91.88.28,1.78.58,2.7.91.92.31,1.81.67,2.7,1.08.89.41,1.67.9,2.36,1.46.68.57,1.24,1.23,1.66,1.99.43.76.64,1.66.64,2.7"/>
      <path class="cls-1" d="M174.79,10l-.06,1-.2.66-.33.36-.44.11h-8.58v20.75l-.17.35-.57.25-1.07.16c-.45.05-1.02.07-1.69.07s-1.23-.02-1.69-.07l-1.07-.16-.56-.25-.17-.35V12.13h-8.59l-.45-.11-.31-.36-.2-.66-.06-1,.06-1,.2-.67.31-.37.45-.11h24.16l.44.11.33.37.2.67.06,1"/>
      <path class="cls-1" d="M191.27,32.88l-.18.35-.56.25-1.07.16c-.44.05-1,.07-1.7.07s-1.24-.03-1.68-.07l-1.07-.16-.57-.25-.17-.35V8.57l.17-.35.59-.26,1.08-.16c.44-.04.99-.06,1.66-.06s1.26.02,1.7.06l1.07.16.56.26.18.35v24.3Z"/>
      <path class="cls-1" d="M226.98,10l-.06,1-.21.66-.32.36-.45.11h-8.58v20.75l-.18.35-.56.25-1.08.16c-.45.05-1.01.07-1.69.07s-1.23-.02-1.67-.07l-1.08-.16-.56-.25-.17-.35V12.13h-8.59l-.45-.11-.31-.36-.21-.66-.06-1,.06-1,.21-.67.31-.37.45-.11h24.16l.45.11.32.37.21.67.06,1"/>
      <path class="cls-1" d="M264.42,24c0,1.59-.3,3-.93,4.24-.61,1.25-1.52,2.3-2.72,3.16-1.2.88-2.68,1.53-4.44,1.97-1.77.45-3.81.67-6.1.67-2.15,0-4.09-.19-5.8-.59-1.71-.39-3.16-1.03-4.34-1.85-1.19-.81-2.09-1.84-2.72-3.06-.62-1.24-.93-2.66-.93-4.31v-15.65l.15-.35.58-.26,1.07-.16c.44-.04,1-.06,1.69-.06s1.23.02,1.67.06l1.06.16.57.26.16.35v15.2c0,1.01.16,1.9.5,2.65.34.76.82,1.36,1.45,1.86.63.49,1.38.85,2.26,1.11.87.24,1.85.36,2.92.36s2.08-.13,2.94-.38c.87-.26,1.6-.62,2.2-1.1.6-.49,1.07-1.08,1.39-1.8.33-.7.49-1.51.49-2.4v-15.5l.16-.35.55-.26,1.07-.16c.45-.04,1.01-.06,1.69-.06s1.22.02,1.66.06l1.04.16.55.26.15.35v15.43Z"/>
      <path class="cls-1" d="M301.01,29.7l-.03.85-.13.58-.22.44-.42.41-1.12.57c-.55.25-1.24.48-2.04.69-.8.23-1.73.42-2.76.56-1.03.15-2.16.21-3.35.21-2.35,0-4.48-.28-6.36-.82-1.89-.54-3.5-1.35-4.82-2.44-1.33-1.08-2.34-2.42-3.05-4.04-.7-1.63-1.06-3.5-1.06-5.65s.39-4.11,1.17-5.81c.78-1.7,1.86-3.13,3.25-4.28,1.4-1.15,3.06-2.04,5.02-2.63,1.96-.59,4.1-.9,6.46-.9.94,0,1.86.07,2.74.2.89.11,1.71.27,2.46.45.76.2,1.43.42,2.02.66l1.27.65.48.46.22.45.11.65.04.93-.05,1.01-.19.68-.32.37-.41.12-1-.34c-.42-.22-.94-.5-1.58-.8-.65-.25-1.41-.53-2.31-.75-.9-.24-1.95-.34-3.19-.34-1.35,0-2.58.19-3.64.61-1.07.41-1.99,1.02-2.73,1.8-.75.77-1.32,1.71-1.71,2.8-.39,1.11-.59,2.35-.59,3.72,0,1.52.21,2.83.62,3.91.42,1.13,1.01,2.02,1.78,2.75.77.71,1.7,1.25,2.79,1.59,1.08.36,2.31.54,3.67.54,1.23,0,2.3-.1,3.19-.34.91-.2,1.68-.45,2.32-.72.65-.25,1.17-.5,1.59-.71l.97-.31.43.09.26.32.15.65.06,1.15"/>
      <path class="cls-1" d="M318.43,32.88l-.17.35-.57.25-1.05.16c-.44.05-1.01.07-1.69.07s-1.24-.03-1.68-.07l-1.08-.16-.57-.25-.17-.35V8.57l.17-.35.59-.26,1.08-.16c.43-.04,1-.06,1.67-.06s1.25.02,1.69.06l1.05.16.57.26.17.35v24.3Z"/>
      <path class="cls-1" d="M347.68.91h0l.68-.48.8-.27,1.13-.13c.44-.03.99-.03,1.63-.03.81,0,1.45.04,1.9.12l.93.3.12.43-.5.49-5.88,3.99-.54.3-.68.23-.96.12-1.38.05-1.44-.07-.76-.19-.17-.33.37-.48,4.76-4.07ZM354.86,20.71h0c0-1.35-.14-2.58-.43-3.69-.28-1.11-.76-2.05-1.44-2.85-.68-.77-1.59-1.39-2.71-1.82-1.13-.43-2.55-.64-4.25-.64s-3.15.24-4.29.73c-1.15.48-2.08,1.12-2.79,1.94-.7.8-1.21,1.75-1.49,2.84-.29,1.06-.44,2.21-.44,3.41,0,1.41.15,2.67.43,3.81.28,1.1.75,2.07,1.43,2.86.67.8,1.57,1.4,2.7,1.82,1.13.42,2.55.63,4.28.63s3.13-.24,4.28-.71c1.15-.47,2.07-1.13,2.77-1.95.71-.83,1.21-1.77,1.5-2.87.29-1.09.44-2.25.44-3.49M362.17,20.42c0,2.14-.36,4.05-1.06,5.73-.7,1.69-1.75,3.11-3.15,4.29-1.39,1.16-3.13,2.06-5.18,2.68-2.06.62-4.45.91-7.14.91s-5-.25-6.99-.78c-1.98-.52-3.64-1.32-4.97-2.4-1.32-1.07-2.31-2.43-2.97-4.09-.67-1.66-1.01-3.62-1.01-5.89,0-2.08.36-3.95,1.06-5.62.71-1.65,1.75-3.07,3.15-4.24,1.4-1.17,3.12-2.06,5.18-2.69,2.05-.62,4.45-.93,7.16-.93s4.89.26,6.87.78c1.99.51,3.65,1.31,4.99,2.39,1.33,1.06,2.33,2.42,3.01,4.07.69,1.64,1.03,3.57,1.03,5.79"/>
      <path class="cls-1" d="M401.72,31.77l-.22.8-.56.6-.85.35-1,.11h-2.96l-1.6-.15-1.25-.49-1.1-1.01c-.35-.41-.75-.95-1.2-1.61l-8.52-12.03c-.49-.72-1-1.48-1.5-2.31-.52-.83-.97-1.64-1.38-2.42h-.05c.06.95.12,1.9.15,2.85.04.95.06,1.94.06,2.93v13.46l-.15.36-.5.27-.97.16c-.4.05-.92.07-1.56.07l-1.53-.07-.96-.16-.47-.27-.13-.36V9.73l.73-1.4c.49-.31,1.08-.48,1.79-.48h3.73c.67,0,1.24.05,1.7.14l1.23.44,1.02.83.98,1.29,6.69,9.41,1.14,1.66,1.1,1.65,1.04,1.64.99,1.59h.03c-.06-.94-.1-1.91-.12-2.91-.03-1.01-.04-1.98-.04-2.89v-12.07l.16-.35.52-.3.98-.16,1.56-.06,1.52.06.93.16.46.3.14.35v23.14Z"/>
      <path class="cls-1" d="M460.28,24c0,1.59-.31,3-.92,4.24-.62,1.25-1.54,2.3-2.73,3.16-1.2.88-2.69,1.53-4.46,1.97-1.76.45-3.79.67-6.09.67-2.14,0-4.08-.19-5.8-.59-1.71-.39-3.16-1.03-4.34-1.85-1.18-.81-2.09-1.84-2.71-3.06-.63-1.24-.94-2.66-.94-4.31v-15.65l.15-.35.58-.26,1.07-.16c.44-.04,1.01-.06,1.7-.06s1.23.02,1.67.06l1.06.16.58.26.17.35v15.2c0,1.01.17,1.9.5,2.65.33.76.8,1.36,1.44,1.86.64.49,1.38.85,2.25,1.11.89.24,1.86.36,2.93.36s2.08-.13,2.94-.38c.87-.26,1.61-.62,2.2-1.1.61-.49,1.07-1.08,1.4-1.8.33-.7.49-1.51.49-2.4v-15.5l.16-.35.56-.26,1.07-.16c.45-.04,1.01-.06,1.68-.06s1.21.02,1.65.06l1.04.16.56.26.16.35v15.43Z"/>
      <path class="cls-1" d="M501.42,31.77l-.22.8-.56.6-.85.35-.99.11h-2.97l-1.6-.15-1.25-.49-1.1-1.01c-.35-.41-.75-.95-1.2-1.61l-8.53-12.03c-.49-.72-.99-1.48-1.51-2.31-.51-.83-.96-1.64-1.38-2.42h-.05c.07.95.13,1.9.16,2.85.04.95.06,1.94.06,2.93v13.46l-.15.36-.5.27-.96.16-1.56.07-1.54-.07-.96-.16-.48-.27-.13-.36V9.73l.73-1.4c.49-.31,1.08-.48,1.79-.48h3.73c.67,0,1.24.05,1.7.14l1.23.44,1.02.83.99,1.29,6.67,9.41,1.14,1.66,1.11,1.65,1.02,1.64.99,1.59h.03c-.05-.94-.09-1.91-.12-2.91-.02-1.01-.03-1.98-.03-2.89v-12.07l.15-.35.53-.3.99-.16,1.55-.06,1.52.06.93.16.46.3.14.35v23.14Z"/>
      <path class="cls-1" d="M521.3,32.88l-.16.35-.56.25-1.07.16c-.43.05-1,.07-1.69.07s-1.24-.03-1.67-.07l-1.08-.16-.57-.25-.16-.35V8.57l.16-.35.58-.26,1.08-.16c.43-.04.99-.06,1.66-.06s1.26.02,1.69.06l1.07.16.56.26.16.35v24.3Z"/>
      <path class="cls-1" d="M551.26,32.68l-.34.55-.69.32-1.29.13c-.55.02-1.27.04-2.16.04-.69,0-1.3-.02-1.81-.02l-1.28-.05-.87-.12-.55-.19-.35-.29-.22-.43-10.2-22.8-.38-1.14.27-.62,1.12-.27c.53-.03,1.28-.05,2.23-.05.81,0,1.45.01,1.91.04l1.05.14.52.3.29.5,8.33,19.83h.04l8.19-19.74.26-.55.54-.31,1.11-.17c.47-.02,1.13-.04,1.96-.04s1.45.02,1.89.05l.92.29.17.66-.42,1.11-10.22,22.82Z"/>
      <polyline class="cls-1" points="592.03 31.55 591.95 32.5 591.76 33.14 591.43 33.48 590.99 33.58 573.77 33.58 572.3 33.21 571.7 31.94 571.7 9.5 572.3 8.25 573.77 7.85 590.89 7.85 591.31 7.96 591.63 8.31 591.83 8.96 591.89 9.94 591.83 10.87 591.63 11.49 591.31 11.85 590.89 11.96 578.65 11.96 578.65 18.24 589.01 18.24 589.45 18.36 589.77 18.69 589.98 19.3 590.04 20.27 589.98 21.19 589.77 21.82 589.45 22.14 589.01 22.23 578.65 22.23 578.65 29.49 590.99 29.49 591.43 29.6 591.76 29.95 591.95 30.57 592.03 31.55"/>
      <path class="cls-1" d="M620.05,15.45h0c0-.85-.26-1.56-.77-2.14-.52-.58-1.35-.99-2.52-1.22l-1.2-.17c-.45-.05-1.06-.05-1.86-.05h-3.13v7.29h3.55c.99,0,1.85-.09,2.59-.27.75-.18,1.36-.43,1.85-.74l1.11-1.16.38-1.52M629.04,32.92l-.11.36-.5.24-1.16.15c-.53.02-1.22.04-2.11.04-.74,0-1.33-.02-1.78-.04l-1.04-.16-.55-.29-.27-.4-3.06-5.74c-.38-.65-.74-1.23-1.09-1.72l-1.18-1.27-1.5-.77c-.56-.17-1.21-.26-1.96-.26h-2.17v9.81l-.17.35-.57.25-1.06.16c-.43.05-1.01.07-1.69.07s-1.23-.03-1.68-.07l-1.07-.16-.56-.25-.15-.35V9.5l.59-1.24,1.46-.4h8.88c.9,0,1.64,0,2.22.05l1.6.09c1.37.14,2.61.41,3.72.76,1.09.38,2.04.83,2.8,1.41.77.58,1.36,1.26,1.76,2.04.41.78.62,1.69.62,2.72,0,.86-.16,1.64-.45,2.36-.29.71-.72,1.34-1.28,1.9-.57.55-1.26,1.04-2.09,1.44-.83.41-1.78.74-2.84,1l1.45.69,1.27.95,1.12,1.3,1.03,1.64,2.9,5.06.52,1.11.14.55"/>
      <path class="cls-1" d="M659.36,25.88c0,1.34-.32,2.53-1,3.55-.67,1.03-1.57,1.88-2.72,2.54-1.15.68-2.49,1.21-4.03,1.55-1.53.34-3.17.51-4.92.51-1.18,0-2.28-.05-3.3-.21-1.02-.15-1.91-.32-2.69-.51-.77-.22-1.42-.44-1.94-.65l-1.13-.6-.49-.73-.15-1.41.05-1.04.16-.67.33-.37.46-.11,1.05.34c.45.21,1.02.45,1.73.72.71.26,1.55.51,2.53.72.97.23,2.11.32,3.4.32.84,0,1.6-.07,2.28-.21.67-.15,1.24-.37,1.7-.64l1.07-1.04.38-1.38-.64-1.49c-.42-.41-.98-.79-1.66-1.11-.67-.32-1.45-.63-2.31-.92-.87-.27-1.77-.59-2.68-.91-.91-.31-1.81-.66-2.67-1.08-.86-.39-1.64-.87-2.32-1.44-.68-.56-1.23-1.22-1.65-1.99-.43-.78-.63-1.69-.63-2.76,0-1.23.3-2.31.9-3.25.6-.94,1.44-1.71,2.48-2.32,1.02-.63,2.24-1.07,3.65-1.4,1.4-.3,2.89-.45,4.46-.45.82,0,1.63.05,2.44.14.81.09,1.58.22,2.28.36.71.17,1.33.35,1.88.54l1.09.51.37.33.15.38.09.56.03.86-.03.99-.14.65-.26.38-.47.12-.92-.29-1.56-.6c-.62-.22-1.33-.42-2.14-.59-.81-.18-1.71-.27-2.68-.27-.75,0-1.41.06-1.98.22l-1.43.56-.84.89-.27,1.1.62,1.47c.41.42.96.79,1.66,1.12.7.32,1.49.62,2.38.91.87.28,1.78.58,2.7.91.91.31,1.82.67,2.7,1.08.89.41,1.67.9,2.36,1.46.69.57,1.25,1.23,1.67,1.99.43.76.63,1.66.63,2.7"/>
      <path class="cls-1" d="M677.1,32.88l-.17.35-.58.25-1.06.16c-.44.05-1,.07-1.69.07s-1.24-.03-1.68-.07l-1.08-.16-.57-.25-.17-.35V8.57l.17-.35.59-.26,1.08-.16c.44-.04.99-.06,1.67-.06s1.25.02,1.69.06l1.06.16.58.26.17.35v24.3Z"/>
      <path class="cls-1" d="M712.81,10l-.06,1-.2.66-.33.36-.44.11h-8.59v20.75l-.16.35-.57.25-1.08.16c-.45.05-1.01.07-1.68.07s-1.23-.02-1.69-.07l-1.07-.16-.56-.25-.18-.35V12.13h-8.59l-.45-.11-.32-.36-.2-.66-.07-1,.07-1,.2-.67.32-.37.45-.11h24.17l.44.11.33.37.2.67.06,1"/>
      <path class="cls-1" d="M730.37,12.77h-.03l-4.84,10.94h9.71l-4.85-10.94ZM746.11,31.64l.4,1.13-.21.64-1.03.25c-.5.04-1.18.06-2.04.06s-1.6-.02-2.1-.04l-1.15-.12-.56-.24-.26-.43-2.31-5.17h-12.87l-2.18,5.03-.27.47-.56.3-1.09.15c-.47.02-1.07.04-1.84.04-.81,0-1.45-.03-1.91-.07l-.95-.29-.19-.63.4-1.13,10.57-22.81.38-.55.67-.32,1.28-.14c.55-.03,1.28-.03,2.18-.03,1.05,0,1.88,0,2.5.03l1.44.14.74.33.39.6,10.59,22.8Z"/>
      <path class="cls-1" d="M772.77,15.45h0c0-.85-.25-1.56-.77-2.14-.5-.58-1.34-.99-2.5-1.22l-1.21-.17c-.46-.05-1.07-.05-1.87-.05h-3.13v7.29h3.55c.99,0,1.86-.09,2.6-.27.74-.18,1.36-.43,1.85-.74l1.11-1.16.37-1.52M781.75,32.92l-.1.36-.51.24-1.17.15c-.51.02-1.21.04-2.09.04-.74,0-1.34-.02-1.78-.04l-1.05-.16-.54-.29-.26-.4-3.06-5.74c-.37-.65-.74-1.23-1.09-1.72l-1.18-1.27-1.5-.77c-.57-.17-1.21-.26-1.96-.26h-2.18v9.81l-.16.35-.58.25-1.05.16c-.44.05-1,.07-1.69.07s-1.24-.03-1.68-.07l-1.07-.16-.56-.25-.16-.35V9.5l.59-1.24,1.48-.4h8.87c.9,0,1.65,0,2.23.05l1.58.09c1.38.14,2.62.41,3.73.76,1.11.38,2.05.83,2.81,1.41.77.58,1.36,1.26,1.76,2.04.41.78.61,1.69.61,2.72,0,.86-.15,1.64-.44,2.36-.29.71-.71,1.34-1.28,1.9-.57.55-1.26,1.04-2.1,1.44-.83.41-1.77.74-2.83,1l1.45.69,1.27.95,1.12,1.3,1.04,1.64,2.88,5.06.53,1.11.13.55"/>
      <path class="cls-1" d="M799.29,32.88l-.17.35-.57.25-1.06.16c-.44.05-1.01.07-1.7.07s-1.23-.03-1.68-.07l-1.08-.16-.57-.25-.17-.35V8.57l.17-.35.59-.26,1.07-.16c.44-.04,1.01-.06,1.67-.06s1.26.02,1.7.06l1.06.16.57.26.17.35v24.3Z"/>
      <path class="cls-1" d="M824.54,12.77h-.03l-4.85,10.94h9.73l-4.85-10.94ZM840.27,31.64l.39,1.13-.21.64-1.04.25c-.49.04-1.17.06-2.04.06s-1.6-.02-2.1-.04l-1.15-.12-.55-.24-.26-.43-2.3-5.17h-12.88l-2.17,5.03-.28.47-.55.3-1.1.15c-.47.02-1.08.04-1.84.04-.81,0-1.45-.03-1.91-.07l-.96-.29-.18-.63.39-1.13,10.58-22.81.36-.55.68-.32,1.29-.14c.55-.03,1.27-.03,2.17-.03,1.04,0,1.87,0,2.49.03l1.44.14.74.33.38.6,10.61,22.8Z"/>
      <path class="cls-1" d="M92.37,70.6h0c0-2.08-.49-3.79-1.46-5.12-.97-1.34-2.17-2.34-3.59-2.98-1.43-.64-2.92-1.04-4.47-1.21-1.56-.16-3.18-.24-4.85-.24h-6.82v20.05h7.18c2.56,0,4.7-.26,6.43-.78,1.73-.51,3.13-1.23,4.23-2.16,1.1-.93,1.92-2.05,2.5-3.34.57-1.29.85-2.7.85-4.23M109.13,69.73c0,3.31-.69,6.26-2.07,8.81-1.38,2.56-3.39,4.72-6.04,6.46-2.64,1.76-5.88,3.08-9.71,4-3.84.91-8.36,1.37-13.55,1.37h-6.58v18.89l-.39.81-1.31.6c-.61.15-1.42.27-2.44.36-1.01.1-2.32.14-3.9.14s-2.83-.05-3.87-.14c-1.03-.09-1.86-.21-2.46-.36l-1.29-.6-.36-.81v-53.21c0-1.43.49-2.51,1.49-3.22.99-.72,2.3-1.07,3.92-1.07h18.58c1.87,0,3.64.06,5.33.17,1.68.1,3.7.32,6.06.67,2.36.36,4.74,1.01,7.16,1.95,2.41.94,4.48,2.15,6.18,3.59,1.7,1.45,3,3.14,3.89,5.07.9,1.94,1.35,4.11,1.35,6.52"/>
      <path class="cls-1" d="M137.6,63.06h-.06l-11.14,25.13h22.35l-11.14-25.13ZM173.77,106.43c.49,1.1.8,1.96.92,2.6.12.65-.05,1.12-.49,1.44-.45.32-1.24.52-2.38.6-1.14.06-2.7.11-4.69.11s-3.69-.03-4.84-.08c-1.16-.04-2.05-.14-2.65-.27l-1.28-.57-.6-.96-5.3-11.88h-29.61l-4.99,11.56-.64,1.08-1.28.69c-.59.17-1.42.28-2.49.34-1.08.07-2.49.1-4.24.1-1.86,0-3.32-.05-4.38-.14-1.06-.09-1.78-.31-2.19-.66-.41-.35-.55-.85-.43-1.49.12-.63.43-1.49.91-2.55l24.3-52.48.85-1.26c.33-.32.85-.56,1.56-.73.71-.16,1.7-.27,2.96-.32,1.26-.04,2.91-.06,4.99-.06,2.4,0,4.31.03,5.73.06,1.42.05,2.54.16,3.31.32.79.17,1.36.43,1.71.76l.88,1.37,24.36,52.43Z"/>
      <path class="cls-1" d="M227.65,93.18c0,3.11-.78,5.83-2.31,8.19-1.55,2.35-3.64,4.31-6.28,5.87-2.64,1.56-5.72,2.75-9.26,3.54-3.53.79-7.31,1.2-11.33,1.2-2.72,0-5.25-.18-7.59-.51-2.33-.33-4.39-.74-6.18-1.21-1.79-.47-3.28-.96-4.48-1.49-1.19-.52-2.06-.97-2.58-1.37-.53-.4-.91-.97-1.13-1.71-.23-.75-.34-1.82-.34-3.22,0-.95.04-1.74.12-2.38.08-.64.21-1.16.39-1.55l.74-.85,1.07-.25c.56,0,1.36.25,2.4.76,1.04.49,2.36,1.06,3.99,1.66,1.62.61,3.56,1.16,5.81,1.67,2.25.51,4.86.76,7.83.76,1.94,0,3.69-.17,5.23-.53,1.55-.35,2.86-.84,3.93-1.48,1.08-.64,1.89-1.44,2.47-2.38.56-.94.85-1.99.85-3.15,0-1.35-.49-2.5-1.46-3.45-.98-.97-2.25-1.81-3.81-2.57-1.56-.74-3.34-1.44-5.32-2.09-2-.66-4.05-1.35-6.16-2.08-2.11-.74-4.16-1.57-6.15-2.49-2-.94-3.77-2.04-5.33-3.34-1.56-1.3-2.83-2.83-3.8-4.6-.98-1.76-1.46-3.88-1.46-6.34,0-2.84.7-5.33,2.1-7.48,1.4-2.15,3.29-3.93,5.67-5.34,2.37-1.42,5.17-2.48,8.4-3.18,3.23-.7,6.65-1.05,10.27-1.05,1.87,0,3.73.1,5.6.31,1.87.22,3.62.51,5.24.88,1.63.36,3.07.77,4.33,1.23,1.26.46,2.09.84,2.49,1.14l.83.78.36.84.22,1.32c.04.54.05,1.2.05,1.99,0,.9-.02,1.63-.08,2.25l-.3,1.51-.62.87-1.06.27c-.45,0-1.16-.21-2.14-.64-.96-.42-2.17-.89-3.58-1.4-1.43-.5-3.07-.96-4.94-1.37-1.86-.41-3.91-.61-6.14-.61-1.75,0-3.27.15-4.57.47-1.3.32-2.39.76-3.26,1.33-.88.56-1.52,1.24-1.95,2.02-.43.79-.64,1.64-.64,2.52,0,1.31.48,2.45,1.44,3.41.95.96,2.23,1.81,3.83,2.56,1.61.74,3.42,1.44,5.45,2.09,2.04.66,4.11,1.35,6.22,2.09,2.1.73,4.18,1.56,6.2,2.5,2.03.92,3.84,2.03,5.42,3.33,1.59,1.29,2.86,2.82,3.84,4.57.97,1.75,1.46,3.8,1.46,6.19"/>
      <path class="cls-1" d="M290.53,101.95c0,.76-.03,1.42-.09,1.95l-.28,1.37-.49.99-.97.94c-.45.35-1.31.79-2.59,1.33-1.27.56-2.84,1.08-4.68,1.58-1.85.5-3.96.92-6.34,1.26-2.38.33-4.95.5-7.71.5-5.39,0-10.27-.62-14.61-1.88-4.34-1.24-8.04-3.11-11.08-5.6-3.04-2.48-5.38-5.58-7-9.3-1.63-3.71-2.44-8.04-2.44-12.98s.89-9.5,2.68-13.4c1.78-3.91,4.28-7.18,7.49-9.83,3.21-2.65,7.06-4.67,11.54-6.04,4.49-1.37,9.44-2.05,14.83-2.05,2.2,0,4.3.13,6.34.41,2.03.27,3.9.62,5.63,1.06,1.73.45,3.28.96,4.66,1.54,1.38.58,2.35,1.08,2.89,1.49l1.12,1.03.5,1.05.27,1.51c.06.58.09,1.29.09,2.15,0,.91-.04,1.68-.12,2.32-.09.65-.23,1.17-.43,1.56l-.73.88-.98.28c-.61,0-1.39-.26-2.32-.8-.93-.54-2.14-1.12-3.63-1.79-1.48-.65-3.25-1.25-5.3-1.78-2.05-.53-4.5-.8-7.34-.8-3.13,0-5.93.48-8.38,1.44-2.45.97-4.55,2.34-6.27,4.12-1.74,1.78-3.04,3.94-3.94,6.45-.9,2.54-1.34,5.39-1.34,8.55,0,3.48.48,6.49,1.43,9.02.95,2.56,2.31,4.65,4.08,6.29,1.77,1.66,3.89,2.88,6.39,3.68,2.5.81,5.3,1.21,8.44,1.21,2.85,0,5.3-.25,7.37-.76,2.07-.5,3.84-1.05,5.33-1.66,1.48-.6,2.7-1.15,3.65-1.65.95-.48,1.7-.73,2.23-.73l.96.19.61.73c.16.36.29.88.37,1.52.09.66.12,1.53.12,2.63"/>
      <path class="cls-1" d="M362.5,88.88c0,3.63-.72,6.87-2.14,9.74-1.42,2.87-3.51,5.29-6.27,7.27-2.76,1.98-6.18,3.49-10.23,4.53-4.06,1.03-8.73,1.56-14,1.56-4.96,0-9.41-.47-13.35-1.4-3.94-.93-7.27-2.34-9.99-4.22-2.72-1.89-4.8-4.25-6.24-7.06-1.44-2.82-2.16-6.12-2.16-9.9v-35.98l.37-.81,1.31-.6c.63-.16,1.45-.28,2.46-.37,1.02-.09,2.32-.14,3.9-.14s2.82.05,3.84.14c1.01.09,1.83.21,2.44.37l1.31.6.4.81v34.93c0,2.35.38,4.38,1.15,6.1.78,1.72,1.88,3.15,3.32,4.28,1.44,1.12,3.17,1.97,5.18,2.53,2.02.56,4.26.85,6.73.85s4.77-.3,6.76-.87c1.99-.58,3.67-1.42,5.05-2.54,1.39-1.11,2.45-2.49,3.2-4.11.75-1.63,1.12-3.48,1.12-5.55v-35.61l.36-.81,1.28-.6c.61-.16,1.43-.28,2.46-.37,1.04-.09,2.32-.14,3.86-.14s2.82.05,3.81.14c.99.09,1.8.21,2.41.37l1.28.6.37.81v35.47Z"/>
      <path class="cls-1" d="M400.78,63.06h-.06l-11.15,25.13h22.35l-11.14-25.13ZM436.96,106.43c.48,1.1.79,1.96.91,2.6.12.65-.04,1.12-.49,1.44-.45.32-1.23.52-2.37.6-1.15.06-2.71.11-4.7.11s-3.69-.03-4.85-.08c-1.16-.04-2.04-.14-2.65-.27l-1.28-.57-.61-.96-5.3-11.88h-29.6l-4.99,11.56-.65,1.08-1.28.69c-.59.17-1.42.28-2.49.34-1.08.07-2.49.1-4.23.1-1.87,0-3.34-.05-4.39-.14-1.05-.09-1.79-.31-2.2-.66-.4-.35-.54-.85-.42-1.49.12-.63.42-1.49.91-2.55l24.3-52.48.86-1.26c.32-.32.84-.56,1.55-.73.71-.16,1.69-.27,2.95-.32,1.26-.04,2.92-.06,4.99-.06,2.4,0,4.31.03,5.73.06,1.43.05,2.53.16,3.32.32.8.17,1.36.43,1.71.76l.89,1.37,24.36,52.43Z"/>
      <path class="cls-1" d="M486.54,105.88c0,.91-.05,1.69-.16,2.3l-.45,1.56-.77.89-1.06.28h-36.13c-1.33,0-2.46-.3-3.38-.89-.91-.59-1.37-1.57-1.37-2.9v-53.72l.4-.81,1.31-.6c.6-.15,1.43-.27,2.47-.36,1.03-.09,2.32-.14,3.86-.14s2.89.05,3.9.14c1.02.09,1.83.21,2.44.36l1.31.6.4.81v47.59h24.79l1.06.26.77.82.45,1.5c.11.63.16,1.4.16,2.31"/>
      <path class="cls-1" d="M556.02,93.59h0c0-1.37-.3-2.6-.92-3.68-.6-1.08-1.5-1.98-2.67-2.71-1.19-.73-2.68-1.29-4.51-1.7-1.83-.39-4.2-.59-7.12-.59h-9.5v16.82h11.57c2.23,0,4.11-.17,5.64-.52,1.52-.34,2.84-.86,3.96-1.55,1.11-.68,1.98-1.54,2.61-2.55.63-1.03.95-2.19.95-3.5M551.94,68.27h0c0-1.19-.25-2.25-.74-3.19-.48-.95-1.21-1.73-2.19-2.36-.97-.63-2.2-1.11-3.68-1.44-1.49-.34-3.46-.5-5.94-.5h-8.1v15.36h8.95c2.31,0,4.16-.21,5.54-.62,1.38-.41,2.53-.98,3.44-1.7.92-.71,1.6-1.54,2.04-2.51.45-.96.68-1.97.68-3.04M572.65,93.18c0,2.11-.39,4.01-1.15,5.71-.77,1.71-1.84,3.21-3.2,4.52-1.36,1.32-2.99,2.44-4.87,3.38-1.89.95-3.97,1.73-6.25,2.33-2.27.63-4.7,1.06-7.28,1.36-2.58.3-5.45.43-8.61.43h-20.96c-1.34,0-2.46-.3-3.38-.89-.91-.6-1.37-1.57-1.37-2.9v-51.57c0-1.34.46-2.3,1.37-2.9.91-.59,2.04-.89,3.38-.89h19.8c4.83,0,8.92.31,12.27.92,3.35.61,6.17,1.52,8.46,2.76,2.3,1.24,4.05,2.8,5.27,4.69,1.22,1.89,1.82,4.11,1.82,6.68,0,1.43-.24,2.78-.72,4.04-.49,1.26-1.21,2.41-2.13,3.45-.94,1.04-2.08,1.96-3.44,2.74-1.36.8-2.91,1.43-4.66,1.92,2.23.3,4.28.84,6.17,1.6,1.9.76,3.54,1.75,4.93,2.94,1.41,1.2,2.51,2.62,3.33,4.22.81,1.62,1.22,3.43,1.22,5.44"/>
      <path class="cls-1" d="M618.71,69.23h0c0-1.95-.6-3.6-1.77-4.94-1.17-1.34-3.1-2.28-5.79-2.82-.81-.16-1.74-.28-2.77-.37-1.04-.1-2.46-.15-4.3-.15h-7.19v16.78h8.17c2.27,0,4.26-.2,5.97-.61,1.7-.41,3.12-.99,4.26-1.74,1.14-.74,1.99-1.64,2.56-2.67.57-1.04.86-2.2.86-3.48M639.35,109.35l-.24.84-1.16.57c-.61.15-1.5.26-2.69.32-1.17.07-2.77.1-4.8.1-1.71,0-3.07-.03-4.08-.1-1.02-.06-1.82-.17-2.4-.34l-1.25-.64-.61-.94-7.07-13.21c-.85-1.49-1.69-2.82-2.49-3.97-.81-1.16-1.72-2.13-2.71-2.91-1-.78-2.14-1.36-3.44-1.75-1.3-.39-2.8-.6-4.51-.6h-4.99v22.54l-.39.82-1.31.59c-.61.15-1.43.28-2.44.36-1.02.1-2.31.15-3.9.15s-2.83-.05-3.87-.15c-1.04-.09-1.85-.21-2.46-.36l-1.28-.59-.37-.82v-53.71c0-1.34.46-2.31,1.37-2.9.91-.6,2.04-.89,3.38-.89h20.4c2.07,0,3.78.04,5.11.09,1.34.06,2.56.14,3.65.23,3.17.34,6.03.92,8.57,1.74,2.52.82,4.69,1.91,6.45,3.22,1.76,1.33,3.11,2.89,4.04,4.71.94,1.81,1.4,3.89,1.4,6.24,0,1.98-.33,3.78-1,5.4-.67,1.64-1.66,3.09-2.96,4.37-1.3,1.28-2.9,2.39-4.81,3.34-1.91.94-4.08,1.72-6.52,2.28,1.18.44,2.29.95,3.32,1.56,1.04.62,2.01,1.35,2.92,2.21.91.87,1.78,1.86,2.58,2.98.82,1.11,1.61,2.37,2.38,3.77l6.64,11.65c.61,1.15,1.01,2.01,1.22,2.55l.3,1.25"/>
      <path class="cls-1" d="M679.86,63.06h-.06l-11.15,25.13h22.35l-11.15-25.13ZM716.04,106.43c.49,1.1.8,1.96.91,2.6.12.65-.04,1.12-.49,1.44-.45.32-1.24.52-2.37.6-1.14.06-2.71.11-4.7.11s-3.69-.03-4.84-.08c-1.16-.04-2.05-.14-2.65-.27l-1.27-.57-.61-.96-5.3-11.88h-29.6l-5,11.56-.64,1.08-1.28.69c-.59.17-1.43.28-2.5.34-1.07.07-2.49.1-4.24.1-1.87,0-3.33-.05-4.39-.14-1.04-.09-1.78-.31-2.19-.66-.4-.35-.55-.85-.42-1.49.12-.63.42-1.49.91-2.55l24.3-52.48.85-1.26c.33-.32.84-.56,1.56-.73.71-.16,1.7-.27,2.95-.32,1.25-.04,2.92-.06,4.99-.06,2.4,0,4.31.03,5.73.06,1.43.05,2.53.16,3.32.32.79.17,1.36.43,1.71.76l.88,1.37,24.36,52.43Z"/>
      <path class="cls-1" d="M751.41,108.82l-.79,1.25c-.33.32-.85.56-1.59.73-.73.17-1.73.28-2.98.31-1.26.05-2.9.08-4.94.08-1.62,0-3.01,0-4.17-.03-1.16-.02-2.14-.05-2.96-.11-.81-.05-1.47-.15-1.97-.27l-1.28-.45-.79-.67-.53-.97-23.45-52.44c-.48-1.11-.78-1.96-.88-2.6l.61-1.44c.5-.32,1.37-.51,2.58-.59,1.22-.08,2.92-.11,5.12-.11,1.86,0,3.33.03,4.39.09,1.05.06,1.86.17,2.43.33l1.2.69.63,1.14,19.19,45.62h.05l18.83-45.39.6-1.26,1.25-.76c.59-.19,1.44-.31,2.53-.37,1.1-.05,2.6-.09,4.51-.09s3.32.04,4.35.14c1.04.09,1.75.31,2.14.66.37.36.5.85.36,1.5-.14.63-.46,1.49-.94,2.55l-23.51,52.49Z"/>
      <path class="cls-1" d="M829.11,81.3h0c0-3.12-.33-5.95-.97-8.49-.65-2.54-1.76-4.72-3.32-6.54-1.56-1.81-3.64-3.22-6.24-4.21-2.6-.98-5.85-1.48-9.74-1.48s-7.24.56-9.87,1.67c-2.64,1.12-4.76,2.6-6.39,4.46-1.63,1.86-2.77,4.03-3.45,6.52-.67,2.49-1,5.11-1,7.88,0,3.23.33,6.14.98,8.72.65,2.57,1.74,4.78,3.29,6.6,1.54,1.83,3.6,3.22,6.21,4.18,2.6.97,5.86,1.44,9.8,1.44s7.23-.54,9.87-1.64c2.64-1.1,4.77-2.59,6.39-4.49,1.63-1.89,2.77-4.09,3.45-6.6.66-2.51,1-5.19,1-8.02M845.92,80.65c0,4.91-.81,9.29-2.43,13.17-1.63,3.86-4.04,7.15-7.25,9.84-3.21,2.71-7.18,4.75-11.9,6.18-4.74,1.41-10.2,2.13-16.41,2.13s-11.48-.6-16.05-1.82c-4.57-1.2-8.38-3.03-11.43-5.5-3.04-2.48-5.33-5.61-6.85-9.42-1.53-3.81-2.28-8.32-2.28-13.53,0-4.78.81-9.08,2.44-12.91,1.62-3.82,4.05-7.08,7.24-9.76,3.21-2.68,7.18-4.74,11.91-6.17,4.74-1.44,10.22-2.15,16.48-2.15s11.25.59,15.81,1.77c4.56,1.2,8.38,3.02,11.45,5.49,3.06,2.47,5.37,5.59,6.94,9.35,1.56,3.76,2.34,8.2,2.34,13.32"/>
      <path class="cls-1" d="M863.86,84.81c-7.51,0-13.6,6.1-13.6,13.61s6.09,13.61,13.6,13.61,13.6-6.09,13.6-13.61-6.09-13.61-13.6-13.61M863.86,109.32c-6.02,0-10.9-4.88-10.9-10.9s4.88-10.9,10.9-10.9,10.9,4.88,10.9,10.9-4.88,10.9-10.9,10.9"/>
      <path class="cls-1" d="M860.94,105.57h-1.84v-14.29h5.43c2.48,0,3.71,1.32,3.71,3.98,0,1.54-.32,2.28-1.43,3.25,1,.8,1.14,1.25,1.19,3.59.05,1.93.1,2.25.61,2.67v.8h-2.08c-.24-.68-.42-1.67-.4-2.38l.02-1.48c.03-1.38-.52-2.09-1.69-2.09h-3.53v5.94ZM864.34,97.6c1.4,0,1.98-.64,1.98-2.22,0-1.44-.61-2.09-1.98-2.09h-3.4v4.3h3.4Z"/>
      <path class="cls-1" d="M430.02,139.02l-1.46.3-1.04.81-.68,1.25-.16.57h6.5c-.09-.83-.35-1.49-.76-1.99-.52-.64-1.31-.94-2.41-.94"/>
      <path class="cls-1" d="M375.32,140.58l-1.13-1.03c-.48-.25-1.11-.38-1.88-.38-.7,0-1.31.12-1.79.35l-1.17.99-.74,1.64c-.17.68-.26,1.43-.26,2.24s.07,1.55.22,2.23l.66,1.65,1.14,1.03c.91.49,2.63.52,3.65.03l1.18-.98.73-1.63c.17-.68.25-1.44.25-2.26,0-.78-.07-1.52-.22-2.22l-.65-1.67"/>
      <path class="cls-1" d="M609.39,146.29l-1.12.45-.53.57-.17.84.47,1.25c.63.58,2.05.67,3.14.02l1.56-1.31v-2h-1.5c-.71,0-1.34.06-1.85.17"/>
      <path class="cls-1" d="M547.89,146.29l-1.13.45-.53.57-.17.84.47,1.25c.62.57,2.06.66,3.14.02l1.56-1.31v-2h-1.5c-.72,0-1.34.06-1.85.17"/>
      <polygon class="cls-1" points="490.52 143.45 495.68 143.45 493.09 136.04 490.52 143.45"/>
      <path class="cls-1" d="M245.17,139.02l-1.46.3-1.03.81-.68,1.25-.16.57h6.5c-.09-.83-.35-1.49-.75-1.99-.52-.64-1.31-.94-2.41-.94"/>
      <path class="cls-1" d="M348.74,139.83l-1.73-.59-1.33.36-.95,1.06-.59,1.66c-.14.66-.2,1.34-.2,2.01,0,.74.06,1.47.17,2.17.1.65.29,1.24.54,1.73l.9,1.07c.52.36,1.38.48,2.17.24l.84-.4,1.04-.85,1-1.08v-5.61c-.64-.76-1.26-1.36-1.85-1.76"/>
      <polygon class="cls-1" points="178.74 143.45 183.9 143.45 181.3 136.04 178.74 143.45"/>
      <path class="cls-1" d="M322.78,146.29l-1.12.45-.53.57-.17.84.47,1.25c.63.58,2.05.67,3.14.02l1.56-1.31v-2h-1.5c-.71,0-1.34.06-1.85.17"/>
      <path class="cls-1" d="M270.11,139.83l-1.73-.59-1.33.36-.95,1.06-.59,1.66c-.14.66-.2,1.34-.2,2.01,0,.74.06,1.47.18,2.17.1.65.29,1.23.54,1.73l.9,1.07c.51.36,1.38.47,2.17.24l.84-.4,1.04-.85,1-1.08v-5.61c-.64-.76-1.26-1.36-1.85-1.76"/>
      <path class="cls-1" d="M663.24,139.83l-1.73-.59-1.33.36-.95,1.06-.6,1.66c-.13.65-.2,1.33-.2,2.01,0,.75.06,1.47.17,2.17.1.65.29,1.24.54,1.73l.9,1.07c.52.36,1.38.47,2.17.24l.84-.4,1.04-.85.99-1.08v-5.61c-.64-.76-1.26-1.36-1.85-1.76"/>
      <path class="cls-1" d="M710.65,139.83l-1.73-.59-1.33.36-.95,1.06-.59,1.66c-.14.65-.2,1.33-.2,2.01,0,.75.06,1.47.17,2.17.1.65.29,1.24.54,1.73l.9,1.07c.51.36,1.37.47,2.18.24l.84-.4,1.04-.85.99-1.08v-5.61c-.64-.76-1.26-1.36-1.85-1.76"/>
      <path class="cls-1" d="M684.69,146.29l-1.13.45-.53.57-.17.84.47,1.25c.62.57,2.05.66,3.14.02l1.56-1.31v-2h-1.5c-.71,0-1.34.06-1.85.17"/>
      <path class="cls-1" d="M55.16,160.57h785.52v-36.5H55.16v36.5ZM191.7,153.39l-1,.39-.97.04-.94-.03-.75-.14-.67-.49-.26-.45-1.75-4.94h-8.03l-1.63,4.79-.29.54-.6.48-.78.2h-1.86s-.98-.42-.98-.42l-.43-1.1.21-.92,7.58-21,.39-.65.74-.45.78-.14h1.93s.81.14.81.14l.76.45.4.66h0s7.59,21.01,7.59,21.01l.21.91-.45,1.11M212.46,150.52l-.1.56-.18.45-.45.56-.92.69-1.34.65-1.58.45-1.78.18c-1.26,0-2.4-.21-3.38-.64-1.01-.43-1.87-1.08-2.56-1.91-.67-.81-1.18-1.81-1.53-2.97-.33-1.13-.5-2.44-.5-3.89,0-1.65.21-3.1.62-4.3.42-1.24,1.01-2.27,1.76-3.08.76-.81,1.66-1.43,2.69-1.82,1.48-.57,3.26-.74,4.88-.42l1.46.41,1.24.62.83.63.42.49.24.51.11.59.02.6c0,.64-.09,1.1-.29,1.44-.49.86-1.52,1.01-2.44.24l-.78-.57-1.08-.54-1.41-.22c-1.08,0-1.84.37-2.4,1.18-.62.9-.94,2.28-.94,4.09,0,.93.09,1.75.26,2.43.16.64.4,1.17.69,1.58l1,.84c.81.37,2.06.37,2.83.05l1.14-.6.85-.63,1.2-.53h.34l.47.28.45.65h0s.14.66.14.66l.03.7-.02.59M231.21,138.33l-.12.66-.37.6-.28.28-.61.08-.69-.14-.39-.14-.5-.13-.95.05-.63.41-.84.92-.92,1.33v10.06l-.25.8-.62.48-.71.18-.84.04-.82-.04-.7-.17-.67-.55-.2-.74v-15.73l.18-.7.6-.56.74-.21h1.5l.76.22.53.48.19.45.82-.66,1.3-.6c.57-.15,1.08-.2,1.84-.14l.74.11.66.19.68.36.16.14.23.36.13.4h0s.05.53.05.53v.67s-.01.71-.01.71M253.19,143.77c0,.75-.23,1.32-.68,1.7l-1.4.52h-9.36l.19,1.17.69,1.42,1.21.87c.98.41,2.72.4,3.85.17l1.39-.37.99-.38,1.01-.27h.29l.46.22.5.59.16.62.03.65-.02.49-.06.38-.2.54-.3.38-.86.51-1.36.48c-.54.15-1.15.28-1.84.4-.71.12-1.48.18-2.27.18-1.4,0-2.66-.2-3.73-.6-1.11-.41-2.06-1.04-2.83-1.85-.76-.81-1.34-1.84-1.72-3.04-.36-1.15-.55-2.51-.55-4.03s.19-2.77.57-3.94c.39-1.2.96-2.24,1.7-3.08.75-.85,1.66-1.52,2.73-1.98,2.16-.94,5.14-.88,7.06,0,1,.45,1.83,1.07,2.48,1.85h0c.64.78,1.12,1.69,1.41,2.71.29.99.43,2.05.43,3.16v.52ZM276.79,152.32l-.19.72-.69.58-.61.15h-1.48l-.62-.15-.66-.51-.24-.7-1.15.76c-1.03.58-2.18.87-3.4.87-1.31,0-2.46-.26-3.41-.79-.95-.52-1.73-1.24-2.32-2.13-.57-.85-.99-1.87-1.25-3.01-.25-1.09-.38-2.26-.38-3.47,0-1.43.16-2.75.47-3.91.32-1.21.81-2.26,1.45-3.12.66-.88,1.49-1.58,2.47-2.06,1.82-.89,4.38-1.03,6.32,0l.86.52v-7.04l.18-.69.78-.63.6-.15h1.71l.63.16.68.52.26.79v23.28ZM290.73,152.32l-.26.81-.6.47-.71.18-.84.04-.82-.04-.7-.17-.66-.53-.21-.75v-16l.2-.45.68-.57.69-.17h1.66l.72.18h0l.63.52.16.24.07.52v15.73ZM290.38,133.35c-.45.43-1.13.63-2.08.63s-1.61-.2-2.05-.63c-.45-.43-.67-1.1-.67-2.05s.22-1.64.68-2.07c.45-.43,1.13-.64,2.08-.64s1.61.21,2.05.63c.45.43.67,1.1.67,2.05s-.22,1.64-.68,2.08M305.7,149.28c.06.11.2.35.89.35l.49-.05.48-.14.33-.13.72-.17h.25l.38.16.57.69.12.49.05.69-.1,1.03-.47.9-.7.45-.83.26-.85.15-.92.06c-.93,0-1.75-.13-2.43-.39-.73-.27-1.35-.7-1.83-1.25-.47-.55-.81-1.24-1.01-2.05-.19-.74-.28-1.62-.28-2.6v-8.23h-1.24l-1.26-.76-.28-1.39.06-.74.19-.61.59-.64.71-.18h1.23v-3.04l.19-.45.65-.57.74-.2h1.66l.76.22.58.5.16.24.07.52v2.78h3.08l.74.2.54.58.22.69.05.71-.28,1.38-1.26.77h-3.08v7.81c0,1.13.19,1.7.35,1.97M330.92,152.33l-.52,1.08-.77.33h-1.82l-.83-.37-.39-.6-.99.56c-.97.47-2.01.71-3.1.71-.93,0-1.79-.12-2.55-.37-.78-.25-1.47-.63-2.04-1.12-.58-.49-1.03-1.11-1.35-1.84-.31-.71-.48-1.53-.48-2.42,0-1.05.23-1.98.66-2.78.44-.79,1.07-1.45,1.88-1.97.76-.49,1.71-.86,2.79-1.1,1.04-.23,2.22-.35,3.51-.35h1.2v-.26l-.16-1.35-.4-.76-.72-.44c-.74-.26-2.11-.24-3,.03l-1.35.5-.99.52c-.88.51-1.42.48-1.91.15l-.48-.53-.23-.69-.04-.63.09-.92.57-.95,1.03-.69,1.47-.62c.54-.18,1.13-.33,1.78-.45,1.83-.35,3.8-.19,5.16.25.94.3,1.71.77,2.31,1.37.6.6,1.04,1.36,1.3,2.24.25.83.37,1.78.37,2.85v10.61ZM355.42,152.32l-.19.72-.69.58-.61.15h-1.48l-.61-.15-.67-.51-.24-.7-1.15.76c-1.03.58-2.17.87-3.4.87-1.31,0-2.46-.26-3.41-.79-.95-.52-1.73-1.24-2.32-2.13-.57-.85-.99-1.87-1.25-3.01-.25-1.09-.37-2.26-.37-3.47,0-1.43.16-2.75.47-3.91.32-1.2.81-2.25,1.45-3.11.66-.89,1.49-1.59,2.47-2.06,1.82-.89,4.39-1.03,6.32,0l.85.52v-7.04l.18-.7.77-.62.6-.15h1.72l.62.16.68.53.25.78v23.28ZM380.55,148.1c-.37,1.2-.95,2.25-1.7,3.13-.76.89-1.73,1.59-2.86,2.08-1.12.49-2.43.74-3.89.74s-2.67-.22-3.74-.65c-1.1-.44-2.03-1.09-2.77-1.94-.73-.84-1.28-1.86-1.63-3.03-.34-1.14-.51-2.43-.51-3.84s.18-2.66.54-3.82c.37-1.2.94-2.25,1.69-3.13.76-.89,1.73-1.59,2.86-2.08,2.2-.95,5.45-.95,7.63-.08,1.1.44,2.04,1.09,2.77,1.94.73.83,1.28,1.85,1.64,3.02.35,1.13.52,2.42.52,3.83s-.19,2.66-.55,3.83M400.42,150.59c-.36.76-.88,1.41-1.54,1.94-.64.51-1.41.89-2.28,1.15-.84.25-1.77.37-2.77.37l-1.76-.15-1.5-.36-1.16-.48-.82-.54-.55-.94-.12-1.12.04-.7.14-.57.55-.69.23-.14.48-.06,1.08.38.85.48,1.15.45c.7.22,1.78.26,2.53.07l.72-.32.37-.42.13-.69-.15-.54-.64-.57-1.09-.54-1.46-.57-1.55-.72-1.48-1.07-1.11-1.59c-.28-.62-.43-1.36-.43-2.19,0-.75.15-1.47.44-2.15.29-.69.74-1.31,1.32-1.83.57-.51,1.28-.91,2.1-1.21,1.18-.43,2.72-.58,4.25-.32l1.26.29,1.02.4.69.41.49.52.2.54.06.37.04.61-.03.63-.16.63-.49.61-.25.16-.49.06-.98-.35-.65-.35-.98-.36c-.64-.19-1.61-.21-2.2-.03l-.57.28-.29.38-.1.53.15.56.65.58,1.12.55,1.47.58,1.54.7,1.51,1.05,1.11,1.55c.29.62.43,1.34.43,2.16,0,.94-.18,1.8-.54,2.56M438.05,143.77c0,.75-.23,1.32-.68,1.7l-1.4.52h-9.36l.19,1.17.69,1.43,1.21.87c.99.4,2.72.4,3.85.17l1.39-.37.99-.38,1.02-.27h.29l.46.22.51.6.15.61.03.65-.02.49-.06.38-.2.54-.3.38-.86.51-1.36.48c-.53.15-1.14.28-1.84.4-.71.12-1.47.18-2.27.18-1.4,0-2.65-.2-3.73-.6-1.11-.41-2.06-1.04-2.82-1.86-.76-.81-1.34-1.83-1.72-3.04-.36-1.16-.55-2.52-.55-4.03s.19-2.77.57-3.94c.39-1.2.96-2.24,1.71-3.08.75-.86,1.66-1.52,2.72-1.98,2.17-.94,5.14-.88,7.06,0,.99.45,1.82,1.07,2.48,1.85h0c.64.78,1.12,1.69,1.42,2.71.29.98.43,2.04.43,3.16v.52ZM461.71,152.32l-.26.81-.6.47-.71.18-.82.04-.84-.04-.71-.18-.61-.48-.25-.8v-9.21c0-.81-.06-1.46-.18-1.93l-.48-1.12-.67-.59c-.65-.32-1.66-.32-2.66.38-.58.41-1.21,1.03-1.87,1.82v10.65l-.26.81-.6.47-.71.18h-1.65l-.7-.17-.67-.55-.21-.74v-15.73l.17-.69.61-.57.74-.21h1.5l.76.23.53.49.21.62,1.25-.81c2.18-1.14,4.59-.96,6.19-.16.85.42,1.55.99,2.09,1.71.52.7.89,1.51,1.11,2.44.21.87.32,1.91.32,3.1v9.6ZM503.48,153.39l-1,.39-.97.04-.95-.03-.75-.14-.67-.49-.26-.46-1.74-4.93h-8.04l-1.63,4.79-.29.55-.6.47-.77.2h-1.86s-.98-.42-.98-.42l-.43-1.1.21-.92,7.58-21,.39-.65.74-.45.78-.14h1.93s.82.14.82.14l.76.45.4.66h0s7.59,21.01,7.59,21.01l.2.91-.45,1.12M515.84,152.32l-.25.8-.61.48-.71.18-.84.04-.82-.04-.7-.17-.67-.55-.21-.74v-23.35l.2-.74.68-.56.7-.18h1.66l.71.18.63.5.24.79v23.35ZM530.81,149.28c.06.1.2.35.89.35l.48-.05.48-.14.33-.13.73-.17h.25l.38.16.56.68.12.5.05.69-.1,1.03-.47.9-.7.45-.82.26-.85.15-.93.06c-.93,0-1.75-.13-2.43-.39-.74-.27-1.35-.7-1.83-1.26-.47-.55-.81-1.24-1.01-2.05-.19-.74-.28-1.61-.28-2.6v-8.23h-1.24l-1.25-.77-.28-1.38.06-.75.19-.6.59-.64.71-.18h1.23v-3.04l.19-.45.65-.57.74-.2h1.66l.76.22.58.5.16.24.07.52v2.78h3.08l.74.2.54.59.21.68.05.71-.28,1.38-1.26.77h-3.08v7.81c0,1.13.19,1.7.35,1.97M556.03,152.33l-.52,1.08-.77.33h-1.83l-.83-.37-.39-.6-.99.56c-.97.47-2.01.71-3.1.71-.93,0-1.78-.12-2.54-.37-.79-.25-1.47-.63-2.05-1.12-.58-.5-1.03-1.11-1.35-1.84-.31-.71-.48-1.53-.48-2.42,0-1.05.23-1.98.66-2.77.44-.79,1.07-1.45,1.88-1.97.76-.49,1.71-.86,2.79-1.1,1.04-.23,2.22-.35,3.51-.35h1.21v-.26l-.16-1.35-.4-.76-.72-.44c-.74-.26-2.11-.24-3,.03l-1.34.5-.99.52c-.86.5-1.41.48-1.91.15l-.48-.52-.23-.7-.05-.63.09-.92.56-.94,1.03-.69,1.47-.62c.54-.18,1.13-.33,1.77-.45,1.83-.35,3.8-.19,5.16.25.94.3,1.71.76,2.31,1.37.6.6,1.04,1.36,1.3,2.24.25.83.37,1.79.37,2.85v10.61ZM596.29,150.12l-.1.55-.2.5-.41.51-.89.66-1.55.78c-.61.25-1.3.46-2.06.63-.78.17-1.64.26-2.56.26-1.59,0-3.05-.28-4.34-.81-1.32-.55-2.45-1.36-3.38-2.42-.92-1.05-1.63-2.36-2.11-3.88-.48-1.49-.72-3.22-.72-5.14s.26-3.76.77-5.32c.53-1.59,1.27-2.95,2.22-4.05.96-1.12,2.13-2,3.48-2.59,1.93-.85,4.3-1.12,6.53-.69.67.14,1.28.3,1.85.5l1.57.73,1.04.75.45.55.21.54.1.51.03.66-.05.73-.17.64-.44.61c-.58.46-1.26.43-2.13-.24l-1.03-.68-1.51-.68c-1.13-.38-3.05-.43-4.39.22-.69.34-1.27.82-1.77,1.49-.51.69-.92,1.54-1.21,2.55-.29,1.03-.45,2.24-.45,3.59s.15,2.53.43,3.54c.27.97.67,1.79,1.16,2.43.49.62,1.07,1.08,1.77,1.39,1.33.6,3.29.61,4.53.2l1.55-.66,1.08-.69,1.29-.52h.26l.44.18.56.71.13.64.03.76-.02.56M617.54,152.33l-.52,1.08-.77.33h-1.83l-.83-.37-.39-.6-.99.56c-.98.47-2.01.71-3.1.71-.93,0-1.78-.12-2.54-.37-.78-.25-1.47-.63-2.04-1.12-.58-.5-1.04-1.12-1.35-1.84-.31-.71-.47-1.53-.47-2.42,0-1.05.22-1.98.66-2.78.44-.79,1.07-1.45,1.88-1.97.77-.49,1.71-.86,2.8-1.1,1.04-.23,2.22-.35,3.51-.35h1.21v-.26l-.16-1.35-.4-.76-.72-.44c-.74-.26-2.11-.24-3,.03l-1.35.5-.99.52c-.88.51-1.42.48-1.91.15l-.48-.53-.23-.69-.05-.63.09-.92.57-.95,1.03-.69,1.48-.62c.54-.18,1.13-.33,1.77-.45,1.84-.35,3.8-.19,5.16.25.94.3,1.71.76,2.31,1.37.6.6,1.04,1.36,1.3,2.24.25.83.38,1.78.38,2.85v10.61ZM631.44,152.32l-.26.81-.6.47-.71.18-.84.04-.82-.04-.7-.17-.67-.55-.2-.74v-23.35l.2-.74.68-.56.7-.18h1.66l.71.19.62.5.24.79v23.35ZM645.39,152.32l-.26.81-.6.47-.71.18-.84.04-.82-.04-.7-.17-.66-.53-.21-.75v-16l.2-.45.67-.57.69-.17h1.66l.72.18h0l.63.52.16.24.07.52v15.73ZM645.04,133.35c-.46.43-1.14.63-2.08.63s-1.61-.2-2.06-.63c-.45-.43-.67-1.1-.67-2.05s.22-1.64.68-2.07c.45-.43,1.13-.64,2.08-.64s1.61.21,2.05.63c.45.43.67,1.1.67,2.05s-.22,1.64-.68,2.08M669.92,152.32l-.2.74-.68.57-.61.15h-1.48l-.62-.15-.67-.51-.24-.7-1.15.76c-1.04.58-2.18.87-3.4.87-1.31,0-2.46-.26-3.42-.79-.95-.52-1.73-1.24-2.32-2.13-.57-.86-.99-1.87-1.25-3.01-.25-1.09-.37-2.26-.37-3.47,0-1.43.16-2.75.47-3.91.33-1.21.81-2.26,1.45-3.11.66-.89,1.49-1.59,2.47-2.06,1.82-.89,4.38-1.03,6.33,0l.85.52v-7.04l.17-.69.78-.63.6-.14h1.71l.63.16.68.53.25.78v23.28ZM692.83,152.33l-.52,1.08-.77.33h-1.83l-.83-.37-.39-.6-.99.56c-.97.47-2.02.71-3.1.71-.93,0-1.78-.12-2.54-.37-.79-.25-1.47-.63-2.04-1.12-.58-.5-1.04-1.11-1.35-1.84-.32-.71-.47-1.53-.47-2.42,0-1.05.22-1.98.66-2.77.44-.79,1.07-1.45,1.88-1.97.77-.49,1.71-.86,2.79-1.1,1.04-.23,2.22-.35,3.51-.35h1.2v-.26l-.16-1.35-.4-.76-.72-.44c-.74-.26-2.11-.24-3,.03l-1.35.5-.99.52c-.86.5-1.41.48-1.9.15l-.48-.52-.23-.7-.05-.63.09-.92.56-.94,1.03-.69,1.47-.62c.54-.18,1.13-.33,1.77-.45,1.84-.35,3.8-.19,5.16.25.93.3,1.71.76,2.31,1.37s1.04,1.36,1.3,2.24c.25.83.37,1.79.37,2.85v10.61ZM717.33,152.32l-.2.74-.68.57-.61.15h-1.48l-.62-.16-.66-.51-.24-.7-1.15.76c-1.04.58-2.18.87-3.4.87-1.31,0-2.46-.26-3.42-.79-.95-.52-1.73-1.24-2.32-2.13-.57-.85-.99-1.87-1.25-3.01-.25-1.09-.37-2.26-.37-3.47,0-1.43.16-2.75.47-3.91.32-1.21.81-2.26,1.45-3.11.66-.89,1.49-1.59,2.47-2.06,1.81-.89,4.38-1.03,6.32,0l.85.52v-7.04l.17-.69.78-.63.6-.14h1.71l.64.16.66.51.25.79v23.28Z"/>
    </g>
  </g>
</svg>