<?xml version="1.0" encoding="UTF-8"?>
<svg id="Capa_2" data-name="Capa 2" xmlns="http://www.w3.org/2000/svg" viewBox="0 0 962.91 197.6">
  <defs>
    <style>
      .cls-1 {
        fill: #fff;
      }
    </style>
  </defs>
  <g id="Capa_1-2" data-name="Capa 1">
    <g>
      <path class="cls-1" d="M206.45,6.59l-1.35.19c-1.02.58-2.3,1.99-2.88,3.07l-.13,1.15v3.39h4.8v3.33h-4.8v24.19h-3.46v-24.19h-4.55v-3.33h4.55v-3.52c0-1.29.26-2.44.9-3.39.51-.71,1.98-2.42,2.88-3.07,1.03-.76,2.56-1.15,3.97-1.15h4.09v3.33h-4.03Z"/>
      <path class="cls-1" d="M233.2,41.91l-.38-3.2c-.77.83-1.66,1.66-2.37,2.17-.9.64-2.11,1.35-3.19,1.35h-4.8c-1.41,0-2.94-.45-3.97-1.22-.9-.64-2.37-2.36-2.88-3.07-.65-.96-.9-2.11-.9-3.39V14.4h3.46v20.03l.13,1.08c.57,1.09,2.04,2.56,3.07,3.14l1.14.26h4.55l.9-.19c1.08-.58,3.84-2.3,4.8-3.84V14.4h3.46v22.97l.44,4.55h-3.46Z"/>
      <path class="cls-1" d="M263.78,41.91v-20.03l-.13-1.08c-.58-1.09-2.05-2.56-3.07-3.14l-1.15-.26h-4.55l-.9.2c-1.08.58-3.84,2.3-4.8,3.84v20.47h-3.46v-22.97l-.45-4.55h3.46l.38,3.2c.77-.83,1.66-1.66,2.37-2.18.9-.64,2.11-1.35,3.2-1.35h4.8c1.41,0,2.94.45,3.97,1.22.89.64,2.36,2.36,2.88,3.07.64.96.9,2.11.9,3.39v20.15h-3.46Z"/>
      <path class="cls-1" d="M279.9,15.29c1.03-.77,2.44-1.22,3.91-1.22h4.99c1.09,0,2.24.65,3.2,1.35.77.57,1.6,1.34,2.49,2.3V3.52h3.46v33.84l.38,4.55h-3.46l-.39-3.39c-.83.96-1.72,1.8-2.49,2.37-.96.7-2.11,1.35-3.2,1.35h-4.99c-1.47,0-2.88-.44-3.91-1.22-.83-.7-2.36-2.36-2.88-3.07-.64-.96-.96-2.11-.96-3.39v-12.79c0-1.35.32-2.43.96-3.39.51-.7,2.05-2.37,2.88-3.07M279.71,35.51c.57,1.09,1.99,2.56,3.01,3.14l1.15.26h4.73l.9-.19c1.02-.52,4.03-2.37,4.86-3.91l.12-.32v-12.68l-.12-.32c-.84-1.54-3.84-3.39-4.86-3.91l-.9-.19h-4.73l-1.15.26c-1.02.57-2.44,2.04-3.01,3.13l-.19,1.09v12.54l.19,1.08"/>
      <path class="cls-1" d="M324.95,41.91l-.38-3.2c-.77.83-1.73,1.66-2.44,2.17-.96.71-2.04,1.35-3.13,1.35h-5.63c-1.48,0-2.88-.45-3.9-1.22-.84-.71-2.31-2.3-2.81-3-.65-.96-.96-2.12-.96-3.39v-1.29c0-1.34.32-2.42.96-3.39.51-.7,1.98-2.3,2.81-3,1.02-.77,2.42-1.22,3.9-1.22h11.13v-3.91l-.13-1.02c-.57-1.09-2.05-2.56-3.07-3.14l-1.15-.26h-6.01l-1.09.26c-1.02.58-2.36,2.12-3.06,3.2l-3.33-1.08.96-1.48c.58-.83,1.99-2.37,2.88-3.07,1.02-.77,2.37-1.15,3.85-1.15h5.88c1.47,0,2.95.44,3.97,1.21.96.58,2.36,2.3,2.88,3.01.7.96.9,2.18.9,3.46v15.61l.45,4.55h-3.46ZM324.5,34.81v-5.76h-11.07l-1.14.26c-1.02.57-2.37,1.91-2.94,3l-.2,1.02v1.29l.2,1.02c.57,1.08,1.92,2.42,2.94,3l1.14.26h5.37l.9-.19c1.02-.51,3.97-2.36,4.8-3.91"/>
      <path class="cls-1" d="M355.21,41.02c-1.02.77-2.5,1.22-3.91,1.22h-6.53c-1.41,0-2.94-.45-3.97-1.22-.9-.64-2.36-2.37-2.88-3.07-.64-.96-.9-2.12-.9-3.39v-12.79c0-1.29.26-2.44.9-3.39.51-.71,1.98-2.44,2.88-3.07,1.02-.77,2.56-1.22,3.97-1.22h6.34c1.41,0,2.88.44,3.9,1.22,1.6,1.14,2.94,3.2,3.78,4.54l-3.33,1.09c-.51-1.09-2.05-2.69-3.07-3.27l-1.15-.26h-6.4l-1.15.26c-1.02.58-2.43,2.05-3.01,3.14l-.19,1.08v12.54l.19,1.09c.58,1.09,1.92,2.55,2.94,3.13l1.15.26h6.65l1.15-.26c1.02-.58,2.56-2.18,3.01-3.13l.06-.13,3.33,1.15c-.77,1.41-2.24,3.39-3.78,4.48"/>
      <path class="cls-1" d="M366.86,3.2h3.97v4.09h-3.97V3.2ZM367.11,14.4h3.45v27.51h-3.45V14.4Z"/>
      <path class="cls-1" d="M400.38,37.94c-.51.7-1.98,2.43-2.88,3.07-1.02.77-2.56,1.22-3.97,1.22h-6.4c-1.41,0-2.94-.45-3.97-1.22-.9-.64-2.37-2.37-2.88-3.07-.64-.96-.9-2.12-.9-3.39v-12.79c0-1.29.26-2.44.9-3.39.51-.71,1.98-2.44,2.88-3.07,1.02-.77,2.56-1.22,3.97-1.22h6.4c1.41,0,2.94.44,3.97,1.22.9.63,2.36,2.36,2.88,3.07.64.96.9,2.11.9,3.39v12.79c0,1.28-.26,2.43-.9,3.39M397.82,21.88l-.13-1.08c-.57-1.09-2.05-2.56-3.07-3.14l-1.15-.26h-6.27l-1.15.26c-1.02.58-2.43,2.05-3,3.14l-.2,1.08v12.54l.2,1.09c.57,1.09,1.98,2.55,3,3.13l1.15.26h6.27l1.15-.26c1.02-.58,2.5-2.04,3.07-3.13l.13-1.09v-12.54ZM388.74,8.7l-3.65-1.15,6.98-7.55h4.73l-8.06,8.7Z"/>
      <path class="cls-1" d="M428.09,41.91v-20.03l-.13-1.08c-.57-1.09-2.05-2.56-3.07-3.14l-1.15-.26h-4.55l-.9.2c-1.08.58-3.83,2.3-4.8,3.84v20.47h-3.45v-22.97l-.45-4.55h3.46l.38,3.2c.77-.83,1.66-1.66,2.37-2.18.9-.64,2.11-1.35,3.2-1.35h4.8c1.41,0,2.94.45,3.97,1.22.89.64,2.36,2.36,2.88,3.07.64.96.9,2.11.9,3.39v20.15h-3.45Z"/>
      <path class="cls-1" d="M475.56,38.2c-.51.71-1.72,2.18-2.63,2.82-1.02.77-2.56,1.22-3.9,1.22h-7.68c-1.35,0-2.88-.45-3.91-1.22-.9-.64-2.3-2.3-2.81-3l-.9-1.48,3.33-1.15c.52,1.08,1.99,2.68,3.01,3.26l1.15.26h7.74l1.09-.26c1.02-.58,2.24-1.79,2.81-2.88l.19-1.09v-2.3c0-1.29-1.08-2.24-2.42-2.37l-10.56-.77c-3.14-.26-5.57-2.69-5.57-5.82v-1.93c0-1.28.32-2.43.96-3.39.51-.71,1.72-2.18,2.62-2.82,1.03-.77,2.57-1.22,3.91-1.22h6.65c1.34,0,2.88.44,3.91,1.22.89.63,2.36,2.36,2.88,3.07l.9,1.41-3.33,1.15c-.51-1.09-2.05-2.69-3.07-3.27l-1.09-.26h-6.78l-1.15.26c-1.03.58-2.18,1.73-2.75,2.81l-.19,1.08v1.92c0,1.29,1.08,2.24,2.43,2.37l10.55.84c3.13.26,5.57,2.68,5.57,5.82v2.3c0,1.29-.32,2.43-.96,3.39"/>
      <path class="cls-1" d="M503.07,41.91l-.39-3.2c-.76.83-1.66,1.66-2.36,2.17-.9.64-2.11,1.35-3.19,1.35h-4.8c-1.41,0-2.94-.45-3.97-1.22-.9-.64-2.37-2.36-2.88-3.07-.65-.96-.9-2.11-.9-3.39V14.4h3.46v20.03l.13,1.08c.57,1.09,2.04,2.56,3.07,3.14l1.15.26h4.54l.9-.19c1.08-.58,3.84-2.3,4.8-3.84V14.4h3.45v22.97l.45,4.55h-3.46Z"/>
      <path class="cls-1" d="M515.48,3.2h3.97v4.09h-3.97V3.2ZM515.75,14.4h3.45v27.51h-3.45V14.4Z"/>
      <polygon class="cls-1" points="528.22 41.91 528.22 38.84 542.68 17.72 527.71 17.72 527.71 14.4 546.96 14.4 546.96 17.54 532.58 38.58 547.68 38.58 547.68 41.91 528.22 41.91"/>
      <path class="cls-1" d="M573.32,41.91l-.38-3.2c-.77.83-1.72,1.66-2.44,2.17-.96.71-2.03,1.35-3.13,1.35h-5.63c-1.47,0-2.88-.45-3.91-1.22-.83-.71-2.3-2.3-2.81-3-.64-.96-.96-2.12-.96-3.39v-1.29c0-1.34.32-2.42.96-3.39.51-.7,1.98-2.3,2.81-3,1.03-.77,2.44-1.22,3.91-1.22h11.13v-3.91l-.13-1.02c-.57-1.09-2.04-2.56-3.07-3.14l-1.15-.26h-6.01l-1.08.26c-1.02.58-2.36,2.12-3.07,3.2l-3.33-1.08.96-1.48c.58-.83,1.99-2.37,2.88-3.07,1.02-.77,2.36-1.15,3.84-1.15h5.89c1.47,0,2.94.44,3.97,1.21.96.58,2.37,2.3,2.88,3.01.69.96.9,2.18.9,3.46v15.61l.44,4.55h-3.46ZM572.88,34.81v-5.76h-11.07l-1.16.26c-1.02.57-2.36,1.91-2.94,3l-.19,1.02v1.29l.19,1.02c.57,1.08,1.92,2.42,2.94,3l1.16.26h5.37l.9-.19c1.02-.51,3.97-2.36,4.79-3.91"/>
      <path class="cls-1" d="M618.43,41.27c-1.02.76-2.49,1.22-3.89,1.22h-5c-1.08,0-2.3-.71-3.19-1.35-.77-.57-1.66-1.41-2.5-2.3v13.82h-3.45V18.94l-.39-4.55h3.45l.38,3.39c.84-.9,1.73-1.8,2.5-2.37.9-.65,2.11-1.35,3.19-1.35h5c1.41,0,2.87.44,3.89,1.22.9.63,2.36,2.36,2.88,3.07.64.96.96,2.11.96,3.39v13.05c0,1.29-.32,2.43-.96,3.39-.52.71-1.98,2.42-2.88,3.07M618.63,20.8c-.58-1.09-1.99-2.56-3.01-3.14l-1.14-.26h-4.73l-.9.19c-1.09.58-3.97,2.37-4.87,3.91l-.13.38v12.86l.13.32c.9,1.6,3.78,3.33,4.87,3.91l.9.19h4.73l1.14-.26c1.02-.58,2.43-2.05,3.01-3.14l.19-1.08v-12.8l-.19-1.08"/>
      <path class="cls-1" d="M648.89,41.91l-.38-3.2c-.77.83-1.73,1.66-2.44,2.17-.96.71-2.04,1.35-3.13,1.35h-5.63c-1.47,0-2.88-.45-3.9-1.22-.84-.71-2.31-2.3-2.82-3-.64-.96-.96-2.12-.96-3.39v-1.29c0-1.34.32-2.42.96-3.39.51-.7,1.97-2.3,2.82-3,1.02-.77,2.42-1.22,3.9-1.22h11.13v-3.91l-.13-1.02c-.58-1.09-2.05-2.56-3.08-3.14l-1.14-.26h-6.01l-1.08.26c-1.03.58-2.37,2.12-3.07,3.2l-3.33-1.08.96-1.48c.57-.83,1.98-2.37,2.88-3.07,1.02-.77,2.36-1.15,3.84-1.15h5.89c1.48,0,2.95.44,3.97,1.21.96.58,2.37,2.3,2.88,3.01.7.96.9,2.18.9,3.46v15.61l.44,4.55h-3.46ZM648.44,34.81v-5.76h-11.07l-1.15.26c-1.02.57-2.36,1.91-2.94,3l-.2,1.02v1.29l.2,1.02c.57,1.08,1.92,2.42,2.94,3l1.15.26h5.37l.9-.19c1.02-.51,3.96-2.36,4.8-3.91"/>
      <path class="cls-1" d="M678,20.86c-.64-.96-2.05-2.62-3.07-3.2l-1.15-.26h-3.14l-.96.2c-1.09.58-3.96,2.3-4.86,3.91v20.41h-3.46v-22.97l-.38-4.55h3.45l.38,3.26c.84-.83,1.66-1.72,2.43-2.24.9-.64,2.12-1.35,3.21-1.35h3.19c1.41,0,2.88.45,3.91,1.22.9.64,2.3,2.36,2.82,3.07l.96,1.41-3.33,1.08Z"/>
      <path class="cls-1" d="M705.58,41.91l-.38-3.2c-.77.83-1.74,1.66-2.44,2.17-.96.71-2.05,1.35-3.13,1.35h-5.63c-1.48,0-2.88-.45-3.9-1.22-.84-.71-2.31-2.3-2.81-3-.65-.96-.96-2.12-.96-3.39v-1.29c0-1.34.32-2.42.96-3.39.5-.7,1.97-2.3,2.81-3,1.02-.77,2.42-1.22,3.9-1.22h11.13v-3.91l-.14-1.02c-.57-1.09-2.04-2.56-3.07-3.14l-1.14-.26h-6.01l-1.09.26c-1.03.58-2.37,2.12-3.06,3.2l-3.33-1.08.96-1.48c.57-.83,1.98-2.37,2.88-3.07,1.02-.77,2.36-1.15,3.84-1.15h5.89c1.47,0,2.94.44,3.97,1.21.96.58,2.37,2.3,2.88,3.01.71.96.9,2.18.9,3.46v15.61l.44,4.55h-3.46ZM705.13,34.81v-5.76h-11.08l-1.14.26c-1.02.57-2.36,1.91-2.94,3l-.19,1.02v1.29l.19,1.02c.58,1.08,1.92,2.42,2.94,3l1.14.26h5.38l.9-.19c1.02-.51,3.97-2.36,4.8-3.91"/>
      <path class="cls-1" d="M733.22,41.91c-.13-1.08-.58-2.49-.58-3.58V3.52h3.46v34.03c0,1.41.44,2.95.58,4.36h-3.46Z"/>
      <path class="cls-1" d="M763.35,41.91l-.38-3.2c-.77.83-1.74,1.66-2.44,2.17-.96.71-2.05,1.35-3.13,1.35h-5.63c-1.47,0-2.88-.45-3.9-1.22-.84-.71-2.31-2.3-2.82-3-.65-.96-.96-2.12-.96-3.39v-1.29c0-1.34.32-2.42.96-3.39.51-.7,1.98-2.3,2.82-3,1.02-.77,2.42-1.22,3.9-1.22h11.13v-3.91l-.13-1.02c-.57-1.09-2.04-2.56-3.07-3.14l-1.14-.26h-6.01l-1.09.26c-1.03.58-2.37,2.12-3.06,3.2l-3.33-1.08.96-1.48c.57-.83,1.98-2.37,2.88-3.07,1.02-.77,2.36-1.15,3.84-1.15h5.89c1.47,0,2.94.44,3.97,1.21.96.58,2.37,2.3,2.88,3.01.71.96.9,2.18.9,3.46v15.61l.44,4.55h-3.46ZM762.91,34.81v-5.76h-11.08l-1.14.26c-1.02.57-2.36,1.91-2.94,3l-.19,1.02v1.29l.19,1.02c.58,1.08,1.92,2.42,2.94,3l1.14.26h5.38l.9-.19c1.02-.51,3.97-2.36,4.8-3.91"/>
      <path class="cls-1" d="M808.2,41.02c-1.02.77-2.49,1.22-3.9,1.22h-6.53c-1.41,0-2.94-.45-3.97-1.22-.9-.64-2.36-2.37-2.88-3.07-.64-.96-.9-2.12-.9-3.39v-12.79c0-1.29.26-2.44.9-3.39.51-.71,1.98-2.44,2.88-3.07,1.03-.77,2.56-1.22,3.97-1.22h6.34c1.41,0,2.88.44,3.91,1.22,1.6,1.14,2.94,3.2,3.77,4.54l-3.33,1.09c-.51-1.09-2.05-2.69-3.07-3.27l-1.15-.26h-6.4l-1.15.26c-1.02.58-2.43,2.05-3.01,3.14l-.19,1.08v12.54l.19,1.09c.58,1.09,1.92,2.55,2.94,3.13l1.15.26h6.65l1.15-.26c1.03-.58,2.56-2.18,3.01-3.13l.06-.13,3.33,1.15c-.77,1.41-2.24,3.39-3.78,4.48"/>
      <path class="cls-1" d="M837.76,41.91l-.39-3.2c-.76.83-1.66,1.66-2.36,2.17-.9.64-2.11,1.35-3.2,1.35h-4.8c-1.41,0-2.94-.45-3.96-1.22-.89-.64-2.36-2.36-2.88-3.07-.65-.96-.9-2.11-.9-3.39V14.4h3.45v20.03l.13,1.08c.58,1.09,2.05,2.56,3.08,3.14l1.14.26h4.55l.9-.19c1.08-.58,3.83-2.3,4.8-3.84V14.4h3.45v22.97l.45,4.55h-3.46Z"/>
      <path class="cls-1" d="M850.82,41.91c-.13-1.08-.58-2.49-.58-3.58V3.52h3.45v34.03c0,1.41.45,2.95.58,4.36h-3.45Z"/>
      <path class="cls-1" d="M869.05,17.73v16.38l.2,1.21c.57,1.08,1.86,2.44,2.88,3.01l1.28.26h4.03v3.33h-4.09c-1.41,0-2.88-.45-3.91-1.22-.9-.64-2.37-2.36-2.88-3.07-.64-.96-.96-2.11-.96-3.39v-16.51h-4.55v-3.33h4.55V3.52h3.46v10.88h8.45v3.33h-8.45Z"/>
      <path class="cls-1" d="M902.76,41.91l-.38-3.2c-.76.83-1.66,1.66-2.36,2.17-.9.64-2.11,1.35-3.2,1.35h-4.8c-1.41,0-2.94-.45-3.97-1.22-.89-.64-2.36-2.36-2.87-3.07-.65-.96-.9-2.11-.9-3.39V14.4h3.46v20.03l.13,1.08c.58,1.09,2.05,2.56,3.07,3.14l1.15.26h4.54l.9-.19c1.08-.58,3.83-2.3,4.8-3.84V14.4h3.45v22.97l.45,4.55h-3.46Z"/>
      <path class="cls-1" d="M931.88,20.86c-.63-.96-2.04-2.62-3.06-3.2l-1.16-.26h-3.13l-.96.2c-1.1.58-3.97,2.3-4.87,3.91v20.41h-3.45v-22.97l-.38-4.55h3.45l.38,3.26c.84-.83,1.67-1.72,2.43-2.24.9-.64,2.12-1.35,3.21-1.35h3.19c1.41,0,2.88.45,3.91,1.22.9.64,2.3,2.36,2.82,3.07l.96,1.41-3.33,1.08Z"/>
      <path class="cls-1" d="M959.46,41.91l-.38-3.2c-.77.83-1.74,1.66-2.44,2.17-.96.71-2.05,1.35-3.13,1.35h-5.63c-1.47,0-2.88-.45-3.9-1.22-.84-.71-2.31-2.3-2.82-3-.65-.96-.96-2.12-.96-3.39v-1.29c0-1.34.32-2.42.96-3.39.51-.7,1.97-2.3,2.82-3,1.02-.77,2.42-1.22,3.9-1.22h11.13v-3.91l-.13-1.02c-.58-1.09-2.05-2.56-3.08-3.14l-1.14-.26h-6.01l-1.09.26c-1.03.58-2.37,2.12-3.06,3.2l-3.33-1.08.96-1.48c.57-.83,1.98-2.37,2.88-3.07,1.02-.77,2.37-1.15,3.84-1.15h5.89c1.47,0,2.94.44,3.97,1.21.96.58,2.37,2.3,2.88,3.01.71.96.9,2.18.9,3.46v15.61l.44,4.55h-3.46ZM959.01,34.81v-5.76h-11.08l-1.14.26c-1.03.57-2.37,1.91-2.95,3l-.19,1.02v1.29l.19,1.02c.58,1.08,1.92,2.42,2.95,3l1.14.26h5.38l.9-.19c1.02-.51,3.97-2.36,4.8-3.91"/>
      <path class="cls-1" d="M156.85,167.95h-16.32v-16.41h-19.28v2.53c0,11.87,8.29,20.16,20.16,20.16h14.46c11.88,0,20.17-8.29,20.17-20.16v-2.53h-19.19v16.41ZM155.87,113.78h-14.46c-11.87,0-20.16,8.31-20.16,20.16v2.3h19.14v-16.18h16.46v16.18h19.19v-2.3c0-11.85-8.29-20.16-20.17-20.16"/>
      <path class="cls-1" d="M34.95,161.2h-14.47c-4.79,0-7.13-2.33-7.13-7.13v-20.12c0-4.8,2.34-7.12,7.13-7.12h14.47c4.65,0,7.11,2.47,7.11,7.12v20.12c0,4.66-2.46,7.12-7.11,7.13M34.95,113.45h-14.47c-12.07,0-20.49,8.43-20.49,20.49v63.64h13.36s0-24.39,0-24.39l.56.29c2.44.73,4.52,1.06,6.57,1.06h14.47c12.07,0,20.49-8.4,20.49-20.48v-20.12c0-12.06-8.42-20.49-20.49-20.49"/>
      <path class="cls-1" d="M230.35,113.45h-14.47c-1.89,0-4.04.38-6.55,1.15l-.7.2v-23.24h-13.13l-.09,83h13.22v-40.61c0-4.58,2.58-7.12,7.25-7.12h14.47c4.8,0,7.13,2.32,7.13,7.12v40.61h13.36v-40.61c0-12.06-8.42-20.49-20.49-20.49"/>
      <path class="cls-1" d="M592.39,174.56h13.25v-61.09h-13.26s0,61.09,0,61.09ZM605.64,91.63h-13.25v14.06s13.25,0,13.25,0v-14.06Z"/>
      <path class="cls-1" d="M571.66,126.83l.02-13.36h-18.17v-21.84h-13.35l-.02,21.84h-11.68s0,13.36,0,13.36h11.7l-.02,27.24c0,12.24,8.24,20.48,20.5,20.48h10.8v-13.26h-10.8c-4.8.01-7.13-2.42-7.13-7.22v-27.24h18.15Z"/>
      <path class="cls-1" d="M364.86,161.31c-4.79,0-7.11-2.43-7.11-7.23v-62.39h-13.27v62.39c-.01,12.24,8.12,20.48,20.38,20.48h10.97v-13.26h-10.97Z"/>
      <path class="cls-1" d="M92.9,113.5c-12.25,0-20.49,8.25-20.49,20.48v40.57h13.37v-40.57c0-4.79,2.34-7.12,7.13-7.12h16.06v-13.35h-16.06Z"/>
      <path class="cls-1" d="M430.85,113.52l-5.96,21.15-6.36,22.94c-1.08,3.67-1.16,3.97-3.81,3.97s-2.73-.22-3.58-3.25l-12.5-44.81h-13.94l13.44,47.83c2.89,10.03,7.23,13.6,16.58,13.6s13.73-3.63,16.61-13.86l13.37-47.57h-13.84Z"/>
      <path class="cls-1" d="M290.48,126.06h14.47c5.23,0,7.89,2.66,7.89,7.88v4.08h-30.24v-4.08c0-5.09,2.8-7.88,7.87-7.88M304.95,113.45h-14.47c-12.06,0-20.47,8.43-20.47,20.49v20.12c0,12.08,8.42,20.48,20.47,20.48h31.83v-13.25h-32.43c-4.67.01-7.12-2.57-7.12-7.23v-3.5h33.36c4.5,0,9.32-3.54,9.32-9.41v-7.22c0-12.06-8.42-20.49-20.49-20.49"/>
      <path class="cls-1" d="M471.09,135.2c0-5.56,3.09-9.13,7.88-9.13h14.47c5.22,0,7.87,2.66,7.87,7.88v4.08h-30.22v-2.83ZM493.44,113.45h-14.47c-12.07,0-20.49,8.43-20.49,20.49v20.12c0,12.08,8.43,20.48,20.49,20.48h31.81v-13.25h-32.42c-4.66.01-7.12-2.57-7.12-7.23v-3.55h33.36c4.49,0,9.33-3.49,9.33-9.35v-7.22c0-12.06-8.43-20.49-20.49-20.49"/>
      <path class="cls-1" d="M662.4,161.96h-18.02c-7.07,0-7.87-3.44-7.87-6.05,0-4.36,1.29-5.49,6.98-6.06l20.76-2.24,2.73-.61v10.47c0,3.14-1.45,4.49-4.58,4.49M659.24,113.45h-26.82v13.38h26.82c4.07,0,6.34,1.9,6.75,5.64v.91c-.14.8-.77,1.41-3.4,1.79l-20.31,2.09c-16,1.72-18.38,12.42-18.38,18.66,0,12.88,10.28,18.64,20.49,18.64h18.02c10.06,0,17.06-7.02,17.06-17.07v-23.53c0-12.06-8.3-20.49-20.22-20.49"/>
    </g>
  </g>
</svg>